<svg xmlns="http://www.w3.org/2000/svg" viewBox="0 0 864 612"><defs><style>.cls-1{fill:#39ccc7;}.cls-2{fill:#fff;}</style></defs><title>BlackAsset 2</title><g id="Layer_2" data-name="Layer 2"><g id="Layer_1-2" data-name="Layer 1"><path class="cls-1" d="M0,65A65,65,0,0,1,65,0H799a65,65,0,0,1,65,65V547a65,65,0,0,1-65,65H65A65,65,0,0,1,0,547Z"/><path class="cls-2" d="M841,51V561c0,28.9-22.07,51-50.94,51H739.12V149.16L433.5,368.9,127.88,149.16V612H76.94C48,612,26,589.9,26,561V51A50.71,50.71,0,0,1,40.64,14.69C49.77,5.44,62.54,0,76.94,0h17L433.5,246.5,773.08,0h17a50.63,50.63,0,0,1,36.3,14.69C835.53,23.8,841,36.55,841,51Z"/></g></g></svg>