<?xml version="1.0" encoding="utf-8"?>
<!-- Generator: Adobe Illustrator 21.1.0, SVG Export Plug-In . SVG Version: 6.00 Build 0)  -->
<svg version="1.1" xmlns="http://www.w3.org/2000/svg" xmlns:xlink="http://www.w3.org/1999/xlink" x="0px" y="0px"
	 viewBox="0 0 595.4 419.2" style="enable-background:new 0 0 595.4 419.2;" xml:space="preserve">
<style type="text/css">
	.st0{fill:#C7F0EF;}
	.st1{fill:#FFFFFF;}
	.st2{fill:none;stroke:#000000;stroke-width:3;}
	.st3{fill:none;stroke:#000000;}
	.st4{fill:#C4C4C4;}
	.st5{fill:#7F7F7F;}
	.st6{fill:#E5E5E5;}
	.st7{fill:#231F20;}
	.st8{fill:url(#SVGID_1_);}
</style>
<g id="Layer_1">
	<title>Path 33</title>
	<g id="Layer_2">
		<g id="Layer_1-2">
			<path id="Path_33" class="st0" d="M595.4,196.3c0,104.7-146.3,222.9-295.3,222.9S0,301,0,196.3S151.2,0,300.2,0
				S595.4,91.4,595.4,196.3z"/>
		</g>
	</g>
</g>
<g id="Layer_4">
	<rect x="149.3" y="77.7" class="st1" width="307.6" height="239.2"/>
</g>
<g id="Layer_3">
	<rect x="149.3" y="99.3" class="st1" width="303.3" height="202.2"/>
	<rect x="196.3" y="150.8" class="st2" width="211.6" height="31.6"/>
	<rect x="195.7" y="214.6" class="st3" width="212.9" height="48.6"/>
	<path class="st4" d="M154.3,122.7l13.3-9.8v19.7L154.3,122.7z"/>
	<rect x="160.6" y="118.9" class="st4" width="19" height="8.2"/>
	<path d="M273.7,164.6c0,0.2,0,0.4-0.1,0.6c0,0.2,0.1,0.4,0.1,0.6c0,0.2,0,0.4-0.1,0.6H273c0,0.2,0.1,0.4,0.1,0.6
		c0,0.2,0,0.4-0.1,0.6h-3c0,0.2,0.1,0.4,0.1,0.6c0,0.2,0,0.4-0.1,0.6c0,0.2,0.1,0.4,0.1,0.6c0,0.2,0,0.4-0.1,0.6
		c0,0.2,0.1,0.4,0.1,0.6c0,0.2,0,0.4-0.1,0.6h-1.2c0-0.2-0.1-0.4-0.1-0.6c0-0.2,0-0.4,0.1-0.6c0-0.2-0.1-0.4-0.1-0.6
		c0-0.2,0-0.4,0.1-0.6c0-0.2-0.1-0.4-0.1-0.6c0-0.2,0-0.4,0.1-0.6c0-0.2-0.1-0.4-0.1-0.6c0-0.2,0-0.4,0.1-0.6c0-0.2-0.1-0.4-0.1-0.6
		c0-0.2,0-0.4,0.1-0.6c0-0.2-0.1-0.4-0.1-0.6c0-0.2,0-0.4,0.1-0.6c0-0.2-0.1-0.4-0.1-0.6c0-0.2,0-0.4,0.1-0.6h4.2
		c0,0.2,0.1,0.4,0.1,0.6c0,0.2,0,0.4-0.1,0.6h0.6C273.7,164.2,273.7,164.4,273.7,164.6z M272.4,166.5c0-0.2-0.1-0.4-0.1-0.6
		c0-0.2,0-0.4,0.1-0.6c0-0.2-0.1-0.4-0.1-0.6c0-0.2,0-0.4,0.1-0.6H270c0,0.2,0.1,0.4,0.1,0.6c0,0.2,0,0.4-0.1,0.6
		c0,0.2,0.1,0.4,0.1,0.6c0,0.2,0,0.4-0.1,0.6H272.4z M282.5,169.5c0,0.2,0,0.4-0.1,0.6h1.5c0,0.2,0.1,0.4,0.1,0.6
		c0,0.2,0,0.4-0.1,0.6h-2.4c0-0.2-0.1-0.4-0.1-0.6c0-0.2,0-0.4,0.1-0.6h-0.8c0-0.2-0.1-0.4-0.1-0.6c0-0.2,0-0.4,0.1-0.6
		c0-0.2-0.1-0.4-0.1-0.6c0-0.2,0-0.4,0.1-0.6c0-0.2-0.1-0.4-0.1-0.6c0-0.2,0-0.4,0.1-0.6c0-0.2-0.1-0.4-0.1-0.6c0-0.2,0-0.4,0.1-0.6
		h1.2c0,0.2,0.1,0.4,0.1,0.6c0,0.2,0,0.4-0.1,0.6c0,0.2,0.1,0.4,0.1,0.6c0,0.2,0,0.4-0.1,0.6c0,0.2,0.1,0.4,0.1,0.6
		c0,0.2,0,0.4-0.1,0.6h0.5C282.5,169,282.5,169.2,282.5,169.5z M285.6,166.5c0,0.2,0.1,0.4,0.1,0.6c0,0.2,0,0.4-0.1,0.6
		c0,0.2,0.1,0.4,0.1,0.6c0,0.2,0,0.4-0.1,0.6c0,0.2,0.1,0.4,0.1,0.6c0,0.2,0,0.4-0.1,0.6c0,0.2,0.1,0.4,0.1,0.6c0,0.2,0,0.4-0.1,0.6
		h-1.2c0-0.2-0.1-0.4-0.1-0.6c0-0.2,0-0.4,0.1-0.6H284c0-0.2-0.1-0.4-0.1-0.6c0-0.2,0-0.4,0.1-0.6h0.5c0-0.2-0.1-0.4-0.1-0.6
		c0-0.2,0-0.4,0.1-0.6c0-0.2-0.1-0.4-0.1-0.6c0-0.2,0-0.4,0.1-0.6c0-0.2-0.1-0.4-0.1-0.6c0-0.2,0-0.4,0.1-0.6h1.2
		c0,0.2,0.1,0.4,0.1,0.6C285.7,166.1,285.7,166.3,285.6,166.5z M293.6,165.8c0,0.2,0,0.4-0.1,0.6h0.5c0,0.2,0.1,0.4,0.1,0.6
		c0,0.2,0,0.4-0.1,0.6c0,0.2,0.1,0.4,0.1,0.6c0,0.2,0,0.4-0.1,0.6c0,0.2,0.1,0.4,0.1,0.6c0,0.2,0,0.4-0.1,0.6c0,0.2,0.1,0.4,0.1,0.6
		c0,0.2,0,0.4-0.1,0.6h-1.2c0-0.2-0.1-0.4-0.1-0.6c0-0.2,0-0.4,0.1-0.6c0-0.2-0.1-0.4-0.1-0.6c0-0.2,0-0.4,0.1-0.6
		c0-0.2-0.1-0.4-0.1-0.6c0-0.2,0-0.4,0.1-0.6c0-0.2-0.1-0.4-0.1-0.6c0-0.2,0-0.4,0.1-0.6c0-0.2-0.1-0.4-0.1-0.6c0-0.2,0-0.4,0.1-0.6
		h0.8C293.6,165.4,293.6,165.6,293.6,165.8z M295.3,165.8c0,0.2,0,0.4-0.1,0.6h0.5c0,0.2,0.1,0.4,0.1,0.6c0,0.2,0,0.4-0.1,0.6
		c0,0.2,0.1,0.4,0.1,0.6c0,0.2,0,0.4-0.1,0.6c0,0.2,0.1,0.4,0.1,0.6c0,0.2,0,0.4-0.1,0.6c0,0.2,0.1,0.4,0.1,0.6c0,0.2,0,0.4-0.1,0.6
		h-0.9c0-0.2-0.1-0.4-0.1-0.6c0-0.2,0-0.4,0.1-0.6c0-0.2-0.1-0.4-0.1-0.6c0-0.2,0-0.4,0.1-0.6c0-0.2-0.1-0.4-0.1-0.6
		c0-0.2,0-0.4,0.1-0.6c0-0.2-0.1-0.4-0.1-0.6c0-0.2,0-0.4,0.1-0.6H294c0-0.2-0.1-0.4-0.1-0.6c0-0.2,0-0.4,0.1-0.6h1.2
		C295.2,165.4,295.3,165.6,295.3,165.8z M297.6,167.7c0,0.2,0.1,0.4,0.1,0.6c0,0.2,0,0.4-0.1,0.6c0,0.2,0.1,0.4,0.1,0.6
		c0,0.2,0,0.4-0.1,0.6c0,0.2,0.1,0.4,0.1,0.6c0,0.2,0,0.4-0.1,0.6h-1.2c0-0.2-0.1-0.4-0.1-0.6c0-0.2,0-0.4,0.1-0.6
		c0-0.2-0.1-0.4-0.1-0.6c0-0.2,0-0.4,0.1-0.6c0-0.2-0.1-0.4-0.1-0.6c0-0.2,0-0.4,0.1-0.6c0-0.2-0.1-0.4-0.1-0.6c0-0.2,0-0.4,0.1-0.6
		h-0.8c0-0.2-0.1-0.4-0.1-0.6c0-0.2,0-0.4,0.1-0.6h1.4c0,0.2,0.1,0.4,0.1,0.6c0,0.2,0,0.4-0.1,0.6h0.6c0,0.2,0.1,0.4,0.1,0.6
		C297.7,167.3,297.7,167.5,297.6,167.7z M309.7,168.3c0,0.2,0,0.4-0.1,0.6H309c0,0.2,0.1,0.4,0.1,0.6c0,0.2,0,0.4-0.1,0.6h-0.6
		c0,0.2,0.1,0.4,0.1,0.6c0,0.2,0,0.4-0.1,0.6H306c0,0.2,0.1,0.4,0.1,0.6c0,0.2,0,0.4-0.1,0.6c0,0.2,0.1,0.4,0.1,0.6
		c0,0.2,0,0.4-0.1,0.6h-1.2c0-0.2-0.1-0.4-0.1-0.6c0-0.2,0-0.4,0.1-0.6c0-0.2-0.1-0.4-0.1-0.6c0-0.2,0-0.4,0.1-0.6
		c0-0.2-0.1-0.4-0.1-0.6c0-0.2,0-0.4,0.1-0.6c0-0.2-0.1-0.4-0.1-0.6c0-0.2,0-0.4,0.1-0.6c0-0.2-0.1-0.4-0.1-0.6c0-0.2,0-0.4,0.1-0.6
		c0-0.2-0.1-0.4-0.1-0.6c0-0.2,0-0.4,0.1-0.6c0-0.2-0.1-0.4-0.1-0.6c0-0.2,0-0.4,0.1-0.6h1.2c0,0.2,0.1,0.4,0.1,0.6
		c0,0.2,0,0.4-0.1,0.6h0.6c0,0.2,0.1,0.4,0.1,0.6c0,0.2,0,0.4-0.1,0.6H306c0,0.2,0.1,0.4,0.1,0.6c0,0.2,0,0.4-0.1,0.6
		c0,0.2,0.1,0.4,0.1,0.6c0,0.2,0,0.4-0.1,0.6h1.8c0-0.2-0.1-0.4-0.1-0.6c0-0.2,0-0.4,0.1-0.6h0.6c0-0.2-0.1-0.4-0.1-0.6
		c0-0.2,0-0.4,0.1-0.6h-0.6c0-0.2-0.1-0.4-0.1-0.6c0-0.2,0-0.4,0.1-0.6h-1.2c0-0.2-0.1-0.4-0.1-0.6c0-0.2,0-0.4,0.1-0.6h1.8
		c0,0.2,0.1,0.4,0.1,0.6c0,0.2,0,0.4-0.1,0.6h0.6c0,0.2,0.1,0.4,0.1,0.6c0,0.2,0,0.4-0.1,0.6h0.6C309.6,167.8,309.7,168,309.7,168.3
		z M333,170.1c0,0.2,0.1,0.4,0.1,0.6c0,0.2,0,0.4-0.1,0.6h-3.6c0-0.2-0.1-0.4-0.1-0.6c0-0.2,0-0.4,0.1-0.6h1.2
		c0-0.2-0.1-0.4-0.1-0.6c0-0.2,0-0.4,0.1-0.6c0-0.2-0.1-0.4-0.1-0.6c0-0.2,0-0.4,0.1-0.6c0-0.2-0.1-0.4-0.1-0.6c0-0.2,0-0.4,0.1-0.6
		c0-0.2-0.1-0.4-0.1-0.6c0-0.2,0-0.4,0.1-0.6h-0.9c0-0.2-0.1-0.4-0.1-0.6c0-0.2,0-0.4,0.1-0.6h0.9c0-0.2-0.1-0.4-0.1-0.6
		c0-0.2,0-0.4,0.1-0.6h1.2c0,0.2,0.1,0.4,0.1,0.6c0,0.2,0,0.4-0.1,0.6c0,0.2,0.1,0.4,0.1,0.6c0,0.2,0,0.4-0.1,0.6
		c0,0.2,0.1,0.4,0.1,0.6c0,0.2,0,0.4-0.1,0.6c0,0.2,0.1,0.4,0.1,0.6c0,0.2,0,0.4-0.1,0.6c0,0.2,0.1,0.4,0.1,0.6c0,0.2,0,0.4-0.1,0.6
		c0,0.2,0.1,0.4,0.1,0.6c0,0.2,0,0.4-0.1,0.6H333z"/>
	<path d="M188.9,122.9c0,0.1,0,0.2,0,0.4c0,0.1,0,0.3,0,0.4c0,0.1,0,0.2,0,0.4c0,0.1,0,0.3,0,0.4h-0.4c0,0.1,0,0.2,0,0.4
		c0,0.1,0,0.3,0,0.4h-2.3c0-0.1,0-0.2,0-0.4c0-0.2,0-0.3,0-0.4h-0.4c0-0.1,0-0.2,0-0.4c0-0.2,0-0.3,0-0.4h0.8c0,0.1,0,0.2,0,0.4
		c0,0.1,0,0.3,0,0.4h1.5c0-0.1,0-0.2,0-0.4c0-0.2,0-0.3,0-0.4c0-0.1,0-0.2,0-0.4c0-0.2,0-0.3,0-0.4h-1.9c0-0.1,0-0.2,0-0.4
		c0-0.2,0-0.3,0-0.4h-0.4c0-0.1,0-0.2,0-0.4c0-0.2,0-0.3,0-0.4c0-0.1,0-0.2,0-0.4c0-0.2,0-0.3,0-0.4h0.4c0-0.1,0-0.2,0-0.4
		c0-0.2,0-0.3,0-0.4h2.3c0,0.1,0,0.2,0,0.4c0,0.1,0,0.3,0,0.4h0.4c0,0.1,0,0.2,0,0.4c0,0.1,0,0.3,0,0.4h-0.8c0-0.1,0-0.2,0-0.4
		c0-0.2,0-0.3,0-0.4h-1.5c0,0.1,0,0.2,0,0.4c0,0.1,0,0.3,0,0.4c0,0.1,0,0.2,0,0.4c0,0.1,0,0.3,0,0.4h1.9c0,0.1,0,0.2,0,0.4
		c0,0.1,0,0.3,0,0.4H188.9z M196.4,122.5c0,0.1,0,0.3,0,0.4c0,0.1,0,0.2,0,0.4c0,0.1,0,0.3,0,0.4h-2c0,0.1,0,0.2,0,0.4
		c0,0.1,0,0.3,0,0.4h1.6c0,0.1,0,0.2,0,0.4c0,0.1,0,0.3,0,0.4h-1.9c0-0.1,0-0.2,0-0.4c0-0.2,0-0.3,0-0.4h-0.5c0-0.1,0-0.2,0-0.4
		c0-0.2,0-0.3,0-0.4h-0.3c0-0.1,0-0.2,0-0.4c0-0.2,0-0.3,0-0.4h0.3c0-0.1,0-0.2,0-0.4c0-0.2,0-0.3,0-0.4h0.5c0-0.1,0-0.2,0-0.4
		c0-0.2,0-0.3,0-0.4h1.9c0,0.1,0,0.2,0,0.4c0,0.1,0,0.3,0,0.4h0.4C196.4,122.3,196.4,122.4,196.4,122.5z M195.6,122.9
		c0-0.1,0-0.2,0-0.4c0-0.2,0-0.3,0-0.4h-1.2c0,0.1,0,0.2,0,0.4c0,0.1,0,0.3,0,0.4H195.6z M203.5,124.4c0,0.1,0,0.2,0,0.4
		c0,0.1,0,0.3,0,0.4H202c0-0.1,0-0.2,0-0.4c0-0.2,0-0.3,0-0.4h-0.4c0-0.1,0-0.2,0-0.4c0-0.2,0-0.3,0-0.4c0-0.1,0-0.2,0-0.4
		c0-0.2,0-0.3,0-0.4c0-0.1,0-0.2,0-0.4c0-0.2,0-0.3,0-0.4h-0.8c0-0.1,0-0.2,0-0.4c0-0.2,0-0.3,0-0.4h0.8c0-0.1,0-0.2,0-0.4
		c0-0.2,0-0.3,0-0.4c0-0.1,0-0.2,0-0.4c0-0.2,0-0.3,0-0.4h0.8c0,0.1,0,0.2,0,0.4c0,0.1,0,0.3,0,0.4c0,0.1,0,0.2,0,0.4
		c0,0.1,0,0.3,0,0.4h1.1c0,0.1,0,0.2,0,0.4c0,0.1,0,0.3,0,0.4h-1.1c0,0.1,0,0.2,0,0.4c0,0.1,0,0.3,0,0.4c0,0.1,0,0.2,0,0.4
		c0,0.1,0,0.3,0,0.4c0,0.1,0,0.2,0,0.4c0,0.1,0,0.3,0,0.4H203.5z M211,124.4c0,0.1,0,0.2,0,0.4c0,0.1,0,0.3,0,0.4h-1.5
		c0-0.1,0-0.2,0-0.4c0-0.2,0-0.3,0-0.4h-0.4c0-0.1,0-0.2,0-0.4c0-0.2,0-0.3,0-0.4c0-0.1,0-0.2,0-0.4c0-0.2,0-0.3,0-0.4
		c0-0.1,0-0.2,0-0.4c0-0.2,0-0.3,0-0.4h-0.8c0-0.1,0-0.2,0-0.4c0-0.2,0-0.3,0-0.4h0.8c0-0.1,0-0.2,0-0.4c0-0.2,0-0.3,0-0.4
		c0-0.1,0-0.2,0-0.4c0-0.2,0-0.3,0-0.4h0.8c0,0.1,0,0.2,0,0.4c0,0.1,0,0.3,0,0.4c0,0.1,0,0.2,0,0.4c0,0.1,0,0.3,0,0.4h1.1
		c0,0.1,0,0.2,0,0.4c0,0.1,0,0.3,0,0.4h-1.1c0,0.1,0,0.2,0,0.4c0,0.1,0,0.3,0,0.4c0,0.1,0,0.2,0,0.4c0,0.1,0,0.3,0,0.4
		c0,0.1,0,0.2,0,0.4c0,0.1,0,0.3,0,0.4H211z M217,120.6c0-0.1,0-0.2,0-0.4c0-0.2,0-0.3,0-0.4h0.8c0,0.1,0,0.2,0,0.4
		c0,0.1,0,0.3,0,0.4H217z M218.5,124.4c0,0.1,0,0.2,0,0.4c0,0.1,0,0.3,0,0.4h-2.3c0-0.1,0-0.2,0-0.4c0-0.2,0-0.3,0-0.4h0.8
		c0-0.1,0-0.2,0-0.4c0-0.2,0-0.3,0-0.4c0-0.1,0-0.2,0-0.4c0-0.2,0-0.3,0-0.4c0-0.1,0-0.2,0-0.4c0-0.2,0-0.3,0-0.4h-0.6
		c0-0.1,0-0.2,0-0.4c0-0.2,0-0.3,0-0.4h1.3c0,0.1,0,0.2,0,0.4c0,0.1,0,0.3,0,0.4c0,0.1,0,0.2,0,0.4c0,0.1,0,0.3,0,0.4
		c0,0.1,0,0.2,0,0.4c0,0.1,0,0.3,0,0.4c0,0.1,0,0.2,0,0.4c0,0.1,0,0.3,0,0.4H218.5z M224,121.8c0,0.1,0,0.3,0,0.4h0.4
		c0,0.1,0,0.2,0,0.4c0,0.1,0,0.3,0,0.4h-0.3c0,0.1,0,0.2,0,0.4c0,0.1,0,0.3,0,0.4c0,0.1,0,0.2,0,0.4c0,0.1,0,0.3,0,0.4
		c0,0.1,0,0.2,0,0.4c0,0.1,0,0.3,0,0.4h-0.8c0-0.1,0-0.2,0-0.4c0-0.2,0-0.3,0-0.4c0-0.1,0-0.2,0-0.4c0-0.2,0-0.3,0-0.4
		c0-0.1,0-0.2,0-0.4c0-0.2,0-0.3,0-0.4c0-0.1,0-0.2,0-0.4c0-0.2,0-0.3,0-0.4c0-0.1,0-0.2,0-0.4c0-0.2,0-0.3,0-0.4h0.7
		C224,121.5,224,121.6,224,121.8z M226.4,122.9c0,0.1,0,0.2,0,0.4c0,0.1,0,0.3,0,0.4c0,0.1,0,0.2,0,0.4c0,0.1,0,0.3,0,0.4
		c0,0.1,0,0.2,0,0.4c0,0.1,0,0.3,0,0.4h-0.8c0-0.1,0-0.2,0-0.4c0-0.2,0-0.3,0-0.4c0-0.1,0-0.2,0-0.4c0-0.2,0-0.3,0-0.4
		c0-0.1,0-0.2,0-0.4c0-0.2,0-0.3,0-0.4c0-0.1,0-0.2,0-0.4c0-0.2,0-0.3,0-0.4h-1.2c0-0.1,0-0.2,0-0.4c0-0.2,0-0.3,0-0.4h1.5
		c0,0.1,0,0.2,0,0.4c0,0.1,0,0.3,0,0.4h0.5c0,0.1,0,0.2,0,0.4C226.4,122.7,226.4,122.8,226.4,122.9z M233.8,122.2c0,0.1,0,0.2,0,0.4
		c0,0.1,0,0.3,0,0.4c0,0.1,0,0.2,0,0.4c0,0.1,0,0.3,0,0.4c0,0.1,0,0.2,0,0.4c0,0.1,0,0.3,0,0.4c0,0.1,0,0.2,0,0.4c0,0.1,0,0.3,0,0.4
		h-0.4c0,0.1,0,0.2,0,0.4c0,0.1,0,0.3,0,0.4h-0.4c0,0.1,0,0.2,0,0.4c0,0.1,0,0.3,0,0.4h-1.5c0-0.1,0-0.2,0-0.4c0-0.2,0-0.3,0-0.4
		h1.1c0-0.1,0-0.2,0-0.4c0-0.2,0-0.3,0-0.4h0.4c0-0.1,0-0.2,0-0.4c0-0.2,0-0.3,0-0.4h-0.4c0-0.1,0-0.2,0-0.4c0-0.2,0-0.3,0-0.4h0.4
		c0-0.1,0-0.2,0-0.4c0-0.2,0-0.3,0-0.4c0-0.1,0-0.2,0-0.4c0-0.2,0-0.3,0-0.4h-1.2c0,0.1,0,0.2,0,0.4c0,0.1,0,0.3,0,0.4h-0.3
		c0,0.1,0,0.2,0,0.4c0,0.1,0,0.3,0,0.4h0.3c0,0.1,0,0.2,0,0.4c0,0.1,0,0.3,0,0.4h0.9c0,0.1,0,0.2,0,0.4c0,0.1,0,0.3,0,0.4h-1.1
		c0-0.1,0-0.2,0-0.4c0-0.2,0-0.3,0-0.4h-0.5c0-0.1,0-0.2,0-0.4c0-0.2,0-0.3,0-0.4h-0.3c0-0.1,0-0.2,0-0.4c0-0.2,0-0.3,0-0.4h0.3
		c0-0.1,0-0.2,0-0.4c0-0.2,0-0.3,0-0.4h0.5c0-0.1,0-0.2,0-0.4c0-0.2,0-0.3,0-0.4h2.3c0,0.1,0,0.2,0,0.4
		C233.9,121.9,233.9,122,233.8,122.2z M241.2,124.1c0,0.1,0,0.3,0,0.4h-0.4c0,0.1,0,0.2,0,0.4c0,0.1,0,0.3,0,0.4h-2.1
		c0-0.1,0-0.2,0-0.4c0-0.2,0-0.3,0-0.4h1.7c0-0.1,0-0.2,0-0.4c0-0.2,0-0.3,0-0.4h-1.5c0-0.1,0-0.2,0-0.4c0-0.2,0-0.3,0-0.4h-0.4
		c0-0.1,0-0.2,0-0.4c0-0.2,0-0.3,0-0.4h0.4c0-0.1,0-0.2,0-0.4c0-0.2,0-0.3,0-0.4h2.1c0,0.1,0,0.2,0,0.4c0,0.1,0,0.3,0,0.4h-1.7
		c0,0.1,0,0.2,0,0.4c0,0.1,0,0.3,0,0.4h1.5c0,0.1,0,0.2,0,0.4c0,0.1,0,0.3,0,0.4h0.4C241.2,123.8,241.2,123.9,241.2,124.1z
		 M256.3,120.6c0,0.1,0,0.2,0,0.4c0,0.1,0,0.3,0,0.4c0,0.1,0,0.2,0,0.4c0,0.1,0,0.3,0,0.4c0,0.1,0,0.2,0,0.4c0,0.1,0,0.3,0,0.4
		c0,0.1,0,0.2,0,0.4c0,0.1,0,0.3,0,0.4c0,0.1,0,0.2,0,0.4c0,0.1,0,0.3,0,0.4c0,0.1,0,0.2,0,0.4c0,0.1,0,0.3,0,0.4h-0.8
		c0-0.1,0-0.2,0-0.4c0-0.2,0-0.3,0-0.4c0-0.1,0-0.2,0-0.4c0-0.2,0-0.3,0-0.4c0-0.1,0-0.2,0-0.4c0-0.2,0-0.3,0-0.4c0-0.1,0-0.2,0-0.4
		c0-0.2,0-0.3,0-0.4c0-0.1,0-0.2,0-0.4c0-0.2,0-0.3,0-0.4h-0.3c0,0.1,0,0.2,0,0.4c0,0.1,0,0.3,0,0.4c0,0.1,0,0.2,0,0.4
		c0,0.1,0,0.3,0,0.4h-0.2c0,0.1,0,0.2,0,0.4c0,0.1,0,0.3,0,0.4c0,0.1,0,0.2,0,0.4c0,0.1,0,0.3,0,0.4h-0.6c0-0.1,0-0.2,0-0.4
		c0-0.2,0-0.3,0-0.4c0-0.1,0-0.2,0-0.4c0-0.2,0-0.3,0-0.4h-0.2c0-0.1,0-0.2,0-0.4c0-0.2,0-0.3,0-0.4c0-0.1,0-0.2,0-0.4
		c0-0.2,0-0.3,0-0.4H254c0,0.1,0,0.2,0,0.4c0,0.1,0,0.3,0,0.4c0,0.1,0,0.2,0,0.4c0,0.1,0,0.3,0,0.4c0,0.1,0,0.2,0,0.4
		c0,0.1,0,0.3,0,0.4c0,0.1,0,0.2,0,0.4c0,0.1,0,0.3,0,0.4c0,0.1,0,0.2,0,0.4c0,0.1,0,0.3,0,0.4h-0.8c0-0.1,0-0.2,0-0.4
		c0-0.2,0-0.3,0-0.4c0-0.1,0-0.2,0-0.4c0-0.2,0-0.3,0-0.4c0-0.1,0-0.2,0-0.4c0-0.2,0-0.3,0-0.4c0-0.1,0-0.2,0-0.4c0-0.2,0-0.3,0-0.4
		c0-0.1,0-0.2,0-0.4c0-0.2,0-0.3,0-0.4c0-0.1,0-0.2,0-0.4c0-0.2,0-0.3,0-0.4c0-0.1,0-0.2,0-0.4c0-0.2,0-0.3,0-0.4h0.9
		c0,0.1,0,0.2,0,0.4c0,0.1,0,0.3,0,0.4h0.3c0,0.1,0,0.2,0,0.4c0,0.1,0,0.3,0,0.4h0.1c0,0.1,0,0.2,0,0.4c0,0.1,0,0.3,0,0.4h0.3
		c0-0.1,0-0.2,0-0.4c0-0.2,0-0.3,0-0.4h0.1c0-0.1,0-0.2,0-0.4c0-0.2,0-0.3,0-0.4h0.3c0-0.1,0-0.2,0-0.4c0-0.2,0-0.3,0-0.4h0.9
		c0,0.1,0,0.2,0,0.4C256.4,120.4,256.3,120.5,256.3,120.6z M263.8,122.5c0,0.1,0,0.3,0,0.4c0,0.1,0,0.2,0,0.4c0,0.1,0,0.3,0,0.4h-2
		c0,0.1,0,0.2,0,0.4c0,0.1,0,0.3,0,0.4h1.6c0,0.1,0,0.2,0,0.4c0,0.1,0,0.3,0,0.4h-1.9c0-0.1,0-0.2,0-0.4c0-0.2,0-0.3,0-0.4h-0.5
		c0-0.1,0-0.2,0-0.4c0-0.2,0-0.3,0-0.4h-0.3c0-0.1,0-0.2,0-0.4c0-0.2,0-0.3,0-0.4h0.3c0-0.1,0-0.2,0-0.4c0-0.2,0-0.3,0-0.4h0.5
		c0-0.1,0-0.2,0-0.4c0-0.2,0-0.3,0-0.4h1.9c0,0.1,0,0.2,0,0.4c0,0.1,0,0.3,0,0.4h0.4C263.8,122.3,263.8,122.4,263.8,122.5z
		 M263,122.9c0-0.1,0-0.2,0-0.4c0-0.2,0-0.3,0-0.4h-1.2c0,0.1,0,0.2,0,0.4c0,0.1,0,0.3,0,0.4H263z M269,121.8c0,0.1,0,0.3,0,0.4h0.4
		c0,0.1,0,0.2,0,0.4c0,0.1,0,0.3,0,0.4H269c0,0.1,0,0.2,0,0.4c0,0.1,0,0.3,0,0.4c0,0.1,0,0.2,0,0.4c0,0.1,0,0.3,0,0.4
		c0,0.1,0,0.2,0,0.4c0,0.1,0,0.3,0,0.4h-0.8c0-0.1,0-0.2,0-0.4c0-0.2,0-0.3,0-0.4c0-0.1,0-0.2,0-0.4c0-0.2,0-0.3,0-0.4
		c0-0.1,0-0.2,0-0.4c0-0.2,0-0.3,0-0.4c0-0.1,0-0.2,0-0.4c0-0.2,0-0.3,0-0.4c0-0.1,0-0.2,0-0.4c0-0.2,0-0.3,0-0.4h0.7
		C269,121.5,269,121.6,269,121.8z M271.3,122.9c0,0.1,0,0.2,0,0.4c0,0.1,0,0.3,0,0.4c0,0.1,0,0.2,0,0.4c0,0.1,0,0.3,0,0.4
		c0,0.1,0,0.2,0,0.4c0,0.1,0,0.3,0,0.4h-0.8c0-0.1,0-0.2,0-0.4c0-0.2,0-0.3,0-0.4c0-0.1,0-0.2,0-0.4c0-0.2,0-0.3,0-0.4
		c0-0.1,0-0.2,0-0.4c0-0.2,0-0.3,0-0.4c0-0.1,0-0.2,0-0.4c0-0.2,0-0.3,0-0.4h-1.2c0-0.1,0-0.2,0-0.4c0-0.2,0-0.3,0-0.4h1.5
		c0,0.1,0,0.2,0,0.4c0,0.1,0,0.3,0,0.4h0.5c0,0.1,0,0.2,0,0.4C271.3,122.7,271.3,122.8,271.3,122.9z M276.8,124.1c0,0.1,0,0.3,0,0.4
		h0.9c0,0.1,0,0.2,0,0.4c0,0.1,0,0.3,0,0.4h-1.5c0-0.1,0-0.2,0-0.4c0-0.2,0-0.3,0-0.4h-0.5c0-0.1,0-0.2,0-0.4c0-0.2,0-0.3,0-0.4
		c0-0.1,0-0.2,0-0.4c0-0.2,0-0.3,0-0.4c0-0.1,0-0.2,0-0.4c0-0.2,0-0.3,0-0.4c0-0.1,0-0.2,0-0.4c0-0.2,0-0.3,0-0.4h0.8
		c0,0.1,0,0.2,0,0.4c0,0.1,0,0.3,0,0.4c0,0.1,0,0.2,0,0.4c0,0.1,0,0.3,0,0.4c0,0.1,0,0.2,0,0.4c0,0.1,0,0.3,0,0.4h0.3
		C276.8,123.8,276.8,123.9,276.8,124.1z M278.8,122.2c0,0.1,0,0.2,0,0.4c0,0.1,0,0.3,0,0.4c0,0.1,0,0.2,0,0.4c0,0.1,0,0.3,0,0.4
		c0,0.1,0,0.2,0,0.4c0,0.1,0,0.3,0,0.4c0,0.1,0,0.2,0,0.4c0,0.1,0,0.3,0,0.4H278c0-0.1,0-0.2,0-0.4c0-0.2,0-0.3,0-0.4h-0.3
		c0-0.1,0-0.2,0-0.4c0-0.2,0-0.3,0-0.4h0.3c0-0.1,0-0.2,0-0.4c0-0.2,0-0.3,0-0.4c0-0.1,0-0.2,0-0.4c0-0.2,0-0.3,0-0.4
		c0-0.1,0-0.2,0-0.4c0-0.2,0-0.3,0-0.4h0.8c0,0.1,0,0.2,0,0.4C278.8,121.9,278.8,122,278.8,122.2z"/>
	<path class="st5" d="M199,139.3c0,0.1,0,0.3,0,0.4c0,0.1,0,0.2,0,0.4c0,0.1,0,0.3,0,0.4h-0.4c0,0.1,0,0.2,0,0.4c0,0.1,0,0.3,0,0.4
		h-1.9c0,0.1,0,0.2,0,0.4c0,0.1,0,0.3,0,0.4c0,0.1,0,0.2,0,0.4c0,0.1,0,0.3,0,0.4c0,0.1,0,0.2,0,0.4c0,0.1,0,0.3,0,0.4h-0.8
		c0-0.1,0-0.2,0-0.4c0-0.2,0-0.3,0-0.4c0-0.1,0-0.2,0-0.4c0-0.2,0-0.3,0-0.4c0-0.1,0-0.2,0-0.4c0-0.2,0-0.3,0-0.4c0-0.1,0-0.2,0-0.4
		c0-0.2,0-0.3,0-0.4c0-0.1,0-0.2,0-0.4c0-0.2,0-0.3,0-0.4c0-0.1,0-0.2,0-0.4c0-0.2,0-0.3,0-0.4c0-0.1,0-0.2,0-0.4c0-0.2,0-0.3,0-0.4
		h2.7c0,0.1,0,0.2,0,0.4c0,0.1,0,0.3,0,0.4h0.4C199,139.1,199,139.2,199,139.3z M198.2,140.5c0-0.1,0-0.2,0-0.4c0-0.2,0-0.3,0-0.4
		c0-0.1,0-0.2,0-0.4c0-0.2,0-0.3,0-0.4h-1.5c0,0.1,0,0.2,0,0.4c0,0.1,0,0.3,0,0.4c0,0.1,0,0.2,0,0.4c0,0.1,0,0.3,0,0.4H198.2z
		 M206.4,140.5c0,0.1,0,0.2,0,0.4c0,0.1,0,0.3,0,0.4h-0.8c0-0.1,0-0.2,0-0.4c0-0.2,0-0.3,0-0.4H205c0,0.1,0,0.2,0,0.4
		c0,0.1,0,0.3,0,0.4h-0.3c0,0.1,0,0.2,0,0.4c0,0.1,0,0.3,0,0.4c0,0.1,0,0.2,0,0.4c0,0.1,0,0.3,0,0.4h0.6c0,0.1,0,0.2,0,0.4
		c0,0.1,0,0.3,0,0.4h-1.9c0-0.1,0-0.2,0-0.4c0-0.2,0-0.3,0-0.4h0.6c0-0.1,0-0.2,0-0.4c0-0.2,0-0.3,0-0.4c0-0.1,0-0.2,0-0.4
		c0-0.2,0-0.3,0-0.4c0-0.1,0-0.2,0-0.4c0-0.2,0-0.3,0-0.4h-0.6c0-0.1,0-0.2,0-0.4c0-0.2,0-0.3,0-0.4h0.9c0,0.1,0,0.2,0,0.4
		c0,0.1,0,0.3,0,0.4h0.4c0-0.1,0-0.2,0-0.4c0-0.2,0-0.3,0-0.4h1.4c0,0.1,0,0.2,0,0.4c0,0.1,0,0.3,0,0.4H206.4z M213.9,140.9
		c0,0.1,0,0.3,0,0.4c0,0.1,0,0.2,0,0.4c0,0.1,0,0.3,0,0.4h-2c0,0.1,0,0.2,0,0.4c0,0.1,0,0.3,0,0.4h1.6c0,0.1,0,0.2,0,0.4
		c0,0.1,0,0.3,0,0.4h-1.9c0-0.1,0-0.2,0-0.4c0-0.2,0-0.3,0-0.4h-0.5c0-0.1,0-0.2,0-0.4c0-0.2,0-0.3,0-0.4h-0.3c0-0.1,0-0.2,0-0.4
		c0-0.2,0-0.3,0-0.4h0.3c0-0.1,0-0.2,0-0.4c0-0.2,0-0.3,0-0.4h0.5c0-0.1,0-0.2,0-0.4c0-0.2,0-0.3,0-0.4h1.9c0,0.1,0,0.2,0,0.4
		c0,0.1,0,0.3,0,0.4h0.4C213.9,140.6,213.9,140.7,213.9,140.9z M213.1,141.2c0-0.1,0-0.2,0-0.4c0-0.2,0-0.3,0-0.4h-1.2
		c0,0.1,0,0.2,0,0.4c0,0.1,0,0.3,0,0.4H213.1z M221.2,142.4c0,0.1,0,0.3,0,0.4h-0.4c0,0.1,0,0.2,0,0.4c0,0.1,0,0.3,0,0.4h-2.1
		c0-0.1,0-0.2,0-0.4c0-0.2,0-0.3,0-0.4h1.7c0-0.1,0-0.2,0-0.4c0-0.2,0-0.3,0-0.4h-1.5c0-0.1,0-0.2,0-0.4c0-0.2,0-0.3,0-0.4h-0.4
		c0-0.1,0-0.2,0-0.4c0-0.2,0-0.3,0-0.4h0.4c0-0.1,0-0.2,0-0.4c0-0.2,0-0.3,0-0.4h2.1c0,0.1,0,0.2,0,0.4c0,0.1,0,0.3,0,0.4h-1.7
		c0,0.1,0,0.2,0,0.4c0,0.1,0,0.3,0,0.4h1.5c0,0.1,0,0.2,0,0.4c0,0.1,0,0.3,0,0.4h0.4C221.2,142.1,221.2,142.2,221.2,142.4z
		 M228.7,142.4c0,0.1,0,0.3,0,0.4h-0.4c0,0.1,0,0.2,0,0.4c0,0.1,0,0.3,0,0.4h-2.1c0-0.1,0-0.2,0-0.4c0-0.2,0-0.3,0-0.4h1.7
		c0-0.1,0-0.2,0-0.4c0-0.2,0-0.3,0-0.4h-1.5c0-0.1,0-0.2,0-0.4c0-0.2,0-0.3,0-0.4H226c0-0.1,0-0.2,0-0.4c0-0.2,0-0.3,0-0.4h0.4
		c0-0.1,0-0.2,0-0.4c0-0.2,0-0.3,0-0.4h2.1c0,0.1,0,0.2,0,0.4c0,0.1,0,0.3,0,0.4h-1.7c0,0.1,0,0.2,0,0.4c0,0.1,0,0.3,0,0.4h1.5
		c0,0.1,0,0.2,0,0.4c0,0.1,0,0.3,0,0.4h0.4C228.7,142.1,228.7,142.2,228.7,142.4z M243.5,142.8c0,0.1,0,0.2,0,0.4c0,0.1,0,0.3,0,0.4
		H242c0-0.1,0-0.2,0-0.4c0-0.2,0-0.3,0-0.4h-0.4c0-0.1,0-0.2,0-0.4c0-0.2,0-0.3,0-0.4c0-0.1,0-0.2,0-0.4c0-0.2,0-0.3,0-0.4
		c0-0.1,0-0.2,0-0.4c0-0.2,0-0.3,0-0.4h-0.8c0-0.1,0-0.2,0-0.4c0-0.2,0-0.3,0-0.4h0.8c0-0.1,0-0.2,0-0.4c0-0.2,0-0.3,0-0.4
		c0-0.1,0-0.2,0-0.4c0-0.2,0-0.3,0-0.4h0.8c0,0.1,0,0.2,0,0.4c0,0.1,0,0.3,0,0.4c0,0.1,0,0.2,0,0.4c0,0.1,0,0.3,0,0.4h1.1
		c0,0.1,0,0.2,0,0.4c0,0.1,0,0.3,0,0.4h-1.1c0,0.1,0,0.2,0,0.4c0,0.1,0,0.3,0,0.4c0,0.1,0,0.2,0,0.4c0,0.1,0,0.3,0,0.4
		c0,0.1,0,0.2,0,0.4c0,0.1,0,0.3,0,0.4H243.5z M251.4,141.6c0,0.1,0,0.3,0,0.4h-0.3c0,0.1,0,0.2,0,0.4c0,0.1,0,0.3,0,0.4h-0.5
		c0,0.1,0,0.2,0,0.4c0,0.1,0,0.3,0,0.4h-1.5c0-0.1,0-0.2,0-0.4c0-0.2,0-0.3,0-0.4h-0.5c0-0.1,0-0.2,0-0.4c0-0.2,0-0.3,0-0.4h-0.3
		c0-0.1,0-0.2,0-0.4c0-0.2,0-0.3,0-0.4h0.3c0-0.1,0-0.2,0-0.4c0-0.2,0-0.3,0-0.4h0.5c0-0.1,0-0.2,0-0.4c0-0.2,0-0.3,0-0.4h1.5
		c0,0.1,0,0.2,0,0.4c0,0.1,0,0.3,0,0.4h0.5c0,0.1,0,0.2,0,0.4c0,0.1,0,0.3,0,0.4h0.3C251.4,141.3,251.4,141.5,251.4,141.6z
		 M250.6,142c0-0.1,0-0.2,0-0.4c0-0.2,0-0.3,0-0.4h-0.3c0-0.1,0-0.2,0-0.4c0-0.2,0-0.3,0-0.4h-0.9c0,0.1,0,0.2,0,0.4
		c0,0.1,0,0.3,0,0.4h-0.3c0,0.1,0,0.2,0,0.4c0,0.1,0,0.3,0,0.4h0.3c0,0.1,0,0.2,0,0.4c0,0.1,0,0.3,0,0.4h0.9c0-0.1,0-0.2,0-0.4
		c0-0.2,0-0.3,0-0.4H250.6z M266.2,142.4c0,0.1,0,0.3,0,0.4h-0.4c0,0.1,0,0.2,0,0.4c0,0.1,0,0.3,0,0.4h-2.1c0-0.1,0-0.2,0-0.4
		c0-0.2,0-0.3,0-0.4h1.7c0-0.1,0-0.2,0-0.4c0-0.2,0-0.3,0-0.4h-1.5c0-0.1,0-0.2,0-0.4c0-0.2,0-0.3,0-0.4h-0.4c0-0.1,0-0.2,0-0.4
		c0-0.2,0-0.3,0-0.4h0.4c0-0.1,0-0.2,0-0.4c0-0.2,0-0.3,0-0.4h2.1c0,0.1,0,0.2,0,0.4c0,0.1,0,0.3,0,0.4h-1.7c0,0.1,0,0.2,0,0.4
		c0,0.1,0,0.3,0,0.4h1.5c0,0.1,0,0.2,0,0.4c0,0.1,0,0.3,0,0.4h0.4C266.2,142.1,266.2,142.2,266.2,142.4z M273.9,140.9
		c0,0.1,0,0.3,0,0.4c0,0.1,0,0.2,0,0.4c0,0.1,0,0.3,0,0.4h-2c0,0.1,0,0.2,0,0.4c0,0.1,0,0.3,0,0.4h1.6c0,0.1,0,0.2,0,0.4
		c0,0.1,0,0.3,0,0.4h-1.9c0-0.1,0-0.2,0-0.4c0-0.2,0-0.3,0-0.4h-0.5c0-0.1,0-0.2,0-0.4c0-0.2,0-0.3,0-0.4h-0.3c0-0.1,0-0.2,0-0.4
		c0-0.2,0-0.3,0-0.4h0.3c0-0.1,0-0.2,0-0.4c0-0.2,0-0.3,0-0.4h0.5c0-0.1,0-0.2,0-0.4c0-0.2,0-0.3,0-0.4h1.9c0,0.1,0,0.2,0,0.4
		c0,0.1,0,0.3,0,0.4h0.4C273.9,140.6,273.9,140.7,273.9,140.9z M273.1,141.2c0-0.1,0-0.2,0-0.4c0-0.2,0-0.3,0-0.4h-1.2
		c0,0.1,0,0.2,0,0.4c0,0.1,0,0.3,0,0.4H273.1z M280.9,142.8c0,0.1,0,0.2,0,0.4c0,0.1,0,0.3,0,0.4h-2.3c0-0.1,0-0.2,0-0.4
		c0-0.2,0-0.3,0-0.4h0.8c0-0.1,0-0.2,0-0.4c0-0.2,0-0.3,0-0.4c0-0.1,0-0.2,0-0.4c0-0.2,0-0.3,0-0.4c0-0.1,0-0.2,0-0.4
		c0-0.2,0-0.3,0-0.4c0-0.1,0-0.2,0-0.4c0-0.2,0-0.3,0-0.4c0-0.1,0-0.2,0-0.4c0-0.2,0-0.3,0-0.4h-0.6c0-0.1,0-0.2,0-0.4
		c0-0.2,0-0.3,0-0.4h1.3c0,0.1,0,0.2,0,0.4c0,0.1,0,0.3,0,0.4c0,0.1,0,0.2,0,0.4c0,0.1,0,0.3,0,0.4c0,0.1,0,0.2,0,0.4
		c0,0.1,0,0.3,0,0.4c0,0.1,0,0.2,0,0.4c0,0.1,0,0.3,0,0.4c0,0.1,0,0.2,0,0.4c0,0.1,0,0.3,0,0.4c0,0.1,0,0.2,0,0.4c0,0.1,0,0.3,0,0.4
		H280.9z M288.8,140.9c0,0.1,0,0.3,0,0.4c0,0.1,0,0.2,0,0.4c0,0.1,0,0.3,0,0.4h-2c0,0.1,0,0.2,0,0.4c0,0.1,0,0.3,0,0.4h1.6
		c0,0.1,0,0.2,0,0.4c0,0.1,0,0.3,0,0.4h-1.9c0-0.1,0-0.2,0-0.4c0-0.2,0-0.3,0-0.4h-0.5c0-0.1,0-0.2,0-0.4c0-0.2,0-0.3,0-0.4h-0.3
		c0-0.1,0-0.2,0-0.4c0-0.2,0-0.3,0-0.4h0.3c0-0.1,0-0.2,0-0.4c0-0.2,0-0.3,0-0.4h0.5c0-0.1,0-0.2,0-0.4c0-0.2,0-0.3,0-0.4h1.9
		c0,0.1,0,0.2,0,0.4c0,0.1,0,0.3,0,0.4h0.4C288.8,140.6,288.8,140.7,288.8,140.9z M288,141.2c0-0.1,0-0.2,0-0.4c0-0.2,0-0.3,0-0.4
		h-1.2c0,0.1,0,0.2,0,0.4c0,0.1,0,0.3,0,0.4H288z M296.3,142c0,0.1,0,0.2,0,0.4c0,0.1,0,0.3,0,0.4h-0.4c0,0.1,0,0.2,0,0.4
		c0,0.1,0,0.3,0,0.4H294c0-0.1,0-0.2,0-0.4c0-0.2,0-0.3,0-0.4h-0.4c0-0.1,0-0.2,0-0.4c0-0.2,0-0.3,0-0.4h-0.4c0-0.1,0-0.2,0-0.4
		c0-0.2,0-0.3,0-0.4h0.4c0-0.1,0-0.2,0-0.4c0-0.2,0-0.3,0-0.4h0.4c0-0.1,0-0.2,0-0.4c0-0.2,0-0.3,0-0.4h1.9c0,0.1,0,0.2,0,0.4
		c0,0.1,0,0.3,0,0.4h0.4c0,0.1,0,0.2,0,0.4c0,0.1,0,0.3,0,0.4h-0.8c0-0.1,0-0.2,0-0.4c0-0.2,0-0.3,0-0.4h-1.1c0,0.1,0,0.2,0,0.4
		c0,0.1,0,0.3,0,0.4H294c0,0.1,0,0.2,0,0.4c0,0.1,0,0.3,0,0.4h0.4c0,0.1,0,0.2,0,0.4c0,0.1,0,0.3,0,0.4h1.1c0-0.1,0-0.2,0-0.4
		c0-0.2,0-0.3,0-0.4H296.3z M303.4,142.8c0,0.1,0,0.2,0,0.4c0,0.1,0,0.3,0,0.4h-1.5c0-0.1,0-0.2,0-0.4c0-0.2,0-0.3,0-0.4h-0.4
		c0-0.1,0-0.2,0-0.4c0-0.2,0-0.3,0-0.4c0-0.1,0-0.2,0-0.4c0-0.2,0-0.3,0-0.4c0-0.1,0-0.2,0-0.4c0-0.2,0-0.3,0-0.4h-0.8
		c0-0.1,0-0.2,0-0.4c0-0.2,0-0.3,0-0.4h0.8c0-0.1,0-0.2,0-0.4c0-0.2,0-0.3,0-0.4c0-0.1,0-0.2,0-0.4c0-0.2,0-0.3,0-0.4h0.8
		c0,0.1,0,0.2,0,0.4c0,0.1,0,0.3,0,0.4c0,0.1,0,0.2,0,0.4c0,0.1,0,0.3,0,0.4h1.1c0,0.1,0,0.2,0,0.4c0,0.1,0,0.3,0,0.4h-1.1
		c0,0.1,0,0.2,0,0.4c0,0.1,0,0.3,0,0.4c0,0.1,0,0.2,0,0.4c0,0.1,0,0.3,0,0.4c0,0.1,0,0.2,0,0.4c0,0.1,0,0.3,0,0.4H303.4z
		 M318.8,142.8c0,0.1,0,0.2,0,0.4c0,0.1,0,0.3,0,0.4H318c0-0.1,0-0.2,0-0.4c0-0.2,0-0.3,0-0.4h-0.4c0-0.1,0-0.2,0-0.4
		c0-0.2,0-0.3,0-0.4h-1.1c0,0.1,0,0.2,0,0.4c0,0.1,0,0.3,0,0.4h1.1c0,0.1,0,0.2,0,0.4c0,0.1,0,0.3,0,0.4h-1.5c0-0.1,0-0.2,0-0.4
		c0-0.2,0-0.3,0-0.4h-0.4c0-0.1,0-0.2,0-0.4c0-0.2,0-0.3,0-0.4h0.4c0-0.1,0-0.2,0-0.4c0-0.2,0-0.3,0-0.4h1.5c0-0.1,0-0.2,0-0.4
		c0-0.2,0-0.3,0-0.4h-1.3c0-0.1,0-0.2,0-0.4c0-0.2,0-0.3,0-0.4h1.7c0,0.1,0,0.2,0,0.4c0,0.1,0,0.3,0,0.4h0.4c0,0.1,0,0.2,0,0.4
		c0,0.1,0,0.3,0,0.4c0,0.1,0,0.2,0,0.4c0,0.1,0,0.3,0,0.4c0,0.1,0,0.2,0,0.4c0,0.1,0,0.3,0,0.4H318.8z M333.6,142.4
		c0,0.1,0,0.3,0,0.4h-0.4c0,0.1,0,0.2,0,0.4c0,0.1,0,0.3,0,0.4h-2.1c0-0.1,0-0.2,0-0.4c0-0.2,0-0.3,0-0.4h1.7c0-0.1,0-0.2,0-0.4
		c0-0.2,0-0.3,0-0.4h-1.5c0-0.1,0-0.2,0-0.4c0-0.2,0-0.3,0-0.4h-0.4c0-0.1,0-0.2,0-0.4c0-0.2,0-0.3,0-0.4h0.4c0-0.1,0-0.2,0-0.4
		c0-0.2,0-0.3,0-0.4h2.1c0,0.1,0,0.2,0,0.4c0,0.1,0,0.3,0,0.4h-1.7c0,0.1,0,0.2,0,0.4c0,0.1,0,0.3,0,0.4h1.5c0,0.1,0,0.2,0,0.4
		c0,0.1,0,0.3,0,0.4h0.4C333.6,142.1,333.6,142.2,333.6,142.4z M341.3,140.9c0,0.1,0,0.3,0,0.4c0,0.1,0,0.2,0,0.4c0,0.1,0,0.3,0,0.4
		h-2c0,0.1,0,0.2,0,0.4c0,0.1,0,0.3,0,0.4h1.6c0,0.1,0,0.2,0,0.4c0,0.1,0,0.3,0,0.4H339c0-0.1,0-0.2,0-0.4c0-0.2,0-0.3,0-0.4h-0.5
		c0-0.1,0-0.2,0-0.4c0-0.2,0-0.3,0-0.4h-0.3c0-0.1,0-0.2,0-0.4c0-0.2,0-0.3,0-0.4h0.3c0-0.1,0-0.2,0-0.4c0-0.2,0-0.3,0-0.4h0.5
		c0-0.1,0-0.2,0-0.4c0-0.2,0-0.3,0-0.4h1.9c0,0.1,0,0.2,0,0.4c0,0.1,0,0.3,0,0.4h0.4C341.3,140.6,341.3,140.7,341.3,140.9z
		 M340.5,141.2c0-0.1,0-0.2,0-0.4c0-0.2,0-0.3,0-0.4h-1.2c0,0.1,0,0.2,0,0.4c0,0.1,0,0.3,0,0.4H340.5z M348.7,142c0,0.1,0,0.2,0,0.4
		c0,0.1,0,0.3,0,0.4h-0.4c0,0.1,0,0.2,0,0.4c0,0.1,0,0.3,0,0.4h-1.9c0-0.1,0-0.2,0-0.4c0-0.2,0-0.3,0-0.4h-0.4c0-0.1,0-0.2,0-0.4
		c0-0.2,0-0.3,0-0.4h-0.4c0-0.1,0-0.2,0-0.4c0-0.2,0-0.3,0-0.4h0.4c0-0.1,0-0.2,0-0.4c0-0.2,0-0.3,0-0.4h0.4c0-0.1,0-0.2,0-0.4
		c0-0.2,0-0.3,0-0.4h1.9c0,0.1,0,0.2,0,0.4c0,0.1,0,0.3,0,0.4h0.4c0,0.1,0,0.2,0,0.4c0,0.1,0,0.3,0,0.4H348c0-0.1,0-0.2,0-0.4
		c0-0.2,0-0.3,0-0.4h-1.1c0,0.1,0,0.2,0,0.4c0,0.1,0,0.3,0,0.4h-0.4c0,0.1,0,0.2,0,0.4c0,0.1,0,0.3,0,0.4h0.4c0,0.1,0,0.2,0,0.4
		c0,0.1,0,0.3,0,0.4h1.1c0-0.1,0-0.2,0-0.4c0-0.2,0-0.3,0-0.4H348.7z M355.8,142.8c0,0.1,0,0.2,0,0.4c0,0.1,0,0.3,0,0.4h-1.5
		c0-0.1,0-0.2,0-0.4c0-0.2,0-0.3,0-0.4h-0.4c0-0.1,0-0.2,0-0.4c0-0.2,0-0.3,0-0.4c0-0.1,0-0.2,0-0.4c0-0.2,0-0.3,0-0.4
		c0-0.1,0-0.2,0-0.4c0-0.2,0-0.3,0-0.4h-0.8c0-0.1,0-0.2,0-0.4c0-0.2,0-0.3,0-0.4h0.8c0-0.1,0-0.2,0-0.4c0-0.2,0-0.3,0-0.4
		c0-0.1,0-0.2,0-0.4c0-0.2,0-0.3,0-0.4h0.8c0,0.1,0,0.2,0,0.4c0,0.1,0,0.3,0,0.4c0,0.1,0,0.2,0,0.4c0,0.1,0,0.3,0,0.4h1.1
		c0,0.1,0,0.2,0,0.4c0,0.1,0,0.3,0,0.4h-1.1c0,0.1,0,0.2,0,0.4c0,0.1,0,0.3,0,0.4c0,0.1,0,0.2,0,0.4c0,0.1,0,0.3,0,0.4
		c0,0.1,0,0.2,0,0.4c0,0.1,0,0.3,0,0.4H355.8z M361.8,139c0-0.1,0-0.2,0-0.4c0-0.2,0-0.3,0-0.4h0.8c0,0.1,0,0.2,0,0.4
		c0,0.1,0,0.3,0,0.4H361.8z M363.3,142.8c0,0.1,0,0.2,0,0.4c0,0.1,0,0.3,0,0.4h-2.3c0-0.1,0-0.2,0-0.4c0-0.2,0-0.3,0-0.4h0.8
		c0-0.1,0-0.2,0-0.4c0-0.2,0-0.3,0-0.4c0-0.1,0-0.2,0-0.4c0-0.2,0-0.3,0-0.4c0-0.1,0-0.2,0-0.4c0-0.2,0-0.3,0-0.4h-0.6
		c0-0.1,0-0.2,0-0.4c0-0.2,0-0.3,0-0.4h1.3c0,0.1,0,0.2,0,0.4c0,0.1,0,0.3,0,0.4c0,0.1,0,0.2,0,0.4c0,0.1,0,0.3,0,0.4
		c0,0.1,0,0.2,0,0.4c0,0.1,0,0.3,0,0.4c0,0.1,0,0.2,0,0.4c0,0.1,0,0.3,0,0.4H363.3z M371.2,141.6c0,0.1,0,0.3,0,0.4h-0.3
		c0,0.1,0,0.2,0,0.4c0,0.1,0,0.3,0,0.4h-0.5c0,0.1,0,0.2,0,0.4c0,0.1,0,0.3,0,0.4h-1.5c0-0.1,0-0.2,0-0.4c0-0.2,0-0.3,0-0.4h-0.5
		c0-0.1,0-0.2,0-0.4c0-0.2,0-0.3,0-0.4h-0.3c0-0.1,0-0.2,0-0.4c0-0.2,0-0.3,0-0.4h0.3c0-0.1,0-0.2,0-0.4c0-0.2,0-0.3,0-0.4h0.5
		c0-0.1,0-0.2,0-0.4c0-0.2,0-0.3,0-0.4h1.5c0,0.1,0,0.2,0,0.4c0,0.1,0,0.3,0,0.4h0.5c0,0.1,0,0.2,0,0.4c0,0.1,0,0.3,0,0.4h0.3
		C371.2,141.3,371.2,141.5,371.2,141.6z M370.4,142c0-0.1,0-0.2,0-0.4c0-0.2,0-0.3,0-0.4h-0.3c0-0.1,0-0.2,0-0.4c0-0.2,0-0.3,0-0.4
		h-0.9c0,0.1,0,0.2,0,0.4c0,0.1,0,0.3,0,0.4h-0.3c0,0.1,0,0.2,0,0.4c0,0.1,0,0.3,0,0.4h0.3c0,0.1,0,0.2,0,0.4c0,0.1,0,0.3,0,0.4h0.9
		c0-0.1,0-0.2,0-0.4c0-0.2,0-0.3,0-0.4H370.4z M376.4,140.1c0,0.1,0,0.3,0,0.4h0.4c0,0.1,0,0.2,0,0.4c0,0.1,0,0.3,0,0.4h-0.3
		c0,0.1,0,0.2,0,0.4c0,0.1,0,0.3,0,0.4c0,0.1,0,0.2,0,0.4c0,0.1,0,0.3,0,0.4c0,0.1,0,0.2,0,0.4c0,0.1,0,0.3,0,0.4h-0.8
		c0-0.1,0-0.2,0-0.4c0-0.2,0-0.3,0-0.4c0-0.1,0-0.2,0-0.4c0-0.2,0-0.3,0-0.4c0-0.1,0-0.2,0-0.4c0-0.2,0-0.3,0-0.4c0-0.1,0-0.2,0-0.4
		c0-0.2,0-0.3,0-0.4c0-0.1,0-0.2,0-0.4c0-0.2,0-0.3,0-0.4h0.7C376.3,139.8,376.4,139.9,376.4,140.1z M378.7,141.2c0,0.1,0,0.2,0,0.4
		c0,0.1,0,0.3,0,0.4c0,0.1,0,0.2,0,0.4c0,0.1,0,0.3,0,0.4c0,0.1,0,0.2,0,0.4c0,0.1,0,0.3,0,0.4h-0.8c0-0.1,0-0.2,0-0.4
		c0-0.2,0-0.3,0-0.4c0-0.1,0-0.2,0-0.4c0-0.2,0-0.3,0-0.4c0-0.1,0-0.2,0-0.4c0-0.2,0-0.3,0-0.4c0-0.1,0-0.2,0-0.4c0-0.2,0-0.3,0-0.4
		h-1.2c0-0.1,0-0.2,0-0.4c0-0.2,0-0.3,0-0.4h1.5c0,0.1,0,0.2,0,0.4c0,0.1,0,0.3,0,0.4h0.5c0,0.1,0,0.2,0,0.4
		C378.7,141,378.7,141.1,378.7,141.2z"/>
	<rect x="196" y="233.2" class="st6" width="212.3" height="29.7"/>
	<path d="M280,224.5c0,0.1,0,0.3,0,0.4h-1.1c0,0.1,0,0.2,0,0.4c0,0.1,0,0.3,0,0.4c0,0.1,0,0.2,0,0.4c0,0.1,0,0.3,0,0.4
		c0,0.1,0,0.2,0,0.4c0,0.1,0,0.3,0,0.4c0,0.1,0,0.2,0,0.4c0,0.1,0,0.3,0,0.4c0,0.1,0,0.2,0,0.4c0,0.1,0,0.3,0,0.4c0,0.1,0,0.2,0,0.4
		c0,0.1,0,0.3,0,0.4H278c0-0.1,0-0.2,0-0.4c0-0.2,0-0.3,0-0.4c0-0.1,0-0.2,0-0.4c0-0.2,0-0.3,0-0.4c0-0.1,0-0.2,0-0.4
		c0-0.2,0-0.3,0-0.4c0-0.1,0-0.2,0-0.4c0-0.2,0-0.3,0-0.4c0-0.1,0-0.2,0-0.4c0-0.2,0-0.3,0-0.4c0-0.1,0-0.2,0-0.4c0-0.2,0-0.3,0-0.4
		h-1.1c0-0.1,0-0.2,0-0.4c0-0.2,0-0.3,0-0.4h3C279.9,224.2,280,224.4,280,224.5z M287.4,226.8c0,0.1,0,0.3,0,0.4c0,0.1,0,0.2,0,0.4
		c0,0.1,0,0.3,0,0.4h-2c0,0.1,0,0.2,0,0.4c0,0.1,0,0.3,0,0.4h1.6c0,0.1,0,0.2,0,0.4c0,0.1,0,0.3,0,0.4h-1.9c0-0.1,0-0.2,0-0.4
		c0-0.2,0-0.3,0-0.4h-0.5c0-0.1,0-0.2,0-0.4c0-0.2,0-0.3,0-0.4h-0.3c0-0.1,0-0.2,0-0.4c0-0.2,0-0.3,0-0.4h0.3c0-0.1,0-0.2,0-0.4
		c0-0.2,0-0.3,0-0.4h0.5c0-0.1,0-0.2,0-0.4c0-0.2,0-0.3,0-0.4h1.9c0,0.1,0,0.2,0,0.4c0,0.1,0,0.3,0,0.4h0.4
		C287.4,226.5,287.4,226.6,287.4,226.8z M286.7,227.2c0-0.1,0-0.2,0-0.4c0-0.2,0-0.3,0-0.4h-1.2c0,0.1,0,0.2,0,0.4
		c0,0.1,0,0.3,0,0.4H286.7z M294.9,226.4c0,0.1,0,0.2,0,0.4c0,0.1,0,0.3,0,0.4c0,0.1,0,0.2,0,0.4c0,0.1,0,0.3,0,0.4
		c0,0.1,0,0.2,0,0.4c0,0.1,0,0.3,0,0.4c0,0.1,0,0.2,0,0.4c0,0.1,0,0.3,0,0.4c0,0.1,0,0.2,0,0.4c0,0.1,0,0.3,0,0.4c0,0.1,0,0.2,0,0.4
		c0,0.1,0,0.3,0,0.4h-0.8c0-0.1,0-0.2,0-0.4c0-0.2,0-0.3,0-0.4c0-0.1,0-0.2,0-0.4c0-0.2,0-0.3,0-0.4c0-0.1,0-0.2,0-0.4
		c0-0.2,0-0.3,0-0.4h-0.4c0-0.1,0-0.2,0-0.4c0-0.2,0-0.3,0-0.4h0.4c0-0.1,0-0.2,0-0.4c0-0.2,0-0.3,0-0.4c0-0.1,0-0.2,0-0.4
		c0-0.2,0-0.3,0-0.4H293c0,0.1,0,0.2,0,0.4c0,0.1,0,0.3,0,0.4h-0.4c0,0.1,0,0.2,0,0.4c0,0.1,0,0.3,0,0.4h0.4c0,0.1,0,0.2,0,0.4
		c0,0.1,0,0.3,0,0.4h0.8c0,0.1,0,0.2,0,0.4c0,0.1,0,0.3,0,0.4h-1.1c0-0.1,0-0.2,0-0.4c0-0.2,0-0.3,0-0.4h-0.4c0-0.1,0-0.2,0-0.4
		c0-0.2,0-0.3,0-0.4h-0.4c0-0.1,0-0.2,0-0.4c0-0.2,0-0.3,0-0.4h0.4c0-0.1,0-0.2,0-0.4c0-0.2,0-0.3,0-0.4h0.4c0-0.1,0-0.2,0-0.4
		c0-0.2,0-0.3,0-0.4h2.3c0,0.1,0,0.2,0,0.4C294.9,226.2,294.9,226.3,294.9,226.4z M300.4,228.3c0,0.1,0,0.3,0,0.4h0.9
		c0,0.1,0,0.2,0,0.4c0,0.1,0,0.3,0,0.4h-1.5c0-0.1,0-0.2,0-0.4c0-0.2,0-0.3,0-0.4h-0.5c0-0.1,0-0.2,0-0.4c0-0.2,0-0.3,0-0.4
		c0-0.1,0-0.2,0-0.4c0-0.2,0-0.3,0-0.4c0-0.1,0-0.2,0-0.4c0-0.2,0-0.3,0-0.4c0-0.1,0-0.2,0-0.4c0-0.2,0-0.3,0-0.4h0.8
		c0,0.1,0,0.2,0,0.4c0,0.1,0,0.3,0,0.4c0,0.1,0,0.2,0,0.4c0,0.1,0,0.3,0,0.4c0,0.1,0,0.2,0,0.4c0,0.1,0,0.3,0,0.4h0.3
		C300.4,228,300.4,228.1,300.4,228.3z M302.4,226.4c0,0.1,0,0.2,0,0.4c0,0.1,0,0.3,0,0.4c0,0.1,0,0.2,0,0.4c0,0.1,0,0.3,0,0.4
		c0,0.1,0,0.2,0,0.4c0,0.1,0,0.3,0,0.4c0,0.1,0,0.2,0,0.4c0,0.1,0,0.3,0,0.4h-0.8c0-0.1,0-0.2,0-0.4c0-0.2,0-0.3,0-0.4h-0.3
		c0-0.1,0-0.2,0-0.4c0-0.2,0-0.3,0-0.4h0.3c0-0.1,0-0.2,0-0.4c0-0.2,0-0.3,0-0.4c0-0.1,0-0.2,0-0.4c0-0.2,0-0.3,0-0.4
		c0-0.1,0-0.2,0-0.4c0-0.2,0-0.3,0-0.4h0.8c0,0.1,0,0.2,0,0.4C302.4,226.2,302.4,226.3,302.4,226.4z M308,224.9c0-0.1,0-0.2,0-0.4
		c0-0.2,0-0.3,0-0.4h0.8c0,0.1,0,0.2,0,0.4c0,0.1,0,0.3,0,0.4H308z M309.5,228.7c0,0.1,0,0.2,0,0.4c0,0.1,0,0.3,0,0.4h-2.3
		c0-0.1,0-0.2,0-0.4c0-0.2,0-0.3,0-0.4h0.8c0-0.1,0-0.2,0-0.4c0-0.2,0-0.3,0-0.4c0-0.1,0-0.2,0-0.4c0-0.2,0-0.3,0-0.4
		c0-0.1,0-0.2,0-0.4c0-0.2,0-0.3,0-0.4h-0.6c0-0.1,0-0.2,0-0.4c0-0.2,0-0.3,0-0.4h1.3c0,0.1,0,0.2,0,0.4c0,0.1,0,0.3,0,0.4
		c0,0.1,0,0.2,0,0.4c0,0.1,0,0.3,0,0.4c0,0.1,0,0.2,0,0.4c0,0.1,0,0.3,0,0.4c0,0.1,0,0.2,0,0.4c0,0.1,0,0.3,0,0.4H309.5z M317,228.7
		c0,0.1,0,0.2,0,0.4c0,0.1,0,0.3,0,0.4h-2.3c0-0.1,0-0.2,0-0.4c0-0.2,0-0.3,0-0.4h0.8c0-0.1,0-0.2,0-0.4c0-0.2,0-0.3,0-0.4
		c0-0.1,0-0.2,0-0.4c0-0.2,0-0.3,0-0.4c0-0.1,0-0.2,0-0.4c0-0.2,0-0.3,0-0.4c0-0.1,0-0.2,0-0.4c0-0.2,0-0.3,0-0.4c0-0.1,0-0.2,0-0.4
		c0-0.2,0-0.3,0-0.4h-0.6c0-0.1,0-0.2,0-0.4c0-0.2,0-0.3,0-0.4h1.3c0,0.1,0,0.2,0,0.4c0,0.1,0,0.3,0,0.4c0,0.1,0,0.2,0,0.4
		c0,0.1,0,0.3,0,0.4c0,0.1,0,0.2,0,0.4c0,0.1,0,0.3,0,0.4c0,0.1,0,0.2,0,0.4c0,0.1,0,0.3,0,0.4c0,0.1,0,0.2,0,0.4c0,0.1,0,0.3,0,0.4
		c0,0.1,0,0.2,0,0.4c0,0.1,0,0.3,0,0.4H317z M324.9,228.7c0,0.1,0,0.2,0,0.4c0,0.1,0,0.3,0,0.4h-0.8c0-0.1,0-0.2,0-0.4
		c0-0.2,0-0.3,0-0.4h-0.4c0-0.1,0-0.2,0-0.4c0-0.2,0-0.3,0-0.4h-1.1c0,0.1,0,0.2,0,0.4c0,0.1,0,0.3,0,0.4h1.1c0,0.1,0,0.2,0,0.4
		c0,0.1,0,0.3,0,0.4h-1.5c0-0.1,0-0.2,0-0.4c0-0.2,0-0.3,0-0.4h-0.4c0-0.1,0-0.2,0-0.4c0-0.2,0-0.3,0-0.4h0.4c0-0.1,0-0.2,0-0.4
		c0-0.2,0-0.3,0-0.4h1.5c0-0.1,0-0.2,0-0.4c0-0.2,0-0.3,0-0.4h-1.3c0-0.1,0-0.2,0-0.4c0-0.2,0-0.3,0-0.4h1.7c0,0.1,0,0.2,0,0.4
		c0,0.1,0,0.3,0,0.4h0.4c0,0.1,0,0.2,0,0.4c0,0.1,0,0.3,0,0.4c0,0.1,0,0.2,0,0.4c0,0.1,0,0.3,0,0.4c0,0.1,0,0.2,0,0.4
		c0,0.1,0,0.3,0,0.4H324.9z"/>
	<path class="st5" d="M294.9,243.8c0,0.1,0,0.2,0,0.4c0,0.1,0,0.3,0,0.4h-0.8c0-0.1,0-0.2,0-0.4c0-0.2,0-0.3,0-0.4h-0.3
		c0-0.1,0-0.2,0-0.4c0-0.2,0-0.3,0-0.4h-0.3c0-0.1,0-0.2,0-0.4c0-0.2,0-0.3,0-0.4h-0.9c0,0.1,0,0.2,0,0.4c0,0.1,0,0.3,0,0.4
		c0,0.1,0,0.2,0,0.4c0,0.1,0,0.3,0,0.4c0,0.1,0,0.2,0,0.4c0,0.1,0,0.3,0,0.4h-0.8c0-0.1,0-0.2,0-0.4c0-0.2,0-0.3,0-0.4
		c0-0.1,0-0.2,0-0.4c0-0.2,0-0.3,0-0.4c0-0.1,0-0.2,0-0.4c0-0.2,0-0.3,0-0.4c0-0.1,0-0.2,0-0.4c0-0.2,0-0.3,0-0.4c0-0.1,0-0.2,0-0.4
		c0-0.2,0-0.3,0-0.4c0-0.1,0-0.2,0-0.4c0-0.2,0-0.3,0-0.4c0-0.1,0-0.2,0-0.4c0-0.2,0-0.3,0-0.4h2.7c0,0.1,0,0.2,0,0.4
		c0,0.1,0,0.3,0,0.4h0.4c0,0.1,0,0.2,0,0.4c0,0.1,0,0.3,0,0.4h-0.2c0,0.1,0,0.2,0,0.4c0,0.1,0,0.3,0,0.4h-0.6c0,0.1,0,0.2,0,0.4
		c0,0.1,0,0.3,0,0.4h0.2c0,0.1,0,0.2,0,0.4c0,0.1,0,0.3,0,0.4h0.3c0,0.1,0,0.2,0,0.4c0,0.1,0,0.3,0,0.4H294.9z M294,241.6
		c0-0.1,0-0.2,0-0.4c0-0.2,0-0.3,0-0.4c0-0.1,0-0.2,0-0.4c0-0.2,0-0.3,0-0.4h-1.3c0,0.1,0,0.2,0,0.4c0,0.1,0,0.3,0,0.4
		c0,0.1,0,0.2,0,0.4c0,0.1,0,0.3,0,0.4H294z M300.4,243.5c0,0.1,0,0.3,0,0.4h0.9c0,0.1,0,0.2,0,0.4c0,0.1,0,0.3,0,0.4h-1.5
		c0-0.1,0-0.2,0-0.4c0-0.2,0-0.3,0-0.4h-0.5c0-0.1,0-0.2,0-0.4c0-0.2,0-0.3,0-0.4c0-0.1,0-0.2,0-0.4c0-0.2,0-0.3,0-0.4
		c0-0.1,0-0.2,0-0.4c0-0.2,0-0.3,0-0.4c0-0.1,0-0.2,0-0.4c0-0.2,0-0.3,0-0.4h0.8c0,0.1,0,0.2,0,0.4c0,0.1,0,0.3,0,0.4
		c0,0.1,0,0.2,0,0.4c0,0.1,0,0.3,0,0.4c0,0.1,0,0.2,0,0.4c0,0.1,0,0.3,0,0.4h0.3C300.4,243.2,300.4,243.3,300.4,243.5z M302.4,241.6
		c0,0.1,0,0.2,0,0.4c0,0.1,0,0.3,0,0.4c0,0.1,0,0.2,0,0.4c0,0.1,0,0.3,0,0.4c0,0.1,0,0.2,0,0.4c0,0.1,0,0.3,0,0.4c0,0.1,0,0.2,0,0.4
		c0,0.1,0,0.3,0,0.4h-0.8c0-0.1,0-0.2,0-0.4c0-0.2,0-0.3,0-0.4h-0.3c0-0.1,0-0.2,0-0.4c0-0.2,0-0.3,0-0.4h0.3c0-0.1,0-0.2,0-0.4
		c0-0.2,0-0.3,0-0.4c0-0.1,0-0.2,0-0.4c0-0.2,0-0.3,0-0.4c0-0.1,0-0.2,0-0.4c0-0.2,0-0.3,0-0.4h0.8c0,0.1,0,0.2,0,0.4
		C302.4,241.3,302.4,241.5,302.4,241.6z M307.4,241.2c0,0.1,0,0.3,0,0.4h0.3c0,0.1,0,0.2,0,0.4c0,0.1,0,0.3,0,0.4c0,0.1,0,0.2,0,0.4
		c0,0.1,0,0.3,0,0.4c0,0.1,0,0.2,0,0.4c0,0.1,0,0.3,0,0.4c0,0.1,0,0.2,0,0.4c0,0.1,0,0.3,0,0.4h-0.8c0-0.1,0-0.2,0-0.4
		c0-0.2,0-0.3,0-0.4c0-0.1,0-0.2,0-0.4c0-0.2,0-0.3,0-0.4c0-0.1,0-0.2,0-0.4c0-0.2,0-0.3,0-0.4c0-0.1,0-0.2,0-0.4c0-0.2,0-0.3,0-0.4
		c0-0.1,0-0.2,0-0.4c0-0.2,0-0.3,0-0.4h0.5C307.3,240.9,307.4,241,307.4,241.2z M308.4,241.2c0,0.1,0,0.3,0,0.4h0.3
		c0,0.1,0,0.2,0,0.4c0,0.1,0,0.3,0,0.4c0,0.1,0,0.2,0,0.4c0,0.1,0,0.3,0,0.4c0,0.1,0,0.2,0,0.4c0,0.1,0,0.3,0,0.4c0,0.1,0,0.2,0,0.4
		c0,0.1,0,0.3,0,0.4h-0.6c0-0.1,0-0.2,0-0.4c0-0.2,0-0.3,0-0.4c0-0.1,0-0.2,0-0.4c0-0.2,0-0.3,0-0.4c0-0.1,0-0.2,0-0.4
		c0-0.2,0-0.3,0-0.4c0-0.1,0-0.2,0-0.4c0-0.2,0-0.3,0-0.4h-0.5c0-0.1,0-0.2,0-0.4c0-0.2,0-0.3,0-0.4h0.8
		C308.4,240.9,308.4,241,308.4,241.2z M309.9,242.3c0,0.1,0,0.2,0,0.4c0,0.1,0,0.3,0,0.4c0,0.1,0,0.2,0,0.4c0,0.1,0,0.3,0,0.4
		c0,0.1,0,0.2,0,0.4c0,0.1,0,0.3,0,0.4h-0.8c0-0.1,0-0.2,0-0.4c0-0.2,0-0.3,0-0.4c0-0.1,0-0.2,0-0.4c0-0.2,0-0.3,0-0.4
		c0-0.1,0-0.2,0-0.4c0-0.2,0-0.3,0-0.4c0-0.1,0-0.2,0-0.4c0-0.2,0-0.3,0-0.4h-0.5c0-0.1,0-0.2,0-0.4c0-0.2,0-0.3,0-0.4h0.9
		c0,0.1,0,0.2,0,0.4c0,0.1,0,0.3,0,0.4h0.4c0,0.1,0,0.2,0,0.4C309.9,242.1,309.9,242.2,309.9,242.3z"/>
	<path class="st5" d="M250,254.4c0,0.1,0,0.2,0,0.4c0,0.1,0,0.3,0,0.4h-0.4c0,0.1,0,0.2,0,0.4c0,0.1,0,0.3,0,0.4h-1.9
		c0-0.1,0-0.2,0-0.4c0-0.2,0-0.3,0-0.4h-0.4c0-0.1,0-0.2,0-0.4c0-0.2,0-0.3,0-0.4h-0.4c0-0.1,0-0.2,0-0.4c0-0.2,0-0.3,0-0.4
		c0-0.1,0-0.2,0-0.4c0-0.2,0-0.3,0-0.4c0-0.1,0-0.2,0-0.4c0-0.2,0-0.3,0-0.4h0.4c0-0.1,0-0.2,0-0.4c0-0.2,0-0.3,0-0.4h0.4
		c0-0.1,0-0.2,0-0.4c0-0.2,0-0.3,0-0.4h1.9c0,0.1,0,0.2,0,0.4c0,0.1,0,0.3,0,0.4h0.4c0,0.1,0,0.2,0,0.4c0,0.1,0,0.3,0,0.4h-0.8
		c0-0.1,0-0.2,0-0.4c0-0.2,0-0.3,0-0.4h-1.1c0,0.1,0,0.2,0,0.4c0,0.1,0,0.3,0,0.4h-0.4c0,0.1,0,0.2,0,0.4c0,0.1,0,0.3,0,0.4
		c0,0.1,0,0.2,0,0.4c0,0.1,0,0.3,0,0.4c0,0.1,0,0.2,0,0.4c0,0.1,0,0.3,0,0.4h0.4c0,0.1,0,0.2,0,0.4c0,0.1,0,0.3,0,0.4h1.1
		c0-0.1,0-0.2,0-0.4c0-0.2,0-0.3,0-0.4H250z M257.4,252.9c0,0.1,0,0.2,0,0.4c0,0.1,0,0.3,0,0.4h-0.8c0-0.1,0-0.2,0-0.4
		c0-0.2,0-0.3,0-0.4H256c0,0.1,0,0.2,0,0.4c0,0.1,0,0.3,0,0.4h-0.3c0,0.1,0,0.2,0,0.4c0,0.1,0,0.3,0,0.4c0,0.1,0,0.2,0,0.4
		c0,0.1,0,0.3,0,0.4h0.6c0,0.1,0,0.2,0,0.4c0,0.1,0,0.3,0,0.4h-1.9c0-0.1,0-0.2,0-0.4c0-0.2,0-0.3,0-0.4h0.6c0-0.1,0-0.2,0-0.4
		c0-0.2,0-0.3,0-0.4c0-0.1,0-0.2,0-0.4c0-0.2,0-0.3,0-0.4c0-0.1,0-0.2,0-0.4c0-0.2,0-0.3,0-0.4h-0.6c0-0.1,0-0.2,0-0.4
		c0-0.2,0-0.3,0-0.4h0.9c0,0.1,0,0.2,0,0.4c0,0.1,0,0.3,0,0.4h0.4c0-0.1,0-0.2,0-0.4c0-0.2,0-0.3,0-0.4h1.4c0,0.1,0,0.2,0,0.4
		c0,0.1,0,0.3,0,0.4H257.4z M264.9,255.2c0,0.1,0,0.2,0,0.4c0,0.1,0,0.3,0,0.4h-0.8c0-0.1,0-0.2,0-0.4c0-0.2,0-0.3,0-0.4h-0.4
		c0-0.1,0-0.2,0-0.4c0-0.2,0-0.3,0-0.4h-1.1c0,0.1,0,0.2,0,0.4c0,0.1,0,0.3,0,0.4h1.1c0,0.1,0,0.2,0,0.4c0,0.1,0,0.3,0,0.4h-1.5
		c0-0.1,0-0.2,0-0.4c0-0.2,0-0.3,0-0.4h-0.4c0-0.1,0-0.2,0-0.4c0-0.2,0-0.3,0-0.4h0.4c0-0.1,0-0.2,0-0.4c0-0.2,0-0.3,0-0.4h1.5
		c0-0.1,0-0.2,0-0.4c0-0.2,0-0.3,0-0.4h-1.3c0-0.1,0-0.2,0-0.4c0-0.2,0-0.3,0-0.4h1.7c0,0.1,0,0.2,0,0.4c0,0.1,0,0.3,0,0.4h0.4
		c0,0.1,0,0.2,0,0.4c0,0.1,0,0.3,0,0.4c0,0.1,0,0.2,0,0.4c0,0.1,0,0.3,0,0.4c0,0.1,0,0.2,0,0.4c0,0.1,0,0.3,0,0.4H264.9z
		 M270.1,252.6c0,0.1,0,0.3,0,0.4h0.4c0,0.1,0,0.2,0,0.4c0,0.1,0,0.3,0,0.4h-0.3c0,0.1,0,0.2,0,0.4c0,0.1,0,0.3,0,0.4
		c0,0.1,0,0.2,0,0.4c0,0.1,0,0.3,0,0.4c0,0.1,0,0.2,0,0.4c0,0.1,0,0.3,0,0.4h-0.8c0-0.1,0-0.2,0-0.4c0-0.2,0-0.3,0-0.4
		c0-0.1,0-0.2,0-0.4c0-0.2,0-0.3,0-0.4c0-0.1,0-0.2,0-0.4c0-0.2,0-0.3,0-0.4c0-0.1,0-0.2,0-0.4c0-0.2,0-0.3,0-0.4c0-0.1,0-0.2,0-0.4
		c0-0.2,0-0.3,0-0.4h0.7C270.1,252.3,270.1,252.4,270.1,252.6z M272.4,253.7c0,0.1,0,0.2,0,0.4c0,0.1,0,0.3,0,0.4c0,0.1,0,0.2,0,0.4
		c0,0.1,0,0.3,0,0.4c0,0.1,0,0.2,0,0.4c0,0.1,0,0.3,0,0.4h-0.8c0-0.1,0-0.2,0-0.4c0-0.2,0-0.3,0-0.4c0-0.1,0-0.2,0-0.4
		c0-0.2,0-0.3,0-0.4c0-0.1,0-0.2,0-0.4c0-0.2,0-0.3,0-0.4c0-0.1,0-0.2,0-0.4c0-0.2,0-0.3,0-0.4h-1.2c0-0.1,0-0.2,0-0.4
		c0-0.2,0-0.3,0-0.4h1.5c0,0.1,0,0.2,0,0.4c0,0.1,0,0.3,0,0.4h0.5c0,0.1,0,0.2,0,0.4C272.5,253.5,272.5,253.6,272.4,253.7z
		 M277.6,254.4c0,0.1,0,0.2,0,0.4c0,0.1,0,0.3,0,0.4h-0.4c0,0.1,0,0.2,0,0.4c0,0.1,0,0.3,0,0.4h-0.4c0-0.1,0-0.2,0-0.4
		c0-0.2,0-0.3,0-0.4c0-0.1,0-0.2,0-0.4c0-0.2,0-0.3,0-0.4c0-0.1,0-0.2,0-0.4c0-0.2,0-0.3,0-0.4c0-0.1,0-0.2,0-0.4c0-0.2,0-0.3,0-0.4
		c0-0.1,0-0.2,0-0.4c0-0.2,0-0.3,0-0.4c0-0.1,0-0.2,0-0.4c0-0.2,0-0.3,0-0.4c0-0.1,0-0.2,0-0.4c0-0.2,0-0.3,0-0.4h0.8
		c0,0.1,0,0.2,0,0.4c0,0.1,0,0.3,0,0.4c0,0.1,0,0.2,0,0.4c0,0.1,0,0.3,0,0.4c0,0.1,0,0.2,0,0.4c0,0.1,0,0.3,0,0.4h0.4
		c0,0.1,0,0.2,0,0.4c0,0.1,0,0.3,0,0.4h-0.4c0,0.1,0,0.2,0,0.4C277.7,254.2,277.7,254.3,277.6,254.4z M280,254.1c0,0.1,0,0.3,0,0.4
		h-0.4c0,0.1,0,0.2,0,0.4c0,0.1,0,0.3,0,0.4h-0.8c0-0.1,0-0.2,0-0.4c0-0.2,0-0.3,0-0.4h0.4c0-0.1,0-0.2,0-0.4c0-0.2,0-0.3,0-0.4
		h-0.4c0-0.1,0-0.2,0-0.4c0-0.2,0-0.3,0-0.4H278c0-0.1,0-0.2,0-0.4c0-0.2,0-0.3,0-0.4h1.1c0,0.1,0,0.2,0,0.4c0,0.1,0,0.3,0,0.4h0.4
		c0,0.1,0,0.2,0,0.4c0,0.1,0,0.3,0,0.4h0.4C279.9,253.8,280,253.9,280,254.1z M277.6,255.6c0-0.2,0-0.3,0-0.4h1.1c0,0.1,0,0.2,0,0.4
		c0,0.1,0,0.3,0,0.4h-1.1C277.6,255.9,277.6,255.7,277.6,255.6z M287.4,253.3c0,0.1,0,0.3,0,0.4c0,0.1,0,0.2,0,0.4
		c0,0.1,0,0.3,0,0.4h-2c0,0.1,0,0.2,0,0.4c0,0.1,0,0.3,0,0.4h1.6c0,0.1,0,0.2,0,0.4c0,0.1,0,0.3,0,0.4h-1.9c0-0.1,0-0.2,0-0.4
		c0-0.2,0-0.3,0-0.4h-0.5c0-0.1,0-0.2,0-0.4c0-0.2,0-0.3,0-0.4h-0.3c0-0.1,0-0.2,0-0.4c0-0.2,0-0.3,0-0.4h0.3c0-0.1,0-0.2,0-0.4
		c0-0.2,0-0.3,0-0.4h0.5c0-0.1,0-0.2,0-0.4c0-0.2,0-0.3,0-0.4h1.9c0,0.1,0,0.2,0,0.4c0,0.1,0,0.3,0,0.4h0.4
		C287.4,253,287.4,253.2,287.4,253.3z M286.7,253.7c0-0.1,0-0.2,0-0.4c0-0.2,0-0.3,0-0.4h-1.2c0,0.1,0,0.2,0,0.4c0,0.1,0,0.3,0,0.4
		H286.7z M294.9,252.9c0,0.1,0,0.2,0,0.4c0,0.1,0,0.3,0,0.4h-0.8c0-0.1,0-0.2,0-0.4c0-0.2,0-0.3,0-0.4h-0.7c0,0.1,0,0.2,0,0.4
		c0,0.1,0,0.3,0,0.4h-0.3c0,0.1,0,0.2,0,0.4c0,0.1,0,0.3,0,0.4c0,0.1,0,0.2,0,0.4c0,0.1,0,0.3,0,0.4h0.6c0,0.1,0,0.2,0,0.4
		c0,0.1,0,0.3,0,0.4h-1.9c0-0.1,0-0.2,0-0.4c0-0.2,0-0.3,0-0.4h0.6c0-0.1,0-0.2,0-0.4c0-0.2,0-0.3,0-0.4c0-0.1,0-0.2,0-0.4
		c0-0.2,0-0.3,0-0.4c0-0.1,0-0.2,0-0.4c0-0.2,0-0.3,0-0.4h-0.6c0-0.1,0-0.2,0-0.4c0-0.2,0-0.3,0-0.4h0.9c0,0.1,0,0.2,0,0.4
		c0,0.1,0,0.3,0,0.4h0.4c0-0.1,0-0.2,0-0.4c0-0.2,0-0.3,0-0.4h1.4c0,0.1,0,0.2,0,0.4c0,0.1,0,0.3,0,0.4H294.9z M302.4,252.9
		c0,0.1,0,0.2,0,0.4c0,0.1,0,0.3,0,0.4h-0.8c0-0.1,0-0.2,0-0.4c0-0.2,0-0.3,0-0.4H301c0,0.1,0,0.2,0,0.4c0,0.1,0,0.3,0,0.4h-0.3
		c0,0.1,0,0.2,0,0.4c0,0.1,0,0.3,0,0.4c0,0.1,0,0.2,0,0.4c0,0.1,0,0.3,0,0.4h0.6c0,0.1,0,0.2,0,0.4c0,0.1,0,0.3,0,0.4h-1.9
		c0-0.1,0-0.2,0-0.4c0-0.2,0-0.3,0-0.4h0.6c0-0.1,0-0.2,0-0.4c0-0.2,0-0.3,0-0.4c0-0.1,0-0.2,0-0.4c0-0.2,0-0.3,0-0.4
		c0-0.1,0-0.2,0-0.4c0-0.2,0-0.3,0-0.4h-0.6c0-0.1,0-0.2,0-0.4c0-0.2,0-0.3,0-0.4h0.9c0,0.1,0,0.2,0,0.4c0,0.1,0,0.3,0,0.4h0.4
		c0-0.1,0-0.2,0-0.4c0-0.2,0-0.3,0-0.4h1.4c0,0.1,0,0.2,0,0.4c0,0.1,0,0.3,0,0.4H302.4z M309.9,252.6c0,0.1,0,0.3,0,0.4h-0.3
		c0,0.1,0,0.2,0,0.4c0,0.1,0,0.3,0,0.4h-0.3c0,0.1,0,0.2,0,0.4c0,0.1,0,0.3,0,0.4h-0.2c0,0.1,0,0.2,0,0.4c0,0.1,0,0.3,0,0.4h-0.3
		c0,0.1,0,0.2,0,0.4c0,0.1,0,0.3,0,0.4h-0.2c0,0.1,0,0.2,0,0.4c0,0.1,0,0.3,0,0.4h-0.4c0,0.1,0,0.2,0,0.4c0,0.1,0,0.3,0,0.4h-1.1
		c0-0.1,0-0.2,0-0.4c0-0.2,0-0.3,0-0.4h0.8c0-0.1,0-0.2,0-0.4c0-0.2,0-0.3,0-0.4c0-0.1,0-0.2,0-0.4c0-0.2,0-0.3,0-0.4h-0.4
		c0-0.1,0-0.2,0-0.4c0-0.2,0-0.3,0-0.4h-0.2c0-0.1,0-0.2,0-0.4c0-0.2,0-0.3,0-0.4H307c0-0.1,0-0.2,0-0.4c0-0.2,0-0.3,0-0.4h-0.3
		c0-0.1,0-0.2,0-0.4c0-0.2,0-0.3,0-0.4h0.8c0,0.1,0,0.2,0,0.4c0,0.1,0,0.3,0,0.4h0.3c0,0.1,0,0.2,0,0.4c0,0.1,0,0.3,0,0.4h0.3
		c0,0.1,0,0.2,0,0.4c0,0.1,0,0.3,0,0.4c0,0.1,0,0.2,0,0.4c0,0.1,0,0.3,0,0.4h0.3c0-0.1,0-0.2,0-0.4c0-0.2,0-0.3,0-0.4h0.2
		c0-0.1,0-0.2,0-0.4c0-0.2,0-0.3,0-0.4h0.3c0-0.1,0-0.2,0-0.4c0-0.2,0-0.3,0-0.4h0.3c0-0.1,0-0.2,0-0.4c0-0.2,0-0.3,0-0.4h0.8
		C309.9,252.3,309.9,252.4,309.9,252.6z M324.7,251c0,0.1,0,0.3,0,0.4h-0.6c0,0.1,0,0.2,0,0.4c0,0.1,0,0.3,0,0.4c0,0.1,0,0.2,0,0.4
		c0,0.1,0,0.3,0,0.4c0,0.1,0,0.2,0,0.4c0,0.1,0,0.3,0,0.4c0,0.1,0,0.2,0,0.4c0,0.1,0,0.3,0,0.4c0,0.1,0,0.2,0,0.4c0,0.1,0,0.3,0,0.4
		h-0.4c0,0.1,0,0.2,0,0.4c0,0.1,0,0.3,0,0.4h-1.5c0-0.1,0-0.2,0-0.4c0-0.2,0-0.3,0-0.4h-0.4c0-0.1,0-0.2,0-0.4c0-0.2,0-0.3,0-0.4
		h0.8c0,0.1,0,0.2,0,0.4c0,0.1,0,0.3,0,0.4h0.8c0-0.1,0-0.2,0-0.4c0-0.2,0-0.3,0-0.4c0-0.1,0-0.2,0-0.4c0-0.2,0-0.3,0-0.4
		c0-0.1,0-0.2,0-0.4c0-0.2,0-0.3,0-0.4c0-0.1,0-0.2,0-0.4c0-0.2,0-0.3,0-0.4c0-0.1,0-0.2,0-0.4c0-0.2,0-0.3,0-0.4h-0.6
		c0-0.1,0-0.2,0-0.4c0-0.2,0-0.3,0-0.4h1.9C324.7,250.8,324.7,250.9,324.7,251z M330.4,254.8c0,0.1,0,0.3,0,0.4h0.9
		c0,0.1,0,0.2,0,0.4c0,0.1,0,0.3,0,0.4h-1.5c0-0.1,0-0.2,0-0.4c0-0.2,0-0.3,0-0.4h-0.5c0-0.1,0-0.2,0-0.4c0-0.2,0-0.3,0-0.4
		c0-0.1,0-0.2,0-0.4c0-0.2,0-0.3,0-0.4c0-0.1,0-0.2,0-0.4c0-0.2,0-0.3,0-0.4c0-0.1,0-0.2,0-0.4c0-0.2,0-0.3,0-0.4h0.8
		c0,0.1,0,0.2,0,0.4c0,0.1,0,0.3,0,0.4c0,0.1,0,0.2,0,0.4c0,0.1,0,0.3,0,0.4c0,0.1,0,0.2,0,0.4c0,0.1,0,0.3,0,0.4h0.3
		C330.4,254.6,330.4,254.7,330.4,254.8z M332.4,252.9c0,0.1,0,0.2,0,0.4c0,0.1,0,0.3,0,0.4c0,0.1,0,0.2,0,0.4c0,0.1,0,0.3,0,0.4
		c0,0.1,0,0.2,0,0.4c0,0.1,0,0.3,0,0.4c0,0.1,0,0.2,0,0.4c0,0.1,0,0.3,0,0.4h-0.8c0-0.1,0-0.2,0-0.4c0-0.2,0-0.3,0-0.4h-0.3
		c0-0.1,0-0.2,0-0.4c0-0.2,0-0.3,0-0.4h0.3c0-0.1,0-0.2,0-0.4c0-0.2,0-0.3,0-0.4c0-0.1,0-0.2,0-0.4c0-0.2,0-0.3,0-0.4
		c0-0.1,0-0.2,0-0.4c0-0.2,0-0.3,0-0.4h0.8c0,0.1,0,0.2,0,0.4C332.4,252.7,332.4,252.8,332.4,252.9z M337.9,251.4c0-0.1,0-0.2,0-0.4
		c0-0.2,0-0.3,0-0.4h0.8c0,0.1,0,0.2,0,0.4c0,0.1,0,0.3,0,0.4H337.9z M339.5,255.2c0,0.1,0,0.2,0,0.4c0,0.1,0,0.3,0,0.4h-2.3
		c0-0.1,0-0.2,0-0.4c0-0.2,0-0.3,0-0.4h0.8c0-0.1,0-0.2,0-0.4c0-0.2,0-0.3,0-0.4c0-0.1,0-0.2,0-0.4c0-0.2,0-0.3,0-0.4
		c0-0.1,0-0.2,0-0.4c0-0.2,0-0.3,0-0.4h-0.6c0-0.1,0-0.2,0-0.4c0-0.2,0-0.3,0-0.4h1.3c0,0.1,0,0.2,0,0.4c0,0.1,0,0.3,0,0.4
		c0,0.1,0,0.2,0,0.4c0,0.1,0,0.3,0,0.4c0,0.1,0,0.2,0,0.4c0,0.1,0,0.3,0,0.4c0,0.1,0,0.2,0,0.4c0,0.1,0,0.3,0,0.4H339.5z
		 M347.3,254.4c0,0.1,0,0.2,0,0.4c0,0.1,0,0.3,0,0.4H347c0,0.1,0,0.2,0,0.4c0,0.1,0,0.3,0,0.4h-1.9c0-0.1,0-0.2,0-0.4
		c0-0.2,0-0.3,0-0.4h-0.4c0-0.1,0-0.2,0-0.4c0-0.2,0-0.3,0-0.4h-0.4c0-0.1,0-0.2,0-0.4c0-0.2,0-0.3,0-0.4h0.4c0-0.1,0-0.2,0-0.4
		c0-0.2,0-0.3,0-0.4h0.4c0-0.1,0-0.2,0-0.4c0-0.2,0-0.3,0-0.4h1.9c0,0.1,0,0.2,0,0.4c0,0.1,0,0.3,0,0.4h0.4c0,0.1,0,0.2,0,0.4
		c0,0.1,0,0.3,0,0.4h-0.8c0-0.1,0-0.2,0-0.4c0-0.2,0-0.3,0-0.4h-1.1c0,0.1,0,0.2,0,0.4c0,0.1,0,0.3,0,0.4h-0.4c0,0.1,0,0.2,0,0.4
		c0,0.1,0,0.3,0,0.4h0.4c0,0.1,0,0.2,0,0.4c0,0.1,0,0.3,0,0.4h1.1c0-0.1,0-0.2,0-0.4c0-0.2,0-0.3,0-0.4H347.3z M354.9,253.3
		c0,0.1,0,0.3,0,0.4c0,0.1,0,0.2,0,0.4c0,0.1,0,0.3,0,0.4h-2c0,0.1,0,0.2,0,0.4c0,0.1,0,0.3,0,0.4h1.6c0,0.1,0,0.2,0,0.4
		c0,0.1,0,0.3,0,0.4h-1.9c0-0.1,0-0.2,0-0.4c0-0.2,0-0.3,0-0.4h-0.5c0-0.1,0-0.2,0-0.4c0-0.2,0-0.3,0-0.4h-0.3c0-0.1,0-0.2,0-0.4
		c0-0.2,0-0.3,0-0.4h0.3c0-0.1,0-0.2,0-0.4c0-0.2,0-0.3,0-0.4h0.5c0-0.1,0-0.2,0-0.4c0-0.2,0-0.3,0-0.4h1.9c0,0.1,0,0.2,0,0.4
		c0,0.1,0,0.3,0,0.4h0.4C354.8,253,354.9,253.2,354.9,253.3z M354.1,253.7c0-0.1,0-0.2,0-0.4c0-0.2,0-0.3,0-0.4h-1.2
		c0,0.1,0,0.2,0,0.4c0,0.1,0,0.3,0,0.4H354.1z"/>
	<path class="st4" d="M202.3,166.9l13.3-9.8v19.7L202.3,166.9z"/>
	<path class="st4" d="M400.7,166.9l-13.3,9.8V157L400.7,166.9z"/>
	<path d="M199,204.5c0,0.1,0,0.3,0,0.5c0,0.2,0,0.3,0,0.5h-2.4c0-0.1,0-0.3,0-0.5c0-0.2,0-0.4,0-0.5h0.7c0-0.1,0-0.3,0-0.5
		c0-0.2,0-0.4,0-0.5c0-0.1,0-0.3,0-0.5c0-0.2,0-0.4,0-0.5c0-0.1,0-0.3,0-0.5c0-0.2,0-0.4,0-0.5c0-0.1,0-0.3,0-0.5c0-0.2,0-0.4,0-0.5
		c0-0.1,0-0.3,0-0.5c0-0.2,0-0.4,0-0.5h-0.7c0-0.1,0-0.3,0-0.5c0-0.2,0-0.4,0-0.5h2.4c0,0.1,0,0.3,0,0.5c0,0.2,0,0.3,0,0.5h-0.7
		c0,0.1,0,0.3,0,0.5c0,0.2,0,0.3,0,0.5c0,0.1,0,0.3,0,0.5c0,0.2,0,0.3,0,0.5c0,0.1,0,0.3,0,0.5c0,0.2,0,0.3,0,0.5c0,0.1,0,0.3,0,0.5
		c0,0.2,0,0.3,0,0.5c0,0.1,0,0.3,0,0.5c0,0.2,0,0.3,0,0.5H199z M206.3,201.1c0,0.2,0,0.3,0,0.5h0.5c0,0.1,0,0.3,0,0.5
		c0,0.2,0,0.3,0,0.5h-0.4c0,0.1,0,0.3,0,0.5c0,0.2,0,0.3,0,0.5c0,0.1,0,0.3,0,0.5c0,0.2,0,0.3,0,0.5c0,0.1,0,0.3,0,0.5
		c0,0.2,0,0.3,0,0.5h-1c0-0.1,0-0.3,0-0.5c0-0.2,0-0.4,0-0.5c0-0.1,0-0.3,0-0.5c0-0.2,0-0.4,0-0.5c0-0.1,0-0.3,0-0.5
		c0-0.2,0-0.4,0-0.5c0-0.1,0-0.3,0-0.5c0-0.2,0-0.4,0-0.5c0-0.1,0-0.3,0-0.5c0-0.2,0-0.4,0-0.5h0.8
		C206.3,200.8,206.3,200.9,206.3,201.1z M209.2,202.5c0,0.1,0,0.3,0,0.5c0,0.2,0,0.3,0,0.5c0,0.1,0,0.3,0,0.5c0,0.2,0,0.3,0,0.5
		c0,0.1,0,0.3,0,0.5c0,0.2,0,0.3,0,0.5h-1c0-0.1,0-0.3,0-0.5c0-0.2,0-0.4,0-0.5c0-0.1,0-0.3,0-0.5c0-0.2,0-0.4,0-0.5
		c0-0.1,0-0.3,0-0.5c0-0.2,0-0.4,0-0.5c0-0.1,0-0.3,0-0.5c0-0.2,0-0.4,0-0.5h-1.6c0-0.1,0-0.3,0-0.5c0-0.2,0-0.4,0-0.5h1.9
		c0,0.1,0,0.3,0,0.5c0,0.2,0,0.3,0,0.5h0.6c0,0.1,0,0.3,0,0.5C209.3,202.2,209.3,202.4,209.2,202.5z M218.7,201.6c0,0.1,0,0.3,0,0.5
		c0,0.2,0,0.3,0,0.5c0,0.1,0,0.3,0,0.5c0,0.2,0,0.3,0,0.5c0,0.1,0,0.3,0,0.5c0,0.2,0,0.3,0,0.5c0,0.1,0,0.3,0,0.5c0,0.2,0,0.3,0,0.5
		h-0.5c0,0.1,0,0.3,0,0.5c0,0.2,0,0.3,0,0.5h-0.5c0,0.1,0,0.3,0,0.5c0,0.2,0,0.3,0,0.5h-1.9c0-0.1,0-0.3,0-0.5c0-0.2,0-0.4,0-0.5
		h1.4c0-0.1,0-0.3,0-0.5c0-0.2,0-0.4,0-0.5h0.5c0-0.1,0-0.3,0-0.5c0-0.2,0-0.4,0-0.5h-0.5c0-0.1,0-0.3,0-0.5c0-0.2,0-0.4,0-0.5h0.5
		c0-0.1,0-0.3,0-0.5c0-0.2,0-0.4,0-0.5c0-0.1,0-0.3,0-0.5c0-0.2,0-0.4,0-0.5h-1.6c0,0.1,0,0.3,0,0.5c0,0.2,0,0.3,0,0.5h-0.4
		c0,0.1,0,0.3,0,0.5c0,0.2,0,0.3,0,0.5h0.4c0,0.1,0,0.3,0,0.5c0,0.2,0,0.3,0,0.5h1.1c0,0.1,0,0.3,0,0.5c0,0.2,0,0.3,0,0.5h-1.4
		c0-0.1,0-0.3,0-0.5c0-0.2,0-0.4,0-0.5h-0.6c0-0.1,0-0.3,0-0.5c0-0.2,0-0.4,0-0.5h-0.4c0-0.1,0-0.3,0-0.5c0-0.2,0-0.4,0-0.5h0.4
		c0-0.1,0-0.3,0-0.5c0-0.2,0-0.4,0-0.5h0.6c0-0.1,0-0.3,0-0.5c0-0.2,0-0.4,0-0.5h2.9c0,0.1,0,0.3,0,0.5
		C218.8,201.3,218.8,201.4,218.7,201.6z M228.2,201.6c0,0.1,0,0.3,0,0.5c0,0.2,0,0.3,0,0.5h-1c0-0.1,0-0.3,0-0.5c0-0.2,0-0.4,0-0.5
		h-0.8c0,0.1,0,0.3,0,0.5c0,0.2,0,0.3,0,0.5h-0.4c0,0.1,0,0.3,0,0.5c0,0.2,0,0.3,0,0.5c0,0.1,0,0.3,0,0.5c0,0.2,0,0.3,0,0.5h0.7
		c0,0.1,0,0.3,0,0.5c0,0.2,0,0.3,0,0.5h-2.4c0-0.1,0-0.3,0-0.5c0-0.2,0-0.4,0-0.5h0.7c0-0.1,0-0.3,0-0.5c0-0.2,0-0.4,0-0.5
		c0-0.1,0-0.3,0-0.5c0-0.2,0-0.4,0-0.5c0-0.1,0-0.3,0-0.5c0-0.2,0-0.4,0-0.5h-0.7c0-0.1,0-0.3,0-0.5c0-0.2,0-0.4,0-0.5h1.2
		c0,0.1,0,0.3,0,0.5c0,0.2,0,0.3,0,0.5h0.5c0-0.1,0-0.3,0-0.5c0-0.2,0-0.4,0-0.5h1.8c0,0.1,0,0.3,0,0.5c0,0.2,0,0.3,0,0.5H228.2z
		 M237.8,202.1c0,0.2,0,0.3,0,0.5c0,0.1,0,0.3,0,0.5c0,0.2,0,0.3,0,0.5h-2.5c0,0.1,0,0.3,0,0.5c0,0.2,0,0.3,0,0.5h2
		c0,0.1,0,0.3,0,0.5c0,0.2,0,0.3,0,0.5h-2.4c0-0.1,0-0.3,0-0.5c0-0.2,0-0.4,0-0.5h-0.6c0-0.1,0-0.3,0-0.5c0-0.2,0-0.4,0-0.5h-0.4
		c0-0.1,0-0.3,0-0.5c0-0.2,0-0.4,0-0.5h0.4c0-0.1,0-0.3,0-0.5c0-0.2,0-0.4,0-0.5h0.6c0-0.1,0-0.3,0-0.5c0-0.2,0-0.4,0-0.5h2.4
		c0,0.1,0,0.3,0,0.5c0,0.2,0,0.3,0,0.5h0.5C237.7,201.7,237.8,201.9,237.8,202.1z M236.8,202.5c0-0.1,0-0.3,0-0.5c0-0.2,0-0.4,0-0.5
		h-1.6c0,0.1,0,0.3,0,0.5c0,0.2,0,0.3,0,0.5H236.8z M247.2,199.7c0,0.1,0,0.3,0,0.5c0,0.2,0,0.3,0,0.5c0,0.1,0,0.3,0,0.5
		c0,0.2,0,0.3,0,0.5c0,0.1,0,0.3,0,0.5c0,0.2,0,0.3,0,0.5c0,0.1,0,0.3,0,0.5c0,0.2,0,0.3,0,0.5c0,0.1,0,0.3,0,0.5c0,0.2,0,0.3,0,0.5
		c0,0.1,0,0.3,0,0.5c0,0.2,0,0.3,0,0.5h-1c0-0.1,0-0.3,0-0.5c0-0.2,0-0.4,0-0.5h-0.4c0-0.1,0-0.3,0-0.5c0-0.2,0-0.4,0-0.5h0.4
		c0-0.1,0-0.3,0-0.5c0-0.2,0-0.4,0-0.5h-0.4c0-0.1,0-0.3,0-0.5c0-0.2,0-0.4,0-0.5h0.4c0-0.1,0-0.3,0-0.5c0-0.2,0-0.4,0-0.5
		c0-0.1,0-0.3,0-0.5c0-0.2,0-0.4,0-0.5c0-0.1,0-0.3,0-0.5c0-0.2,0-0.4,0-0.5h1c0,0.1,0,0.3,0,0.5
		C247.2,199.4,247.2,199.5,247.2,199.7z M245.7,201.1c0,0.2,0,0.3,0,0.5h-1.2c0,0.1,0,0.3,0,0.5c0,0.2,0,0.3,0,0.5h-0.4
		c0,0.1,0,0.3,0,0.5c0,0.2,0,0.3,0,0.5h0.4c0,0.1,0,0.3,0,0.5c0,0.2,0,0.3,0,0.5h1.2c0,0.1,0,0.3,0,0.5c0,0.2,0,0.3,0,0.5h-1.3
		c0-0.1,0-0.3,0-0.5c0-0.2,0-0.4,0-0.5h-0.6c0-0.1,0-0.3,0-0.5c0-0.2,0-0.4,0-0.5h-0.4c0-0.1,0-0.3,0-0.5c0-0.2,0-0.4,0-0.5h0.4
		c0-0.1,0-0.3,0-0.5c0-0.2,0-0.4,0-0.5h0.6c0-0.1,0-0.3,0-0.5c0-0.2,0-0.4,0-0.5h1.3C245.7,200.8,245.7,200.9,245.7,201.1z
		 M254.3,199.7c0-0.1,0-0.3,0-0.5c0-0.2,0-0.4,0-0.5h1c0,0.1,0,0.3,0,0.5c0,0.2,0,0.3,0,0.5H254.3z M256.2,204.5c0,0.1,0,0.3,0,0.5
		c0,0.2,0,0.3,0,0.5h-2.9c0-0.1,0-0.3,0-0.5c0-0.2,0-0.4,0-0.5h1c0-0.1,0-0.3,0-0.5c0-0.2,0-0.4,0-0.5c0-0.1,0-0.3,0-0.5
		c0-0.2,0-0.4,0-0.5c0-0.1,0-0.3,0-0.5c0-0.2,0-0.4,0-0.5h-0.7c0-0.1,0-0.3,0-0.5c0-0.2,0-0.4,0-0.5h1.7c0,0.1,0,0.3,0,0.5
		c0,0.2,0,0.3,0,0.5c0,0.1,0,0.3,0,0.5c0,0.2,0,0.3,0,0.5c0,0.1,0,0.3,0,0.5c0,0.2,0,0.3,0,0.5c0,0.1,0,0.3,0,0.5c0,0.2,0,0.3,0,0.5
		H256.2z M266.2,202.1c0,0.2,0,0.3,0,0.5c0,0.1,0,0.3,0,0.5c0,0.2,0,0.3,0,0.5h-2.5c0,0.1,0,0.3,0,0.5c0,0.2,0,0.3,0,0.5h2
		c0,0.1,0,0.3,0,0.5c0,0.2,0,0.3,0,0.5h-2.4c0-0.1,0-0.3,0-0.5c0-0.2,0-0.4,0-0.5h-0.6c0-0.1,0-0.3,0-0.5c0-0.2,0-0.4,0-0.5h-0.4
		c0-0.1,0-0.3,0-0.5c0-0.2,0-0.4,0-0.5h0.4c0-0.1,0-0.3,0-0.5c0-0.2,0-0.4,0-0.5h0.6c0-0.1,0-0.3,0-0.5c0-0.2,0-0.4,0-0.5h2.4
		c0,0.1,0,0.3,0,0.5c0,0.2,0,0.3,0,0.5h0.5C266.2,201.7,266.2,201.9,266.2,202.1z M265.2,202.5c0-0.1,0-0.3,0-0.5c0-0.2,0-0.4,0-0.5
		h-1.6c0,0.1,0,0.3,0,0.5c0,0.2,0,0.3,0,0.5H265.2z M272.7,201.1c0,0.2,0,0.3,0,0.5h0.5c0,0.1,0,0.3,0,0.5c0,0.2,0,0.3,0,0.5h-0.4
		c0,0.1,0,0.3,0,0.5c0,0.2,0,0.3,0,0.5c0,0.1,0,0.3,0,0.5c0,0.2,0,0.3,0,0.5c0,0.1,0,0.3,0,0.5c0,0.2,0,0.3,0,0.5h-1
		c0-0.1,0-0.3,0-0.5c0-0.2,0-0.4,0-0.5c0-0.1,0-0.3,0-0.5c0-0.2,0-0.4,0-0.5c0-0.1,0-0.3,0-0.5c0-0.2,0-0.4,0-0.5c0-0.1,0-0.3,0-0.5
		c0-0.2,0-0.4,0-0.5c0-0.1,0-0.3,0-0.5c0-0.2,0-0.4,0-0.5h0.8C272.7,200.8,272.7,200.9,272.7,201.1z M275.7,202.5c0,0.1,0,0.3,0,0.5
		c0,0.2,0,0.3,0,0.5c0,0.1,0,0.3,0,0.5c0,0.2,0,0.3,0,0.5c0,0.1,0,0.3,0,0.5c0,0.2,0,0.3,0,0.5h-1c0-0.1,0-0.3,0-0.5
		c0-0.2,0-0.4,0-0.5c0-0.1,0-0.3,0-0.5c0-0.2,0-0.4,0-0.5c0-0.1,0-0.3,0-0.5c0-0.2,0-0.4,0-0.5c0-0.1,0-0.3,0-0.5c0-0.2,0-0.4,0-0.5
		h-1.6c0-0.1,0-0.3,0-0.5c0-0.2,0-0.4,0-0.5h1.9c0,0.1,0,0.3,0,0.5c0,0.2,0,0.3,0,0.5h0.6c0,0.1,0,0.3,0,0.5
		C275.7,202.2,275.7,202.4,275.7,202.5z M284.7,204.5c0,0.1,0,0.3,0,0.5c0,0.2,0,0.3,0,0.5h-1.9c0-0.1,0-0.3,0-0.5
		c0-0.2,0-0.4,0-0.5h-0.5c0-0.1,0-0.3,0-0.5c0-0.2,0-0.4,0-0.5c0-0.1,0-0.3,0-0.5c0-0.2,0-0.4,0-0.5c0-0.1,0-0.3,0-0.5
		c0-0.2,0-0.4,0-0.5h-1c0-0.1,0-0.3,0-0.5c0-0.2,0-0.4,0-0.5h1c0-0.1,0-0.3,0-0.5c0-0.2,0-0.4,0-0.5c0-0.1,0-0.3,0-0.5
		c0-0.2,0-0.4,0-0.5h1c0,0.1,0,0.3,0,0.5c0,0.2,0,0.3,0,0.5c0,0.1,0,0.3,0,0.5c0,0.2,0,0.3,0,0.5h1.4c0,0.1,0,0.3,0,0.5
		c0,0.2,0,0.3,0,0.5h-1.4c0,0.1,0,0.3,0,0.5c0,0.2,0,0.3,0,0.5c0,0.1,0,0.3,0,0.5c0,0.2,0,0.3,0,0.5c0,0.1,0,0.3,0,0.5
		c0,0.2,0,0.3,0,0.5H284.7z M294.4,204c0,0.2,0,0.3,0,0.5h-0.5c0,0.1,0,0.3,0,0.5c0,0.2,0,0.3,0,0.5h-2.6c0-0.1,0-0.3,0-0.5
		c0-0.2,0-0.4,0-0.5h2.2c0-0.1,0-0.3,0-0.5c0-0.2,0-0.4,0-0.5h-1.9c0-0.1,0-0.3,0-0.5c0-0.2,0-0.4,0-0.5H291c0-0.1,0-0.3,0-0.5
		c0-0.2,0-0.4,0-0.5h0.5c0-0.1,0-0.3,0-0.5c0-0.2,0-0.4,0-0.5h2.6c0,0.1,0,0.3,0,0.5c0,0.2,0,0.3,0,0.5H292c0,0.1,0,0.3,0,0.5
		c0,0.2,0,0.3,0,0.5h1.9c0,0.1,0,0.3,0,0.5c0,0.2,0,0.3,0,0.5h0.5C294.4,203.6,294.4,203.8,294.4,204z"/>
</g>
<g id="Layer_2_1_">
	<g>
		<path class="st7" d="M136.4,59.1c-8,0-14.4,6.5-14.4,14.4v246.9c0,8,6.5,14.4,14.4,14.4h329c8,0,14.4-6.5,14.4-14.4V73.6
			c0-8-6.5-14.4-14.4-14.4H136.4z M449.4,87.5v220H153.4v-220L449.4,87.5z"/>
		
			<linearGradient id="SVGID_1_" gradientUnits="userSpaceOnUse" x1="243.6159" y1="194.6402" x2="501.8208" y2="194.6402" gradientTransform="matrix(0 -1 1 0 106.541 560.541)">
			<stop  offset="0" style="stop-color:#FFFFFF;stop-opacity:0"/>
			<stop  offset="1" style="stop-color:#FFFFFF"/>
		</linearGradient>
		<path class="st8" d="M122.3,152.5l0-80c0,0,0.2-15.3,20.4-13.7l323.5,0.5c0,0,12.1-0.9,13.7,14.8c-0.9,16.2,0,242.8,0,242.8"/>
	</g>
</g>
</svg>
