<svg xmlns="http://www.w3.org/2000/svg" viewBox="0 0 360 139.14"><defs><style>.cls-1{fill:none;}.cls-2{fill:#fff;}.cls-3{fill:#39ccc7;}.cls-4{fill:#c7f0ef;}</style></defs><title>Asset 11</title><g id="Layer_2" data-name="Layer 2"><g id="Layer_1-2" data-name="Layer 1"><path class="cls-1" d="M268.56,0,266.7,1H360V0Z"/><path class="cls-2" d="M0,82.61v56.53H360V1H266.7C189.95,42.18,84.92,93.65,0,82.61Zm299-40c.38.54.77,1.07,1.15,1.6,2.67.69,3.34,2,3,3.9,8.49,10.37,17.85,18.45,19.54,29.24,1.21,7.62-1.44,16.6-6.95,24.43.89.22,5,1.63,4.71,8.41-.37,7.58-6.63,27.23-13.77,26.23-6.85-1-16.82-2.83-19.7-15.76A55.35,55.35,0,0,1,276.55,122c-1.32,9.7-3.5,18.77-6.15,16.9-1.69-1.2-4.93-9.35-8.31-18.46a41.57,41.57,0,0,1-10-4,38.39,38.39,0,0,1-4.21-2.76c-.63,1.53-1.47,2.47-2.63,2.43-4.51-.12-8.26-.25-9.76-6-1.15-4.36.91-2,2-7.92C232.81,94.61,231,86,233.05,79.05c1.55-5.15,5.29-9.33,9.79-13.46a9.45,9.45,0,0,1,2.56-2.29c5.46-4.79,11.6-9.75,16.23-16.28C271,33.81,274.3,14.13,279,13S289.7,29.41,299,42.6Z"/><path class="cls-3" d="M250.38,93.89c-.65,5.91-.68,15.39-2.5,19.82a38.39,38.39,0,0,0,4.21,2.76,41.57,41.57,0,0,0,10,4C256.7,105.92,250.91,89,250.38,93.89Z"/><path class="cls-3" d="M298.57,69.39c1,17.41,5.76,34.93,9.64,35.56s7.39-3.23,7.39-3.23l.17,0c5.5-7.82,8.16-16.8,6.95-24.43C321,66.54,311.66,58.46,303.17,48.09,302.57,52.09,298,58.91,298.57,69.39Z"/><path class="cls-3" d="M284,89.66c1.38-9.95,0-12.56,0-12.56s-6.13,17.78-6.13,27.85a142.75,142.75,0,0,1-1.36,17A55.35,55.35,0,0,0,287,120.65c-.12-.53-.23-1.08-.32-1.65C284.3,104.58,282.67,99.6,284,89.66Z"/><path class="cls-3" d="M238.11,77.1s1.27-7.2,4.73-11.51c-4.5,4.14-8.24,8.32-9.79,13.46-2.09,6.91-.24,15.55,4.44,23.19a49.17,49.17,0,0,0,.62-8.36C238.24,77.47,238.11,77.1,238.11,77.1Z"/><path class="cls-3" d="M261.63,47C257,53.55,250.86,58.51,245.4,63.3a6.17,6.17,0,0,1,3.35-.87c8,.25,13.64,9.45,13.64,9.45s-1,26.23,4.13,24.12a7,7,0,0,0,3.71-3.91c1-6,1.09-6,1.09-6s10.6-43.44,25.12-42.45a20.44,20.44,0,0,1,3.68.53c-.39-.53-.78-1.06-1.15-1.6C289.7,29.41,283.62,11.94,279,13S271,33.81,261.63,47Z"/><path class="cls-2" d="M271.32,86.11s-.05-.05-1.09,6A7,7,0,0,1,266.52,96c-5.13,2.11-4.13-24.12-4.13-24.12s-5.63-9.2-13.64-9.45a6.17,6.17,0,0,0-3.35.87,9.45,9.45,0,0,0-2.56,2.29c-3.46,4.31-4.73,11.51-4.73,11.51s.13.37,0,16.78a49.17,49.17,0,0,1-.62,8.36c-1.1,5.92-3.15,3.56-2,7.92,1.5,5.72,5.26,5.84,9.76,6,1.16,0,2-.9,2.63-2.43,1.82-4.43,1.85-13.91,2.5-19.82.54-4.89,6.32,12,11.71,26.54,3.39,9.11,6.62,17.26,8.31,18.46,2.64,1.87,4.83-7.19,6.15-16.9a142.75,142.75,0,0,0,1.36-17c0-10.07,6.13-27.85,6.13-27.85s1.38,2.61,0,12.56.25,14.92,2.63,29.34c.09.57.21,1.11.32,1.65,2.88,12.92,12.85,14.8,19.7,15.76,7.14,1,13.39-18.65,13.77-26.23.34-6.78-3.82-8.19-4.71-8.41l-.17,0s-3.51,3.85-7.39,3.23-8.64-18.15-9.64-35.56c-.6-10.48,4-17.31,4.61-21.3.29-1.94-.38-3.21-3-3.9a20.44,20.44,0,0,0-3.68-.53C281.92,42.66,271.32,86.11,271.32,86.11Z"/><path class="cls-4" d="M266.7,1l1.86-1H0V82.61C84.92,93.65,189.95,42.18,266.7,1Z"/></g></g></svg>