<svg xmlns="http://www.w3.org/2000/svg" viewBox="0 0 2125.8 602.41"><defs><style>.cls-1{fill:#c7f0ef;}</style></defs><title>Asset 3</title><g id="Layer_2" data-name="Layer 2"><g id="Layer_1-2" data-name="Layer 1"><path id="Path_12" data-name="Path 12" class="cls-1" d="M2125.8,164.91v186.6c-151.3-17.1-298.9,91.4-534,201.6-398.6,187.1-428.1-226-516.8-123s-305.2,118.2-472.4-19.4c-125.4-103.2-185.1-1.8-284.4,0-32.8.6-82.1,9.8-123.8-29.5-71.8-67.6-140-68.1-194.4-46.6v-90.8C76.6,221,175.4,214.71,236.3,300c110.7,155,221.4-132.9,383.9,7.3s491.8,70.2,496.6-63.4,57.1,417.8,367.1,181.6C1777.2,201.71,1633.8-240.59,2125.8,164.91Z"/><path id="Path_15" data-name="Path 15" class="cls-1" d="M1111.5,204.61c-5.5,0-23.4-19-48-28.3s-56.1-9.1-65.8-16.2-6-44.1,9-58,41.2-4.6,54.6,0,22.2,27,28.4,40.8,9.8,18.8,15.1,30.8C1109.9,185.71,1116.9,204.61,1111.5,204.61Z"/></g></g></svg>