<svg xmlns="http://www.w3.org/2000/svg" viewBox="0 0 641.17 641.17"><defs><style>.cls-1{fill:#39ccc7;}</style></defs><title>JkfsAsset 3</title><g id="Layer_2" data-name="Layer 2"><g id="Layer_1-2" data-name="Layer 1"><path class="cls-1" d="M546.25,546.38H458a6.66,6.66,0,0,1-6.67-6.66V397.61c0-35.48-.72-81.13-49.48-81.13-49.5,0-57.06,38.6-57.06,78.51V539.72a6.66,6.66,0,0,1-6.66,6.66H256.48a6.66,6.66,0,0,1-6.66-6.66V247.1a6.67,6.67,0,0,1,6.66-6.66h77.88A6.67,6.67,0,0,1,341,247.1v34.27a.77.77,0,0,0,1.44.36c12.87-23.92,43.78-49,89.82-49,96.2,0,114,63.31,114,145.73v167.9S546.27,546.38,546.25,546.38ZM142.58,198.58a55.14,55.14,0,1,1,55.14-55.17A55.09,55.09,0,0,1,142.58,198.58Zm47.61,341.14a6.66,6.66,0,0,1-6.66,6.66H101.64A6.66,6.66,0,0,1,95,539.72V247.1a6.67,6.67,0,0,1,6.66-6.66h81.88a6.67,6.67,0,0,1,6.66,6.66ZM593.75,0H47.31C21.16,0,0,20.68,0,46.19V595c0,25.54,21.16,46.19,47.31,46.19H593.67c26.13,0,47.5-20.65,47.5-46.19V46.19C641.17,20.68,619.8,0,593.67,0Z"/></g></g></svg>