<svg xmlns="http://www.w3.org/2000/svg" viewBox="0 0 394.03 489.37"><defs><style>.cls-1{fill:#c7f0ef;}.cls-2,.cls-4,.cls-6{fill:#fff;}.cls-3,.cls-7{fill:#273043;}.cls-3,.cls-4,.cls-7{stroke:#273043;}.cls-3{stroke-width:9px;}.cls-5{fill:#9197ae;stroke:#9197ae;}.cls-6{stroke:#fff;}</style></defs><title>Asset 4</title><g id="Layer_2" data-name="Layer 2"><g id="Layer_1-2" data-name="Layer 1"><g id="Web_1920_4" data-name="Web 1920 4"><path id="Path_19" data-name="Path 19" class="cls-1" d="M345.1,129.33c32,57.3,48.2,102.2,48.9,161.9s-14.1,134.3-70.4,171-154.2,35.6-220.4.2S2.2,357.33.1,296.53c-2.1-61,28.4-112.9,70.1-172.3C111.8,65,164.6-1.57,214.9,0,265.4,1.93,313,71.93,345.1,129.33Z"/><g id="Group_5" data-name="Group 5"><ellipse id="Ellipse_1" data-name="Ellipse 1" class="cls-2" cx="212.6" cy="343.63" rx="80.5" ry="57.5"/><path id="Path_20" data-name="Path 20" class="cls-3" d="M232.1,301.23l-18.5,15.4s-.3,1.6-14.8,2.6-18.2-3.8-18.2-3.8-8.5-7.3-14.6-12.4a22.74,22.74,0,0,1-3-3.2c-6.9-8.1-18-25.6-18-25.6l-3.9-56.9s4.1-3.3,15.3-12.7,20-20,29.5-32.2,6.1-26.7,9.9-18.9,14.9,14.3,20.3,16.5,30.9,16.5,35.2,19.6,14.8,15.3,16.3,21.3,0,8.2,0,21.8-1.8,22.8-7.6,35.7c-4,8.8-15.4,20.7-22.3,27.4-3.4,3.4-5.6,5.4-5.6,5.4l4.3,23.1s61.4,12.5,63.6,11.5,1.8-11.5,1.6-20.4-5.7-26.5-7.6-37-7.9-73.7-7.9-73.7-3.9-44.3-9.1-58.3-16.7-23.2-37-35.1-45.9-9.2-72.2-5.1a65.19,65.19,0,0,0-40,22.8s-13.4,19.6-16.3,48.4-4.2,62.3-3.3,76.4,3.5,78.2,5.9,79.5,48.4-9.1,48.4-9.1l3.4-20.9"/><path id="Path_27" data-name="Path 27" class="cls-4" d="M237.6,295.93c6.9-6.7,18.3-18.7,22.3-27.4,5.8-12.9,7.6-22.2,7.6-35.7s1.5-15.8,0-21.8-12-18.1-16.3-21.3-29.9-17.5-35.2-19.6-16.5-8.6-20.3-16.5-.4,6.7-9.9,18.9-18.2,22.8-29.5,32.2-15.3,12.7-15.3,12.7c1.7,24.3,3.8,56.2,3.8,56.2s20.6,29,21.1,29.5c6.1,5.2,14.6,12.4,14.6,12.4s3.7,4.8,18.2,3.8,14.8-2.6,14.8-2.6l18.5-15.4Z"/><path id="Path_22" data-name="Path 22" class="cls-3" d="M263.7,330.93l27.3,4.7a66.1,66.1,0,0,0,8.9,0c5.6-.3,8.5,1.2,12.4,4.7s7.9,13.1,7.9,13.1v21l-12.1,62.7H93.8s-12-60.7-13.4-68.4-1.5-13.3,0-19.2,5.3-8.5,8.5-11.1,10.3-3.9,15-3.8a92.35,92.35,0,0,0,11.7-1l33-6.6,4.5,29.8s33.9,15.7,50.3,13.9,41.7-6.7,52.5-13.9l7.8-5.2Z"/><g id="Glasses"><path id="Path_23" data-name="Path 23" class="cls-5" d="M154,207.63s26.7-1.4,39.9,3.7c5.4,2.1,7.5,1.9,9.9,1.9a14.74,14.74,0,0,0,6.9-1.4c2.2-1.3,12.4-3.7,22.2-4.1s30.5.5,32.2,1.3,2.4,9.4,2.4,9.4-2.6-.9-3.5,2.4-1.9,14.9-5.2,19.5-7.3,7.9-14.5,8.4-20.2-1.2-22.7-3.4-7.8-8-9.8-12.7-4.6-10.6-4.6-10.6-1.4-2.1-3.3-2.1-4-.4-5,2.1-5.5,12.9-6.8,14.8-3.8,6.2-6.7,7.8a34.23,34.23,0,0,1-12.9,4.1c-4.8.3-16.1-.5-18.4-2s-5.8-4.1-7.1-7.4-4.5-15-4.5-15l-.7-6.6Z"/><path id="Path_24" data-name="Path 24" class="cls-6" d="M148.6,215.23c-1,1.2-1.4,5.1-1.4,9.3s2.5,11.2,4.1,14.7,6,4.9,11,6,13.8-.6,18.4-2.2,5.6-4,9-9.9A20.92,20.92,0,0,0,192,219c-.3-2.5,0-1.4-4-4.9s-13.1-3-24.7-3.1c-7.7-.1-11.2,1.3-12.7,2.2a3.12,3.12,0,0,0-1.1.9Z"/><path id="Path_26" data-name="Path 26" class="cls-6" d="M232.8,210.73s12.5-.2,16.1.5,7.4,1.6,8.6,3.8a19.14,19.14,0,0,1,1.5,10.3c-.6,3.9-1.9,10-3.5,12.7s-2.9,5.4-7.9,6.3-10.4,2-15.7.7-6.9-1.5-8.8-3.1a24.23,24.23,0,0,1-6.1-8.4,51.58,51.58,0,0,1-2.7-9.5c-.4-2.8-.6-5,0-6.1a8.08,8.08,0,0,1,4.6-4.1,38.18,38.18,0,0,1,9.8-2.5A25.25,25.25,0,0,0,232.8,210.73Z"/></g><g id="Brows"><path id="Path_28" data-name="Path 28" class="cls-7" d="M189.1,207.53s3.2-7.9,0-9.1-16.7-3.4-16.7-3.4l-11.3-1.3s-3.4-.7-7.3,2.3-11.4,9.3-11.4,9.3l8.9-4.1a12.4,12.4,0,0,1,6.3-1.1,39.34,39.34,0,0,1,11.7,2.4c4.2,1.6,8.9,2.8,8.9,2.8s5.2,1.3,7.2,1.6A16.75,16.75,0,0,1,189.1,207.53Z"/><path id="Path_29" data-name="Path 29" class="cls-7" d="M217.7,207.53s-2.3-8.6,0-9.4,20.2-3.6,20.2-3.6,7.5-1.2,10.4-.7,4.8,1.9,7.9,4.3,8.5,7.2,8.5,7.2l-8.5-4s-2.5-1.5-7.9-.9-12.4,3.1-15.2,4a77.42,77.42,0,0,1-8.5,2C220.8,207.23,217.7,207.53,217.7,207.53Z"/></g><g id="Path_32" data-name="Path 32"><path class="cls-1" d="M202.6,483.63a270.25,270.25,0,0,1-45.7-3.7c-6.9-1.2-13.6-2.6-19.9-4.3a167.15,167.15,0,0,1-17.3-5.7,100.25,100.25,0,0,1-14.3-6.9,63.2,63.2,0,0,1-10.7-7.9,30.84,30.84,0,0,1-6.7-8.7,20.53,20.53,0,0,1-2.3-9.2,16,16,0,0,1,2.3-8.4,22.21,22.21,0,0,1,6.7-6.6,50.91,50.91,0,0,1,10.7-5,102.55,102.55,0,0,1,14.3-3.6c9.8-1.8,22-3,37.3-3.7,12.2-.6,26.3-.8,45.7-.8s33.5.3,45.7.8c15.2.7,27.4,1.9,37.3,3.7a102.55,102.55,0,0,1,14.3,3.6,42.71,42.71,0,0,1,10.7,5,21.12,21.12,0,0,1,6.7,6.6,16,16,0,0,1,2.3,8.4,20.53,20.53,0,0,1-2.3,9.2,32.8,32.8,0,0,1-6.7,8.7A58.23,58.23,0,0,1,300,463a100.25,100.25,0,0,1-14.3,6.9,167.15,167.15,0,0,1-17.3,5.7c-6.3,1.7-13,3.1-19.9,4.3A274.36,274.36,0,0,1,202.6,483.63Z"/><path class="cls-1" d="M202.6,483.13a269.06,269.06,0,0,0,45.6-3.7c6.9-1.2,13.6-2.6,19.9-4.3a167.15,167.15,0,0,0,17.3-5.7,94,94,0,0,0,14.2-6.9,63,63,0,0,0,10.7-7.8,30,30,0,0,0,6.6-8.6,20,20,0,0,0,2.3-9,16.49,16.49,0,0,0-2.2-8.2,20.92,20.92,0,0,0-6.5-6.4,47.76,47.76,0,0,0-10.6-4.9,86.7,86.7,0,0,0-14.2-3.5c-9.8-1.8-22-3-37.2-3.7-12.2-.6-26.3-.8-45.7-.8s-33.7.2-45.9.7c-15.2.7-27.4,1.9-37.2,3.7a113.46,113.46,0,0,0-14.2,3.5,47.76,47.76,0,0,0-10.6,4.9,20.9,20.9,0,0,0-6.5,6.4,16.22,16.22,0,0,0-2.3,8.3,19.73,19.73,0,0,0,2.3,9,33.56,33.56,0,0,0,6.6,8.6,58,58,0,0,0,10.7,7.8,98.86,98.86,0,0,0,14.2,6.9,167.15,167.15,0,0,0,17.3,5.7c6.3,1.7,12.9,3.1,19.9,4.3a267,267,0,0,0,45.5,3.7m0,1c-64.9,0-117.5-21-117.5-47s52.6-28.6,117.5-28.6,117.5,2.6,117.5,28.6S267.5,484.13,202.6,484.13Z"/></g></g></g></g></g></svg>