<?xml version="1.0" encoding="utf-8"?>
<!-- Generator: Adobe Illustrator 21.1.0, SVG Export Plug-In . SVG Version: 6.00 Build 0)  -->
<svg version="1.1" id="Layer_1" xmlns="http://www.w3.org/2000/svg" xmlns:xlink="http://www.w3.org/1999/xlink" x="0px" y="0px"
	 viewBox="0 0 511.2 482.4" style="enable-background:new 0 0 511.2 482.4;" xml:space="preserve">
<style type="text/css">
	.st0{fill:#C7F0EF;}
	.st1{fill:#FFFFFF;}
	.st2{fill:url(#SVGID_1_);}
	.st3{filter:url(#Adobe_OpacityMaskFilter);}
	.st4{fill:url(#SVGID_3_);}
	.st5{opacity:0.33;mask:url(#SVGID_2_);fill:url(#SVGID_4_);}
	.st6{fill:url(#SVGID_5_);}
	.st7{fill:url(#SVGID_6_);}
	.st8{fill:url(#SVGID_7_);}
	.st9{fill:url(#SVGID_8_);}
	.st10{fill:url(#SVGID_9_);}
	.st11{fill:url(#SVGID_10_);}
	.st12{fill:#231F20;}
	.st13{fill:url(#SVGID_11_);}
</style>
<title>Path 34</title>
<g id="Layer_2">
	<g id="Layer_1-2">
		<path id="Path_34" class="st0" d="M511.2,247.1c0,120.6-75.9,235.3-203.7,235.3S0,367.8,0,247.1C0,126.6,179.7,0,307.4,0
			S511.2,126.7,511.2,247.1z"/>
	</g>
</g>
<rect x="98.3" y="120" class="st1" width="351" height="204"/>
<g>
	<linearGradient id="SVGID_1_" gradientUnits="userSpaceOnUse" x1="250.5134" y1="219.2813" x2="456.5826" y2="219.2813">
		<stop  offset="0" style="stop-color:#FFFFFF;stop-opacity:0"/>
		<stop  offset="1" style="stop-color:#FFFFFF"/>
	</linearGradient>
	<path class="st2" d="M381.8,109.4h63.8c0,0,12.2,0.1,10.9,12.6l-0.4,207.1H250.5"/>
	<g>
		<defs>
			<filter id="Adobe_OpacityMaskFilter" filterUnits="userSpaceOnUse" x="181.5" y="394.9" width="184.9" height="16.5">
				<feColorMatrix  type="matrix" values="1 0 0 0 0  0 1 0 0 0  0 0 1 0 0  0 0 0 1 0"/>
			</filter>
		</defs>
		<mask maskUnits="userSpaceOnUse" x="181.5" y="394.9" width="184.9" height="16.5" id="SVGID_2_">
			<g class="st3">
				
					<radialGradient id="SVGID_3_" cx="273.9234" cy="1335.6304" r="92.4233" gradientTransform="matrix(1 0 0 8.930000e-02 0 283.9121)" gradientUnits="userSpaceOnUse">
					<stop  offset="0" style="stop-color:#FFFFFF"/>
					<stop  offset="1" style="stop-color:#14130A"/>
				</radialGradient>
				<ellipse class="st4" cx="273.9" cy="403.2" rx="92.4" ry="8.3"/>
			</g>
		</mask>
		<linearGradient id="SVGID_4_" gradientUnits="userSpaceOnUse" x1="273.947" y1="411.417" x2="273.9002" y2="395.0683">
			<stop  offset="0" style="stop-color:#4D4848"/>
			<stop  offset="0.3539" style="stop-color:#14130A"/>
			<stop  offset="1" style="stop-color:#14130A"/>
		</linearGradient>
		<ellipse class="st5" cx="273.9" cy="403.2" rx="92.4" ry="8.3"/>
		<g>
			<linearGradient id="SVGID_5_" gradientUnits="userSpaceOnUse" x1="216.4249" y1="401.7344" x2="333.1978" y2="401.7344">
				<stop  offset="6.060610e-03" style="stop-color:#58595B"/>
				<stop  offset="0.2803" style="stop-color:#757679"/>
				<stop  offset="0.5091" style="stop-color:#88898D"/>
				<stop  offset="1" style="stop-color:#58595B"/>
			</linearGradient>
			<path class="st6" d="M217.1,400v0.2c0,0,0,0.1,0,0.1v0c0,2.1,3.4,3.1,12.5,3.1c17.5,0,36.4,0,43.4,0c1.8,0,2.7,0,2.7,0
				c6.9,0,25.9,0,43.4,0c9,0,12.2-1.1,12.2-3.4h-0.8l0,0H217.1z"/>
			<linearGradient id="SVGID_6_" gradientUnits="userSpaceOnUse" x1="273.7518" y1="358.3495" x2="273.7518" y2="408.1957">
				<stop  offset="8.484850e-02" style="stop-color:#6D6F73"/>
				<stop  offset="0.127" style="stop-color:#97999C"/>
				<stop  offset="0.1841" style="stop-color:#CCCDCE"/>
				<stop  offset="0.2121" style="stop-color:#E0E1E2"/>
				<stop  offset="0.3152" style="stop-color:#A7A9AC"/>
				<stop  offset="0.3893" style="stop-color:#868789"/>
				<stop  offset="0.4606" style="stop-color:#636363"/>
				<stop  offset="0.5264" style="stop-color:#6E6F6F"/>
				<stop  offset="0.6452" style="stop-color:#8B8D8F"/>
				<stop  offset="0.7394" style="stop-color:#A6AAAD"/>
			</linearGradient>
			<path class="st7" d="M319.7,387.1c-8.1-8.2-8.4-25.8-8.4-25.8h-36.2h-2.7h-36.2c0,0-0.3,17.6-8.4,25.8
				c-8.1,8.2-20.7,15.2,1.2,15.2c17.5,0,36.4,0,43.4,0c1.8,0,2.7,0,2.7,0c6.9,0,25.9,0,43.4,0C340.4,402.3,327.8,395.3,319.7,387.1z
				"/>
			<radialGradient id="SVGID_7_" cx="329.3032" cy="421.5001" r="42.0717" gradientUnits="userSpaceOnUse">
				<stop  offset="0" style="stop-color:#FFFFFF"/>
				<stop  offset="1" style="stop-color:#FFFFFF;stop-opacity:0"/>
			</radialGradient>
			<path class="st8" d="M281,402.3c4.5-9.1,18.8-17.7,36.6-19.4c0.8,1.4,1.7,2.5,2.8,3.6c7.9,8.1,20.3,15.8-0.1,15.8H281z"/>
			
				<radialGradient id="SVGID_8_" cx="359.5064" cy="421.5001" r="42.0717" gradientTransform="matrix(-1 0 0 1 578.9258 0)" gradientUnits="userSpaceOnUse">
				<stop  offset="0" style="stop-color:#FFFFFF"/>
				<stop  offset="1" style="stop-color:#FFFFFF;stop-opacity:0"/>
			</radialGradient>
			<path class="st9" d="M267.8,402.3c-4.5-9.1-18.8-17.7-36.6-19.4c-0.8,1.4-1.7,2.5-2.8,3.6c-7.9,8.1-20.3,15.8,0.1,15.8H267.8z"/>
			<linearGradient id="SVGID_9_" gradientUnits="userSpaceOnUse" x1="228.4956" y1="402.8823" x2="319.1065" y2="402.8823">
				<stop  offset="6.060610e-03" style="stop-color:#FFFFFF;stop-opacity:0"/>
				<stop  offset="0.5091" style="stop-color:#FFFFFF"/>
				<stop  offset="1" style="stop-color:#FFFFFF;stop-opacity:0"/>
			</linearGradient>
			<path class="st10" d="M228.5,402.9c7.5-0.1,15.1-0.2,22.7-0.2l22.7-0.1l22.7,0.1l11.3,0.1l11.3,0.1l-11.3,0.1l-11.3,0.1
				l-22.7,0.1l-22.7-0.1C243.6,403.1,236,403,228.5,402.9z"/>
			<linearGradient id="SVGID_10_" gradientUnits="userSpaceOnUse" x1="81.912" y1="357.4688" x2="482.0719" y2="331.2389">
				<stop  offset="0" style="stop-color:#78797D"/>
				<stop  offset="0.3173" style="stop-color:#737478"/>
				<stop  offset="0.4909" style="stop-color:#6D6F73"/>
				<stop  offset="1" style="stop-color:#6D6F73"/>
			</linearGradient>
			<path class="st11" d="M88.4,350.5c0,6.1,5.7,10.8,11.7,10.8h169.8h5.8h169.8c6.1,0,10.9-4.7,10.9-10.8v-21.2H88.4V350.5z"/>
			<path class="st12" d="M445.6,109.4H275.7h-5.8H100.1c-6.1,0-11.7,4.3-11.7,10.4v209.6h368.1V119.8
				C456.4,113.8,451.6,109.4,445.6,109.4z M440.5,313.4H104.3V123.1h336.2V313.4z"/>
			<linearGradient id="SVGID_11_" gradientUnits="userSpaceOnUse" x1="81.9926" y1="357.4611" x2="482.0663" y2="331.2367">
				<stop  offset="0" style="stop-color:#898A8F"/>
				<stop  offset="4.993153e-02" style="stop-color:#909196"/>
				<stop  offset="0.3137" style="stop-color:#B1B2B6"/>
				<stop  offset="0.5663" style="stop-color:#C8CACD"/>
				<stop  offset="0.801" style="stop-color:#D6D8DB"/>
				<stop  offset="1" style="stop-color:#DBDDE0"/>
			</linearGradient>
			<path class="st13" d="M88.4,349.3c0,6.1,5.7,12,11.7,12h169.8h5.8h169.8c6.1,0,10.9-5.9,10.9-12v-19.9H88.4V349.3z"/>
		</g>
	</g>
</g>
<g>
	
		<image style="overflow:visible;" width="500" height="154" xlink:href="5FA8798F.jpg"  transform="matrix(0.5347 0 0 -0.5347 141.2926 271)">
	</image>
</g>
</svg>
