<svg xmlns="http://www.w3.org/2000/svg" viewBox="0 0 360 227.39"><defs><style>.cls-1{fill:#c7f0ef;}</style></defs><title>Asset 9</title><g id="Layer_2" data-name="Layer 2"><g id="Layer_1-2" data-name="Layer 1"><path class="cls-1" d="M279.55,29.95c4.45,3.28,18.87,3.16,30.19,7.45s19.53,13,22,13-.71-8.66-3.15-14.18-4.08-7.84-6.92-14.13-6.91-16.59-13-18.7-18.17-6.37-25,0S275.1,26.67,279.55,29.95Z"/><path class="cls-1" d="M96.38,169.3c76.7,80,176,71.16,216.67,11.27,15.89-23.4,27.63-1,47,28.5V138.36c-20.86-50.73-26.74-102.72-27.78-66.06C330,150,178.94,190.67,104.44,109.17,63.87,64.78,30.34,94.21,0,115.67v43.51C28.58,145,54.48,125.61,96.38,169.3Z"/></g></g></svg>