<svg xmlns="http://www.w3.org/2000/svg" viewBox="0 0 355.59 426.74"><defs><style>.cls-1{fill:#39ccc7;}</style></defs><title>Asset 2</title><g id="Layer_2" data-name="Layer 2"><g id="Layer_1-2" data-name="Layer 1"><path class="cls-1" d="M259.87,220.8c3.9,68.2,22.6,136.8,37.7,139.3s28.9-12.7,28.9-12.7.27,0,.72.16c21.61-30.67,32-65.89,27.28-95.76C347.8,209.58,311.19,178,278,137.38,275.61,153,257.52,179.75,259.87,220.8Z"/><path class="cls-1" d="M203,250.9S179,320.5,179,360c0,15.67-1.94,41.74-5.34,66.74a216.94,216.94,0,0,0,40.9-5.27c-.46-2.09-.89-4.23-1.26-6.47-9.3-56.5-15.7-76-10.3-114.9S203,250.9,203,250.9Z"/><path class="cls-1" d="M71.17,316.6c-2.53,23.13-2.68,60.29-9.83,77.67A150.6,150.6,0,0,0,77.87,405.1a162.63,162.63,0,0,0,39.21,15.61C95.94,363.88,73.26,297.48,71.17,316.6Z"/><path class="cls-1" d="M64.77,193.4c31.4.9,53.4,37,53.4,37s-3.9,102.7,16.2,94.5c7.2-3,11.7-8.8,14.5-15.3,4.1-23.6,4.3-23.4,4.3-23.4s41.5-170.1,98.4-166.2A81.26,81.26,0,0,1,266,122.06q-2.29-3.09-4.52-6.25c-36.3-51.6-60.1-120-78.3-115.6-18.3,4.2-31.1,81.3-67.9,133-18.05,25.41-41.9,44.73-63.19,63.38A24.15,24.15,0,0,1,64.77,193.4Z"/><path class="cls-1" d="M23.17,316.6c.5-64.3-.1-65.7-.1-65.7s4.87-27.61,18.12-44.57c-17.4,16.05-31.8,32.31-37.82,52.27-8.23,27.09-1,61,17.36,90.91C22.07,342.3,23.05,331.93,23.17,316.6Z"/></g></g></svg>