<svg xmlns="http://www.w3.org/2000/svg" viewBox="0 0 1920 474.51"><defs><style>.cls-1{fill:none;}.cls-2{fill:#c7f0ef;}</style></defs><title>Asset 8</title><g id="Layer_2" data-name="Layer 2"><g id="Layer_1-2" data-name="Layer 1"><path class="cls-1" d="M208,176.51c154.7,130,210.4-119.1,275.2-101.6,17,4.6,51.7,73.4,72.4,110.7,98.2,177,307.3-104.1,463.1,42.4,102,95.9,215.6,226.4,416,222.5,105.2-2.1,234.7,32,399.2-155.4a515,515,0,0,1,86.1-80.88V0H0V232.36C64.81,170.89,146.36,124.68,208,176.51Z"/><path class="cls-2" d="M1833.9,295.11c-164.5,187.4-294,153.3-399.2,155.4-200.4,3.9-314-126.6-416-222.5-155.8-146.5-364.9,134.6-463.1-42.4-20.7-37.3-55.4-106.1-72.4-110.7-64.8-17.5-120.5,231.6-275.2,101.6-61.64-51.83-143.19-5.62-208,55.85V474.51H1920V214.24A515,515,0,0,0,1833.9,295.11Z"/></g></g></svg>