<svg xmlns="http://www.w3.org/2000/svg" xmlns:xlink="http://www.w3.org/1999/xlink" viewBox="0 0 595.4 419.2"><defs><style>.cls-1{isolation:isolate;}.cls-2{fill:#c7f0ef;}.cls-3{fill:#fff;}.cls-4,.cls-5{fill:none;stroke:#000;}.cls-4{stroke-width:3px;}.cls-6{fill:#c4c4c4;}.cls-7{fill:#7f7f7f;}.cls-8{fill:#e5e5e5;}.cls-9{fill:#231f20;}.cls-10{mix-blend-mode:overlay;fill:url(#linear-gradient);}</style><linearGradient id="linear-gradient" x1="243.62" y1="194.64" x2="501.82" y2="194.64" gradientTransform="translate(106.54 560.54) rotate(-90)" gradientUnits="userSpaceOnUse"><stop offset="0" stop-color="#fff" stop-opacity="0"/><stop offset="0.09" stop-color="#fff" stop-opacity="0.02"/><stop offset="0.22" stop-color="#fff" stop-opacity="0.09"/><stop offset="0.36" stop-color="#fff" stop-opacity="0.2"/><stop offset="0.51" stop-color="#fff" stop-opacity="0.35"/><stop offset="0.68" stop-color="#fff" stop-opacity="0.54"/><stop offset="0.85" stop-color="#fff" stop-opacity="0.77"/><stop offset="1" stop-color="#fff"/></linearGradient></defs><title>BartenderAsset 1</title><g class="cls-1"><g id="Layer_2" data-name="Layer 2"><g id="Layer_1-2" data-name="Layer 1"><g id="Layer_2-2" data-name="Layer 2"><g id="Layer_1-2-2" data-name="Layer 1-2"><path id="Path_33" data-name="Path 33" class="cls-2" d="M595.4,196.3c0,104.7-146.3,222.9-295.3,222.9S0,301,0,196.3,151.2,0,300.2,0,595.4,91.4,595.4,196.3Z"/></g></g></g><g id="Layer_4" data-name="Layer 4"><rect class="cls-3" x="149.25" y="77.69" width="307.65" height="239.23"/></g><g id="Layer_3" data-name="Layer 3"><rect class="cls-3" x="149.25" y="99.29" width="303.25" height="202.17"/><rect class="cls-4" x="196.32" y="150.78" width="211.64" height="31.59"/><rect class="cls-5" x="195.69" y="214.58" width="212.91" height="48.65"/><path class="cls-6" d="M154.31,122.66l13.27-9.85v19.7Z"/><rect class="cls-6" x="160.62" y="118.87" width="18.95" height="8.21"/><path d="M273.72,164.64a2.67,2.67,0,0,1-.06.61,2.55,2.55,0,0,1,.06.61,2.67,2.67,0,0,1-.06.61H273a2.55,2.55,0,0,1,.06.61,2.67,2.67,0,0,1-.06.61h-3a2.55,2.55,0,0,1,.06.61,2.67,2.67,0,0,1-.06.61,2.55,2.55,0,0,1,.06.61,2.67,2.67,0,0,1-.06.61,2.55,2.55,0,0,1,.06.61,2.67,2.67,0,0,1-.06.61H268.8a2.67,2.67,0,0,1-.06-.61,2.55,2.55,0,0,1,.06-.61,2.67,2.67,0,0,1-.06-.61,2.55,2.55,0,0,1,.06-.61,2.67,2.67,0,0,1-.06-.61,2.55,2.55,0,0,1,.06-.61,2.67,2.67,0,0,1-.06-.61,2.55,2.55,0,0,1,.06-.61,2.67,2.67,0,0,1-.06-.61,2.55,2.55,0,0,1,.06-.61,2.67,2.67,0,0,1-.06-.61,2.55,2.55,0,0,1,.06-.61,2.67,2.67,0,0,1-.06-.61,2.55,2.55,0,0,1,.06-.61H273a2.55,2.55,0,0,1,.06.61,2.67,2.67,0,0,1-.06.61h.61A2.55,2.55,0,0,1,273.72,164.64Zm-1.27,1.82a2.67,2.67,0,0,1-.06-.61,2.55,2.55,0,0,1,.06-.61,2.67,2.67,0,0,1-.06-.61,2.55,2.55,0,0,1,.06-.61H270a2.55,2.55,0,0,1,.06.61,2.67,2.67,0,0,1-.06.61,2.55,2.55,0,0,1,.06.61,2.67,2.67,0,0,1-.06.61Zm10.07,3a2.67,2.67,0,0,1-.06.61H284a2.55,2.55,0,0,1,.06.61,2.67,2.67,0,0,1-.06.61h-2.43a2.67,2.67,0,0,1-.06-.61,2.55,2.55,0,0,1,.06-.61h-.76a2.67,2.67,0,0,1-.06-.61,2.55,2.55,0,0,1,.06-.61,2.67,2.67,0,0,1-.06-.61,2.55,2.55,0,0,1,.06-.61,2.67,2.67,0,0,1-.06-.61,2.55,2.55,0,0,1,.06-.61,2.67,2.67,0,0,1-.06-.61,2.55,2.55,0,0,1,.06-.61H282a2.55,2.55,0,0,1,.06.61,2.67,2.67,0,0,1-.06.61,2.55,2.55,0,0,1,.06.61,2.67,2.67,0,0,1-.06.61,2.55,2.55,0,0,1,.06.61,2.67,2.67,0,0,1-.06.61h.45A2.55,2.55,0,0,1,282.52,169.49Zm3.12-3a2.55,2.55,0,0,1,.06.61,2.67,2.67,0,0,1-.06.61,2.55,2.55,0,0,1,.06.61,2.67,2.67,0,0,1-.06.61,2.55,2.55,0,0,1,.06.61,2.67,2.67,0,0,1-.06.61,2.55,2.55,0,0,1,.06.61,2.67,2.67,0,0,1-.06.61h-1.21a2.67,2.67,0,0,1-.06-.61,2.55,2.55,0,0,1,.06-.61H284a2.67,2.67,0,0,1-.06-.61,2.55,2.55,0,0,1,.06-.61h.45a2.67,2.67,0,0,1-.06-.61,2.55,2.55,0,0,1,.06-.61,2.67,2.67,0,0,1-.06-.61,2.55,2.55,0,0,1,.06-.61,2.67,2.67,0,0,1-.06-.61,2.55,2.55,0,0,1,.06-.61h1.21a2.55,2.55,0,0,1,.06.61A2.67,2.67,0,0,1,285.64,166.46Zm8-.61a2.67,2.67,0,0,1-.06.61H294a2.55,2.55,0,0,1,.06.61,2.67,2.67,0,0,1-.06.61,2.55,2.55,0,0,1,.06.61,2.67,2.67,0,0,1-.06.61,2.55,2.55,0,0,1,.06.61,2.67,2.67,0,0,1-.06.61,2.55,2.55,0,0,1,.06.61,2.67,2.67,0,0,1-.06.61h-1.21a2.67,2.67,0,0,1-.06-.61,2.55,2.55,0,0,1,.06-.61,2.67,2.67,0,0,1-.06-.61,2.55,2.55,0,0,1,.06-.61,2.67,2.67,0,0,1-.06-.61,2.55,2.55,0,0,1,.06-.61,2.67,2.67,0,0,1-.06-.61,2.55,2.55,0,0,1,.06-.61,2.67,2.67,0,0,1-.06-.61,2.55,2.55,0,0,1,.06-.61h.76A2.55,2.55,0,0,1,293.59,165.85Zm1.67,0a2.67,2.67,0,0,1-.06.61h.45a2.55,2.55,0,0,1,.06.61,2.67,2.67,0,0,1-.06.61,2.55,2.55,0,0,1,.06.61,2.67,2.67,0,0,1-.06.61,2.55,2.55,0,0,1,.06.61,2.67,2.67,0,0,1-.06.61,2.55,2.55,0,0,1,.06.61,2.67,2.67,0,0,1-.06.61h-.91a2.67,2.67,0,0,1-.06-.61,2.55,2.55,0,0,1,.06-.61,2.67,2.67,0,0,1-.06-.61,2.55,2.55,0,0,1,.06-.61,2.67,2.67,0,0,1-.06-.61,2.55,2.55,0,0,1,.06-.61,2.67,2.67,0,0,1-.06-.61,2.55,2.55,0,0,1,.06-.61H294a2.67,2.67,0,0,1-.06-.61,2.55,2.55,0,0,1,.06-.61h1.21A2.55,2.55,0,0,1,295.26,165.85Zm2.37,1.82a2.55,2.55,0,0,1,.06.61,2.67,2.67,0,0,1-.06.61,2.55,2.55,0,0,1,.06.61,2.67,2.67,0,0,1-.06.61,2.55,2.55,0,0,1,.06.61,2.67,2.67,0,0,1-.06.61h-1.21a2.67,2.67,0,0,1-.06-.61,2.55,2.55,0,0,1,.06-.61,2.67,2.67,0,0,1-.06-.61,2.55,2.55,0,0,1,.06-.61,2.67,2.67,0,0,1-.06-.61,2.55,2.55,0,0,1,.06-.61,2.67,2.67,0,0,1-.06-.61,2.55,2.55,0,0,1,.06-.61h-.76a2.67,2.67,0,0,1-.06-.61,2.55,2.55,0,0,1,.06-.61H297a2.55,2.55,0,0,1,.06.61,2.67,2.67,0,0,1-.06.61h.61a2.55,2.55,0,0,1,.06.61A2.67,2.67,0,0,1,297.62,167.67Zm12,.61a2.67,2.67,0,0,1-.06.61H309a2.55,2.55,0,0,1,.06.61,2.67,2.67,0,0,1-.06.61h-.61a2.55,2.55,0,0,1,.06.61,2.67,2.67,0,0,1-.06.61H306a2.55,2.55,0,0,1,.06.61,2.67,2.67,0,0,1-.06.61,2.55,2.55,0,0,1,.06.61,2.67,2.67,0,0,1-.06.61h-1.21a2.67,2.67,0,0,1-.06-.61,2.55,2.55,0,0,1,.06-.61,2.67,2.67,0,0,1-.06-.61,2.55,2.55,0,0,1,.06-.61,2.67,2.67,0,0,1-.06-.61,2.55,2.55,0,0,1,.06-.61,2.67,2.67,0,0,1-.06-.61,2.55,2.55,0,0,1,.06-.61,2.67,2.67,0,0,1-.06-.61,2.55,2.55,0,0,1,.06-.61,2.67,2.67,0,0,1-.06-.61,2.55,2.55,0,0,1,.06-.61,2.67,2.67,0,0,1-.06-.61,2.55,2.55,0,0,1,.06-.61H306a2.55,2.55,0,0,1,.06.61,2.67,2.67,0,0,1-.06.61h.61a2.55,2.55,0,0,1,.06.61,2.67,2.67,0,0,1-.06.61H306a2.55,2.55,0,0,1,.06.61,2.67,2.67,0,0,1-.06.61,2.55,2.55,0,0,1,.06.61,2.67,2.67,0,0,1-.06.61h1.82a2.67,2.67,0,0,1-.06-.61,2.55,2.55,0,0,1,.06-.61h.61a2.67,2.67,0,0,1-.06-.61,2.55,2.55,0,0,1,.06-.61h-.61a2.67,2.67,0,0,1-.06-.61,2.55,2.55,0,0,1,.06-.61h-1.21a2.67,2.67,0,0,1-.06-.61,2.55,2.55,0,0,1,.06-.61h1.82a2.55,2.55,0,0,1,.06.61,2.67,2.67,0,0,1-.06.61H309a2.55,2.55,0,0,1,.06.61,2.67,2.67,0,0,1-.06.61h.61A2.55,2.55,0,0,1,309.67,168.28ZM333,170.1a2.55,2.55,0,0,1,.06.61,2.67,2.67,0,0,1-.06.61h-3.64a2.67,2.67,0,0,1-.06-.61,2.55,2.55,0,0,1,.06-.61h1.21a2.67,2.67,0,0,1-.06-.61,2.55,2.55,0,0,1,.06-.61,2.67,2.67,0,0,1-.06-.61,2.55,2.55,0,0,1,.06-.61,2.67,2.67,0,0,1-.06-.61,2.55,2.55,0,0,1,.06-.61,2.67,2.67,0,0,1-.06-.61,2.55,2.55,0,0,1,.06-.61h-.91a2.67,2.67,0,0,1-.06-.61,2.55,2.55,0,0,1,.06-.61h.91a2.67,2.67,0,0,1-.06-.61,2.55,2.55,0,0,1,.06-.61h1.21a2.55,2.55,0,0,1,.06.61,2.67,2.67,0,0,1-.06.61,2.55,2.55,0,0,1,.06.61,2.67,2.67,0,0,1-.06.61,2.55,2.55,0,0,1,.06.61,2.67,2.67,0,0,1-.06.61,2.55,2.55,0,0,1,.06.61,2.67,2.67,0,0,1-.06.61,2.55,2.55,0,0,1,.06.61,2.67,2.67,0,0,1-.06.61,2.55,2.55,0,0,1,.06.61,2.67,2.67,0,0,1-.06.61Z"/><path d="M188.9,122.91a1.59,1.59,0,0,1,0,.38,1.67,1.67,0,0,1,0,.38,1.59,1.59,0,0,1,0,.38,1.67,1.67,0,0,1,0,.38h-.38a1.59,1.59,0,0,1,0,.38,1.67,1.67,0,0,1,0,.38h-2.27a1.67,1.67,0,0,1,0-.38,1.59,1.59,0,0,1,0-.38h-.38a1.67,1.67,0,0,1,0-.38,1.59,1.59,0,0,1,0-.38h.76a1.59,1.59,0,0,1,0,.38,1.67,1.67,0,0,1,0,.38h1.52a1.67,1.67,0,0,1,0-.38,1.59,1.59,0,0,1,0-.38,1.67,1.67,0,0,1,0-.38,1.59,1.59,0,0,1,0-.38h-1.9a1.67,1.67,0,0,1,0-.38,1.59,1.59,0,0,1,0-.38h-.38a1.67,1.67,0,0,1,0-.38,1.59,1.59,0,0,1,0-.38,1.67,1.67,0,0,1,0-.38,1.59,1.59,0,0,1,0-.38h.38a1.67,1.67,0,0,1,0-.38,1.59,1.59,0,0,1,0-.38h2.27a1.59,1.59,0,0,1,0,.38,1.67,1.67,0,0,1,0,.38h.38a1.59,1.59,0,0,1,0,.38,1.67,1.67,0,0,1,0,.38h-.76a1.67,1.67,0,0,1,0-.38,1.59,1.59,0,0,1,0-.38h-1.52a1.59,1.59,0,0,1,0,.38,1.67,1.67,0,0,1,0,.38,1.59,1.59,0,0,1,0,.38,1.67,1.67,0,0,1,0,.38h1.9a1.59,1.59,0,0,1,0,.38,1.67,1.67,0,0,1,0,.38Zm7.53-.38a1.67,1.67,0,0,1,0,.38,1.59,1.59,0,0,1,0,.38,1.67,1.67,0,0,1,0,.38h-2a1.59,1.59,0,0,1,0,.38,1.67,1.67,0,0,1,0,.38H196a1.59,1.59,0,0,1,0,.38,1.67,1.67,0,0,1,0,.38h-1.9a1.67,1.67,0,0,1,0-.38,1.59,1.59,0,0,1,0-.38h-.47a1.67,1.67,0,0,1,0-.38,1.59,1.59,0,0,1,0-.38h-.28a1.67,1.67,0,0,1,0-.38,1.59,1.59,0,0,1,0-.38h.28a1.67,1.67,0,0,1,0-.38,1.59,1.59,0,0,1,0-.38h.47a1.67,1.67,0,0,1,0-.38,1.59,1.59,0,0,1,0-.38H196a1.59,1.59,0,0,1,0,.38,1.67,1.67,0,0,1,0,.38h.38A1.59,1.59,0,0,1,196.43,122.54Zm-.8.38a1.67,1.67,0,0,1,0-.38,1.59,1.59,0,0,1,0-.38H194.4a1.59,1.59,0,0,1,0,.38,1.67,1.67,0,0,1,0,.38Zm7.87,1.52a1.59,1.59,0,0,1,0,.38,1.67,1.67,0,0,1,0,.38H202a1.67,1.67,0,0,1,0-.38,1.59,1.59,0,0,1,0-.38h-.38a1.67,1.67,0,0,1,0-.38,1.59,1.59,0,0,1,0-.38,1.67,1.67,0,0,1,0-.38,1.59,1.59,0,0,1,0-.38,1.67,1.67,0,0,1,0-.38,1.59,1.59,0,0,1,0-.38h-.76a1.67,1.67,0,0,1,0-.38,1.59,1.59,0,0,1,0-.38h.76a1.67,1.67,0,0,1,0-.38,1.59,1.59,0,0,1,0-.38,1.67,1.67,0,0,1,0-.38,1.59,1.59,0,0,1,0-.38h.76a1.59,1.59,0,0,1,0,.38,1.67,1.67,0,0,1,0,.38,1.59,1.59,0,0,1,0,.38,1.67,1.67,0,0,1,0,.38h1.14a1.59,1.59,0,0,1,0,.38,1.67,1.67,0,0,1,0,.38h-1.14a1.59,1.59,0,0,1,0,.38,1.67,1.67,0,0,1,0,.38,1.59,1.59,0,0,1,0,.38,1.67,1.67,0,0,1,0,.38,1.59,1.59,0,0,1,0,.38,1.67,1.67,0,0,1,0,.38Zm7.49,0a1.59,1.59,0,0,1,0,.38,1.67,1.67,0,0,1,0,.38h-1.52a1.67,1.67,0,0,1,0-.38,1.59,1.59,0,0,1,0-.38h-.38a1.67,1.67,0,0,1,0-.38,1.59,1.59,0,0,1,0-.38,1.67,1.67,0,0,1,0-.38,1.59,1.59,0,0,1,0-.38,1.67,1.67,0,0,1,0-.38,1.59,1.59,0,0,1,0-.38h-.76a1.67,1.67,0,0,1,0-.38,1.59,1.59,0,0,1,0-.38h.76a1.67,1.67,0,0,1,0-.38,1.59,1.59,0,0,1,0-.38,1.67,1.67,0,0,1,0-.38,1.59,1.59,0,0,1,0-.38h.76a1.59,1.59,0,0,1,0,.38,1.67,1.67,0,0,1,0,.38,1.59,1.59,0,0,1,0,.38,1.67,1.67,0,0,1,0,.38H211a1.59,1.59,0,0,1,0,.38,1.67,1.67,0,0,1,0,.38h-1.14a1.59,1.59,0,0,1,0,.38,1.67,1.67,0,0,1,0,.38,1.59,1.59,0,0,1,0,.38,1.67,1.67,0,0,1,0,.38,1.59,1.59,0,0,1,0,.38,1.67,1.67,0,0,1,0,.38Zm6-3.79a1.67,1.67,0,0,1,0-.38,1.59,1.59,0,0,1,0-.38h.76a1.59,1.59,0,0,1,0,.38,1.67,1.67,0,0,1,0,.38Zm1.52,3.79a1.59,1.59,0,0,1,0,.38,1.67,1.67,0,0,1,0,.38h-2.27a1.67,1.67,0,0,1,0-.38,1.59,1.59,0,0,1,0-.38H217a1.67,1.67,0,0,1,0-.38,1.59,1.59,0,0,1,0-.38,1.67,1.67,0,0,1,0-.38,1.59,1.59,0,0,1,0-.38,1.67,1.67,0,0,1,0-.38,1.59,1.59,0,0,1,0-.38h-.57a1.67,1.67,0,0,1,0-.38,1.59,1.59,0,0,1,0-.38h1.33a1.59,1.59,0,0,1,0,.38,1.67,1.67,0,0,1,0,.38,1.59,1.59,0,0,1,0,.38,1.67,1.67,0,0,1,0,.38,1.59,1.59,0,0,1,0,.38,1.67,1.67,0,0,1,0,.38,1.59,1.59,0,0,1,0,.38,1.67,1.67,0,0,1,0,.38Zm5.54-2.65a1.67,1.67,0,0,1,0,.38h.38a1.59,1.59,0,0,1,0,.38,1.67,1.67,0,0,1,0,.38h-.28a1.59,1.59,0,0,1,0,.38,1.67,1.67,0,0,1,0,.38,1.59,1.59,0,0,1,0,.38,1.67,1.67,0,0,1,0,.38,1.59,1.59,0,0,1,0,.38,1.67,1.67,0,0,1,0,.38h-.76a1.67,1.67,0,0,1,0-.38,1.59,1.59,0,0,1,0-.38,1.67,1.67,0,0,1,0-.38,1.59,1.59,0,0,1,0-.38,1.67,1.67,0,0,1,0-.38,1.59,1.59,0,0,1,0-.38,1.67,1.67,0,0,1,0-.38,1.59,1.59,0,0,1,0-.38,1.67,1.67,0,0,1,0-.38,1.59,1.59,0,0,1,0-.38H224A1.59,1.59,0,0,1,224,121.78Zm2.33,1.14a1.59,1.59,0,0,1,0,.38,1.67,1.67,0,0,1,0,.38,1.59,1.59,0,0,1,0,.38,1.67,1.67,0,0,1,0,.38,1.59,1.59,0,0,1,0,.38,1.67,1.67,0,0,1,0,.38h-.76a1.67,1.67,0,0,1,0-.38,1.59,1.59,0,0,1,0-.38,1.67,1.67,0,0,1,0-.38,1.59,1.59,0,0,1,0-.38,1.67,1.67,0,0,1,0-.38,1.59,1.59,0,0,1,0-.38,1.67,1.67,0,0,1,0-.38,1.59,1.59,0,0,1,0-.38h-1.23a1.67,1.67,0,0,1,0-.38,1.59,1.59,0,0,1,0-.38h1.52a1.59,1.59,0,0,1,0,.38,1.67,1.67,0,0,1,0,.38h.47a1.59,1.59,0,0,1,0,.38A1.67,1.67,0,0,1,226.35,122.91Zm7.49-.76a1.59,1.59,0,0,1,0,.38,1.67,1.67,0,0,1,0,.38,1.59,1.59,0,0,1,0,.38,1.67,1.67,0,0,1,0,.38,1.59,1.59,0,0,1,0,.38,1.67,1.67,0,0,1,0,.38,1.59,1.59,0,0,1,0,.38,1.67,1.67,0,0,1,0,.38h-.38a1.59,1.59,0,0,1,0,.38,1.67,1.67,0,0,1,0,.38h-.38a1.59,1.59,0,0,1,0,.38,1.67,1.67,0,0,1,0,.38h-1.52a1.67,1.67,0,0,1,0-.38,1.59,1.59,0,0,1,0-.38h1.14a1.67,1.67,0,0,1,0-.38,1.59,1.59,0,0,1,0-.38h.38a1.67,1.67,0,0,1,0-.38,1.59,1.59,0,0,1,0-.38h-.38a1.67,1.67,0,0,1,0-.38,1.59,1.59,0,0,1,0-.38h.38a1.67,1.67,0,0,1,0-.38,1.59,1.59,0,0,1,0-.38,1.67,1.67,0,0,1,0-.38,1.59,1.59,0,0,1,0-.38h-1.23a1.59,1.59,0,0,1,0,.38,1.67,1.67,0,0,1,0,.38h-.28a1.59,1.59,0,0,1,0,.38,1.67,1.67,0,0,1,0,.38h.28a1.59,1.59,0,0,1,0,.38,1.67,1.67,0,0,1,0,.38h.85a1.59,1.59,0,0,1,0,.38,1.67,1.67,0,0,1,0,.38h-1.14a1.67,1.67,0,0,1,0-.38,1.59,1.59,0,0,1,0-.38h-.47a1.67,1.67,0,0,1,0-.38,1.59,1.59,0,0,1,0-.38h-.28a1.67,1.67,0,0,1,0-.38,1.59,1.59,0,0,1,0-.38h.28a1.67,1.67,0,0,1,0-.38,1.59,1.59,0,0,1,0-.38h.47a1.67,1.67,0,0,1,0-.38,1.59,1.59,0,0,1,0-.38h2.27a1.59,1.59,0,0,1,0,.38A1.67,1.67,0,0,1,233.84,122.16Zm7.34,1.9a1.67,1.67,0,0,1,0,.38h-.38a1.59,1.59,0,0,1,0,.38,1.67,1.67,0,0,1,0,.38h-2.08a1.67,1.67,0,0,1,0-.38,1.59,1.59,0,0,1,0-.38h1.71a1.67,1.67,0,0,1,0-.38,1.59,1.59,0,0,1,0-.38h-1.52a1.67,1.67,0,0,1,0-.38,1.59,1.59,0,0,1,0-.38h-.38a1.67,1.67,0,0,1,0-.38,1.59,1.59,0,0,1,0-.38h.38a1.67,1.67,0,0,1,0-.38,1.59,1.59,0,0,1,0-.38H241a1.59,1.59,0,0,1,0,.38,1.67,1.67,0,0,1,0,.38h-1.71a1.59,1.59,0,0,1,0,.38,1.67,1.67,0,0,1,0,.38h1.52a1.59,1.59,0,0,1,0,.38,1.67,1.67,0,0,1,0,.38h.38A1.59,1.59,0,0,1,241.18,124.05Zm15.13-3.41a1.59,1.59,0,0,1,0,.38,1.67,1.67,0,0,1,0,.38,1.59,1.59,0,0,1,0,.38,1.67,1.67,0,0,1,0,.38,1.59,1.59,0,0,1,0,.38,1.67,1.67,0,0,1,0,.38,1.59,1.59,0,0,1,0,.38,1.67,1.67,0,0,1,0,.38,1.59,1.59,0,0,1,0,.38,1.67,1.67,0,0,1,0,.38,1.59,1.59,0,0,1,0,.38,1.67,1.67,0,0,1,0,.38h-.76a1.67,1.67,0,0,1,0-.38,1.59,1.59,0,0,1,0-.38,1.67,1.67,0,0,1,0-.38,1.59,1.59,0,0,1,0-.38,1.67,1.67,0,0,1,0-.38,1.59,1.59,0,0,1,0-.38,1.67,1.67,0,0,1,0-.38,1.59,1.59,0,0,1,0-.38,1.67,1.67,0,0,1,0-.38,1.59,1.59,0,0,1,0-.38h-.28a1.59,1.59,0,0,1,0,.38,1.67,1.67,0,0,1,0,.38,1.59,1.59,0,0,1,0,.38,1.67,1.67,0,0,1,0,.38h-.19a1.59,1.59,0,0,1,0,.38,1.67,1.67,0,0,1,0,.38,1.59,1.59,0,0,1,0,.38,1.67,1.67,0,0,1,0,.38h-.57a1.67,1.67,0,0,1,0-.38,1.59,1.59,0,0,1,0-.38,1.67,1.67,0,0,1,0-.38,1.59,1.59,0,0,1,0-.38h-.19a1.67,1.67,0,0,1,0-.38,1.59,1.59,0,0,1,0-.38,1.67,1.67,0,0,1,0-.38,1.59,1.59,0,0,1,0-.38H254a1.59,1.59,0,0,1,0,.38,1.67,1.67,0,0,1,0,.38,1.59,1.59,0,0,1,0,.38,1.67,1.67,0,0,1,0,.38,1.59,1.59,0,0,1,0,.38,1.67,1.67,0,0,1,0,.38,1.59,1.59,0,0,1,0,.38,1.67,1.67,0,0,1,0,.38,1.59,1.59,0,0,1,0,.38,1.67,1.67,0,0,1,0,.38h-.76a1.67,1.67,0,0,1,0-.38,1.59,1.59,0,0,1,0-.38,1.67,1.67,0,0,1,0-.38,1.59,1.59,0,0,1,0-.38,1.67,1.67,0,0,1,0-.38,1.59,1.59,0,0,1,0-.38,1.67,1.67,0,0,1,0-.38,1.59,1.59,0,0,1,0-.38,1.67,1.67,0,0,1,0-.38,1.59,1.59,0,0,1,0-.38,1.67,1.67,0,0,1,0-.38,1.59,1.59,0,0,1,0-.38,1.67,1.67,0,0,1,0-.38,1.59,1.59,0,0,1,0-.38h.95a1.59,1.59,0,0,1,0,.38,1.67,1.67,0,0,1,0,.38h.28a1.59,1.59,0,0,1,0,.38,1.67,1.67,0,0,1,0,.38h.14a1.59,1.59,0,0,1,0,.38,1.67,1.67,0,0,1,0,.38h.28a1.67,1.67,0,0,1,0-.38,1.59,1.59,0,0,1,0-.38h.14a1.67,1.67,0,0,1,0-.38,1.59,1.59,0,0,1,0-.38h.28a1.67,1.67,0,0,1,0-.38,1.59,1.59,0,0,1,0-.38h.95a1.59,1.59,0,0,1,0,.38A1.67,1.67,0,0,1,256.31,120.64Zm7.53,1.9a1.67,1.67,0,0,1,0,.38,1.59,1.59,0,0,1,0,.38,1.67,1.67,0,0,1,0,.38h-2a1.59,1.59,0,0,1,0,.38,1.67,1.67,0,0,1,0,.38h1.61a1.59,1.59,0,0,1,0,.38,1.67,1.67,0,0,1,0,.38h-1.9a1.67,1.67,0,0,1,0-.38,1.59,1.59,0,0,1,0-.38h-.47a1.67,1.67,0,0,1,0-.38,1.59,1.59,0,0,1,0-.38h-.28a1.67,1.67,0,0,1,0-.38,1.59,1.59,0,0,1,0-.38h.28a1.67,1.67,0,0,1,0-.38,1.59,1.59,0,0,1,0-.38h.47a1.67,1.67,0,0,1,0-.38,1.59,1.59,0,0,1,0-.38h1.9a1.59,1.59,0,0,1,0,.38,1.67,1.67,0,0,1,0,.38h.38A1.59,1.59,0,0,1,263.84,122.54Zm-.8.38a1.67,1.67,0,0,1,0-.38,1.59,1.59,0,0,1,0-.38h-1.23a1.59,1.59,0,0,1,0,.38,1.67,1.67,0,0,1,0,.38Zm5.92-1.14a1.67,1.67,0,0,1,0,.38h.38a1.59,1.59,0,0,1,0,.38,1.67,1.67,0,0,1,0,.38H269a1.59,1.59,0,0,1,0,.38,1.67,1.67,0,0,1,0,.38,1.59,1.59,0,0,1,0,.38,1.67,1.67,0,0,1,0,.38,1.59,1.59,0,0,1,0,.38,1.67,1.67,0,0,1,0,.38h-.76a1.67,1.67,0,0,1,0-.38,1.59,1.59,0,0,1,0-.38,1.67,1.67,0,0,1,0-.38,1.59,1.59,0,0,1,0-.38,1.67,1.67,0,0,1,0-.38,1.59,1.59,0,0,1,0-.38,1.67,1.67,0,0,1,0-.38,1.59,1.59,0,0,1,0-.38,1.67,1.67,0,0,1,0-.38,1.59,1.59,0,0,1,0-.38h.66A1.59,1.59,0,0,1,269,121.78Zm2.33,1.14a1.59,1.59,0,0,1,0,.38,1.67,1.67,0,0,1,0,.38,1.59,1.59,0,0,1,0,.38,1.67,1.67,0,0,1,0,.38,1.59,1.59,0,0,1,0,.38,1.67,1.67,0,0,1,0,.38h-.76a1.67,1.67,0,0,1,0-.38,1.59,1.59,0,0,1,0-.38,1.67,1.67,0,0,1,0-.38,1.59,1.59,0,0,1,0-.38,1.67,1.67,0,0,1,0-.38,1.59,1.59,0,0,1,0-.38,1.67,1.67,0,0,1,0-.38,1.59,1.59,0,0,1,0-.38H269.3a1.67,1.67,0,0,1,0-.38,1.59,1.59,0,0,1,0-.38h1.52a1.59,1.59,0,0,1,0,.38,1.67,1.67,0,0,1,0,.38h.47a1.59,1.59,0,0,1,0,.38A1.67,1.67,0,0,1,271.29,122.91Zm5.54,1.14a1.67,1.67,0,0,1,0,.38h.95a1.59,1.59,0,0,1,0,.38,1.67,1.67,0,0,1,0,.38h-1.52a1.67,1.67,0,0,1,0-.38,1.59,1.59,0,0,1,0-.38h-.47a1.67,1.67,0,0,1,0-.38,1.59,1.59,0,0,1,0-.38,1.67,1.67,0,0,1,0-.38,1.59,1.59,0,0,1,0-.38,1.67,1.67,0,0,1,0-.38,1.59,1.59,0,0,1,0-.38,1.67,1.67,0,0,1,0-.38,1.59,1.59,0,0,1,0-.38h.76a1.59,1.59,0,0,1,0,.38,1.67,1.67,0,0,1,0,.38,1.59,1.59,0,0,1,0,.38,1.67,1.67,0,0,1,0,.38,1.59,1.59,0,0,1,0,.38,1.67,1.67,0,0,1,0,.38h.28A1.59,1.59,0,0,1,276.83,124.05Zm2-1.9a1.59,1.59,0,0,1,0,.38,1.67,1.67,0,0,1,0,.38,1.59,1.59,0,0,1,0,.38,1.67,1.67,0,0,1,0,.38,1.59,1.59,0,0,1,0,.38,1.67,1.67,0,0,1,0,.38,1.59,1.59,0,0,1,0,.38,1.67,1.67,0,0,1,0,.38H278a1.67,1.67,0,0,1,0-.38,1.59,1.59,0,0,1,0-.38h-.28a1.67,1.67,0,0,1,0-.38,1.59,1.59,0,0,1,0-.38H278a1.67,1.67,0,0,1,0-.38,1.59,1.59,0,0,1,0-.38,1.67,1.67,0,0,1,0-.38,1.59,1.59,0,0,1,0-.38,1.67,1.67,0,0,1,0-.38,1.59,1.59,0,0,1,0-.38h.76a1.59,1.59,0,0,1,0,.38A1.67,1.67,0,0,1,278.78,122.16Z"/><path class="cls-7" d="M199,139.34a1.67,1.67,0,0,1,0,.38,1.59,1.59,0,0,1,0,.38,1.67,1.67,0,0,1,0,.38h-.38a1.59,1.59,0,0,1,0,.38,1.67,1.67,0,0,1,0,.38h-1.9a1.59,1.59,0,0,1,0,.38,1.67,1.67,0,0,1,0,.38,1.59,1.59,0,0,1,0,.38,1.67,1.67,0,0,1,0,.38,1.59,1.59,0,0,1,0,.38,1.67,1.67,0,0,1,0,.38h-.76a1.67,1.67,0,0,1,0-.38,1.59,1.59,0,0,1,0-.38,1.67,1.67,0,0,1,0-.38,1.59,1.59,0,0,1,0-.38,1.67,1.67,0,0,1,0-.38,1.59,1.59,0,0,1,0-.38,1.67,1.67,0,0,1,0-.38,1.59,1.59,0,0,1,0-.38,1.67,1.67,0,0,1,0-.38,1.59,1.59,0,0,1,0-.38,1.67,1.67,0,0,1,0-.38,1.59,1.59,0,0,1,0-.38,1.67,1.67,0,0,1,0-.38,1.59,1.59,0,0,1,0-.38h2.65a1.59,1.59,0,0,1,0,.38,1.67,1.67,0,0,1,0,.38h.38A1.59,1.59,0,0,1,199,139.34Zm-.8,1.14a1.67,1.67,0,0,1,0-.38,1.59,1.59,0,0,1,0-.38,1.67,1.67,0,0,1,0-.38,1.59,1.59,0,0,1,0-.38h-1.52a1.59,1.59,0,0,1,0,.38,1.67,1.67,0,0,1,0,.38,1.59,1.59,0,0,1,0,.38,1.67,1.67,0,0,1,0,.38Zm8.25,0a1.59,1.59,0,0,1,0,.38,1.67,1.67,0,0,1,0,.38h-.76a1.67,1.67,0,0,1,0-.38,1.59,1.59,0,0,1,0-.38H205a1.59,1.59,0,0,1,0,.38,1.67,1.67,0,0,1,0,.38h-.28a1.59,1.59,0,0,1,0,.38,1.67,1.67,0,0,1,0,.38,1.59,1.59,0,0,1,0,.38,1.67,1.67,0,0,1,0,.38h.57a1.59,1.59,0,0,1,0,.38,1.67,1.67,0,0,1,0,.38h-1.9a1.67,1.67,0,0,1,0-.38,1.59,1.59,0,0,1,0-.38H204a1.67,1.67,0,0,1,0-.38,1.59,1.59,0,0,1,0-.38,1.67,1.67,0,0,1,0-.38,1.59,1.59,0,0,1,0-.38,1.67,1.67,0,0,1,0-.38,1.59,1.59,0,0,1,0-.38h-.57a1.67,1.67,0,0,1,0-.38,1.59,1.59,0,0,1,0-.38h.95a1.59,1.59,0,0,1,0,.38,1.67,1.67,0,0,1,0,.38h.38a1.67,1.67,0,0,1,0-.38,1.59,1.59,0,0,1,0-.38h1.42a1.59,1.59,0,0,1,0,.38,1.67,1.67,0,0,1,0,.38Zm7.53.38a1.67,1.67,0,0,1,0,.38,1.59,1.59,0,0,1,0,.38,1.67,1.67,0,0,1,0,.38h-2a1.59,1.59,0,0,1,0,.38,1.67,1.67,0,0,1,0,.38h1.61a1.59,1.59,0,0,1,0,.38,1.67,1.67,0,0,1,0,.38h-1.9a1.67,1.67,0,0,1,0-.38,1.59,1.59,0,0,1,0-.38h-.47a1.67,1.67,0,0,1,0-.38,1.59,1.59,0,0,1,0-.38h-.28a1.67,1.67,0,0,1,0-.38,1.59,1.59,0,0,1,0-.38h.28a1.67,1.67,0,0,1,0-.38,1.59,1.59,0,0,1,0-.38h.47a1.67,1.67,0,0,1,0-.38,1.59,1.59,0,0,1,0-.38h1.9a1.59,1.59,0,0,1,0,.38,1.67,1.67,0,0,1,0,.38h.38A1.59,1.59,0,0,1,213.94,140.86Zm-.8.38a1.67,1.67,0,0,1,0-.38,1.59,1.59,0,0,1,0-.38h-1.23a1.59,1.59,0,0,1,0,.38,1.67,1.67,0,0,1,0,.38Zm8.1,1.14a1.67,1.67,0,0,1,0,.38h-.38a1.59,1.59,0,0,1,0,.38,1.67,1.67,0,0,1,0,.38h-2.08a1.67,1.67,0,0,1,0-.38,1.59,1.59,0,0,1,0-.38h1.71a1.67,1.67,0,0,1,0-.38,1.59,1.59,0,0,1,0-.38h-1.52a1.67,1.67,0,0,1,0-.38,1.59,1.59,0,0,1,0-.38h-.38a1.67,1.67,0,0,1,0-.38,1.59,1.59,0,0,1,0-.38h.38a1.67,1.67,0,0,1,0-.38,1.59,1.59,0,0,1,0-.38H221a1.59,1.59,0,0,1,0,.38,1.67,1.67,0,0,1,0,.38h-1.71a1.59,1.59,0,0,1,0,.38,1.67,1.67,0,0,1,0,.38h1.52a1.59,1.59,0,0,1,0,.38,1.67,1.67,0,0,1,0,.38h.38A1.59,1.59,0,0,1,221.24,142.37Zm7.49,0a1.67,1.67,0,0,1,0,.38h-.38a1.59,1.59,0,0,1,0,.38,1.67,1.67,0,0,1,0,.38h-2.08a1.67,1.67,0,0,1,0-.38,1.59,1.59,0,0,1,0-.38h1.71a1.67,1.67,0,0,1,0-.38,1.59,1.59,0,0,1,0-.38h-1.52a1.67,1.67,0,0,1,0-.38,1.59,1.59,0,0,1,0-.38H226a1.67,1.67,0,0,1,0-.38,1.59,1.59,0,0,1,0-.38h.38a1.67,1.67,0,0,1,0-.38,1.59,1.59,0,0,1,0-.38h2.08a1.59,1.59,0,0,1,0,.38,1.67,1.67,0,0,1,0,.38H226.8a1.59,1.59,0,0,1,0,.38,1.67,1.67,0,0,1,0,.38h1.52a1.59,1.59,0,0,1,0,.38,1.67,1.67,0,0,1,0,.38h.38A1.59,1.59,0,0,1,228.73,142.37Zm14.75.38a1.59,1.59,0,0,1,0,.38,1.67,1.67,0,0,1,0,.38H242a1.67,1.67,0,0,1,0-.38,1.59,1.59,0,0,1,0-.38h-.38a1.67,1.67,0,0,1,0-.38,1.59,1.59,0,0,1,0-.38,1.67,1.67,0,0,1,0-.38,1.59,1.59,0,0,1,0-.38,1.67,1.67,0,0,1,0-.38,1.59,1.59,0,0,1,0-.38h-.76a1.67,1.67,0,0,1,0-.38,1.59,1.59,0,0,1,0-.38h.76a1.67,1.67,0,0,1,0-.38,1.59,1.59,0,0,1,0-.38,1.67,1.67,0,0,1,0-.38,1.59,1.59,0,0,1,0-.38h.76a1.59,1.59,0,0,1,0,.38,1.67,1.67,0,0,1,0,.38,1.59,1.59,0,0,1,0,.38,1.67,1.67,0,0,1,0,.38h1.14a1.6,1.6,0,0,1,0,.38,1.67,1.67,0,0,1,0,.38h-1.14a1.6,1.6,0,0,1,0,.38,1.67,1.67,0,0,1,0,.38,1.59,1.59,0,0,1,0,.38,1.67,1.67,0,0,1,0,.38,1.6,1.6,0,0,1,0,.38,1.67,1.67,0,0,1,0,.38Zm7.91-1.14a1.67,1.67,0,0,1,0,.38h-.28a1.6,1.6,0,0,1,0,.38,1.67,1.67,0,0,1,0,.38h-.47a1.59,1.59,0,0,1,0,.38,1.67,1.67,0,0,1,0,.38h-1.52a1.67,1.67,0,0,1,0-.38,1.59,1.59,0,0,1,0-.38h-.47a1.67,1.67,0,0,1,0-.38,1.59,1.59,0,0,1,0-.38h-.28a1.67,1.67,0,0,1,0-.38,1.59,1.59,0,0,1,0-.38h.28a1.67,1.67,0,0,1,0-.38,1.59,1.59,0,0,1,0-.38h.47a1.67,1.67,0,0,1,0-.38,1.59,1.59,0,0,1,0-.38h1.52a1.6,1.6,0,0,1,0,.38,1.67,1.67,0,0,1,0,.38h.47a1.6,1.6,0,0,1,0,.38,1.67,1.67,0,0,1,0,.38h.28A1.59,1.59,0,0,1,251.4,141.61Zm-.8.38a1.67,1.67,0,0,1,0-.38,1.59,1.59,0,0,1,0-.38h-.28a1.67,1.67,0,0,1,0-.38,1.59,1.59,0,0,1,0-.38h-.95a1.6,1.6,0,0,1,0,.38,1.67,1.67,0,0,1,0,.38h-.28a1.59,1.59,0,0,1,0,.38,1.67,1.67,0,0,1,0,.38h.28a1.6,1.6,0,0,1,0,.38,1.67,1.67,0,0,1,0,.38h.95a1.67,1.67,0,0,1,0-.38,1.59,1.59,0,0,1,0-.38Zm15.59.38a1.67,1.67,0,0,1,0,.38h-.38a1.59,1.59,0,0,1,0,.38,1.67,1.67,0,0,1,0,.38h-2.08a1.67,1.67,0,0,1,0-.38,1.59,1.59,0,0,1,0-.38h1.71a1.67,1.67,0,0,1,0-.38,1.6,1.6,0,0,1,0-.38h-1.52a1.67,1.67,0,0,1,0-.38,1.59,1.59,0,0,1,0-.38h-.38a1.67,1.67,0,0,1,0-.38,1.6,1.6,0,0,1,0-.38h.38a1.67,1.67,0,0,1,0-.38,1.59,1.59,0,0,1,0-.38H266a1.6,1.6,0,0,1,0,.38,1.67,1.67,0,0,1,0,.38h-1.71a1.6,1.6,0,0,1,0,.38,1.67,1.67,0,0,1,0,.38h1.52a1.59,1.59,0,0,1,0,.38,1.67,1.67,0,0,1,0,.38h.38A1.6,1.6,0,0,1,266.19,142.37Zm7.68-1.52a1.67,1.67,0,0,1,0,.38,1.59,1.59,0,0,1,0,.38,1.67,1.67,0,0,1,0,.38h-2a1.6,1.6,0,0,1,0,.38,1.67,1.67,0,0,1,0,.38h1.61a1.59,1.59,0,0,1,0,.38,1.67,1.67,0,0,1,0,.38h-1.9a1.67,1.67,0,0,1,0-.38,1.59,1.59,0,0,1,0-.38h-.47a1.67,1.67,0,0,1,0-.38,1.59,1.59,0,0,1,0-.38h-.28a1.67,1.67,0,0,1,0-.38,1.59,1.59,0,0,1,0-.38h.28a1.67,1.67,0,0,1,0-.38,1.59,1.59,0,0,1,0-.38h.47a1.67,1.67,0,0,1,0-.38,1.59,1.59,0,0,1,0-.38h1.9a1.6,1.6,0,0,1,0,.38,1.67,1.67,0,0,1,0,.38h.38A1.59,1.59,0,0,1,273.87,140.86Zm-.8.38a1.67,1.67,0,0,1,0-.38,1.6,1.6,0,0,1,0-.38h-1.23a1.6,1.6,0,0,1,0,.38,1.67,1.67,0,0,1,0,.38Zm7.87,1.52a1.59,1.59,0,0,1,0,.38,1.67,1.67,0,0,1,0,.38h-2.27a1.67,1.67,0,0,1,0-.38,1.59,1.59,0,0,1,0-.38h.76a1.67,1.67,0,0,1,0-.38,1.6,1.6,0,0,1,0-.38,1.67,1.67,0,0,1,0-.38,1.59,1.59,0,0,1,0-.38,1.67,1.67,0,0,1,0-.38,1.6,1.6,0,0,1,0-.38,1.67,1.67,0,0,1,0-.38,1.6,1.6,0,0,1,0-.38,1.67,1.67,0,0,1,0-.38,1.59,1.59,0,0,1,0-.38h-.57a1.67,1.67,0,0,1,0-.38,1.59,1.59,0,0,1,0-.38h1.33a1.59,1.59,0,0,1,0,.38,1.67,1.67,0,0,1,0,.38,1.59,1.59,0,0,1,0,.38,1.67,1.67,0,0,1,0,.38,1.59,1.59,0,0,1,0,.38,1.67,1.67,0,0,1,0,.38,1.59,1.59,0,0,1,0,.38,1.67,1.67,0,0,1,0,.38,1.59,1.59,0,0,1,0,.38,1.67,1.67,0,0,1,0,.38,1.59,1.59,0,0,1,0,.38,1.67,1.67,0,0,1,0,.38Zm7.91-1.9a1.67,1.67,0,0,1,0,.38,1.59,1.59,0,0,1,0,.38,1.67,1.67,0,0,1,0,.38h-2a1.59,1.59,0,0,1,0,.38,1.67,1.67,0,0,1,0,.38h1.61a1.59,1.59,0,0,1,0,.38,1.67,1.67,0,0,1,0,.38h-1.9a1.67,1.67,0,0,1,0-.38,1.59,1.59,0,0,1,0-.38h-.47a1.67,1.67,0,0,1,0-.38,1.59,1.59,0,0,1,0-.38h-.28a1.67,1.67,0,0,1,0-.38,1.59,1.59,0,0,1,0-.38h.28a1.67,1.67,0,0,1,0-.38,1.6,1.6,0,0,1,0-.38h.47a1.67,1.67,0,0,1,0-.38,1.6,1.6,0,0,1,0-.38h1.9a1.59,1.59,0,0,1,0,.38,1.67,1.67,0,0,1,0,.38h.38A1.6,1.6,0,0,1,288.85,140.86Zm-.8.38a1.67,1.67,0,0,1,0-.38,1.59,1.59,0,0,1,0-.38h-1.23a1.59,1.59,0,0,1,0,.38,1.67,1.67,0,0,1,0,.38Zm8.25.76a1.6,1.6,0,0,1,0,.38,1.67,1.67,0,0,1,0,.38h-.38a1.59,1.59,0,0,1,0,.38,1.67,1.67,0,0,1,0,.38H294a1.67,1.67,0,0,1,0-.38,1.59,1.59,0,0,1,0-.38h-.38a1.67,1.67,0,0,1,0-.38,1.6,1.6,0,0,1,0-.38h-.38a1.67,1.67,0,0,1,0-.38,1.59,1.59,0,0,1,0-.38h.38a1.67,1.67,0,0,1,0-.38,1.6,1.6,0,0,1,0-.38H294a1.67,1.67,0,0,1,0-.38,1.6,1.6,0,0,1,0-.38h1.9a1.6,1.6,0,0,1,0,.38,1.67,1.67,0,0,1,0,.38h.38a1.6,1.6,0,0,1,0,.38,1.67,1.67,0,0,1,0,.38h-.76a1.67,1.67,0,0,1,0-.38,1.6,1.6,0,0,1,0-.38H294.4a1.6,1.6,0,0,1,0,.38,1.67,1.67,0,0,1,0,.38H294a1.59,1.59,0,0,1,0,.38,1.67,1.67,0,0,1,0,.38h.38a1.6,1.6,0,0,1,0,.38,1.67,1.67,0,0,1,0,.38h1.14a1.67,1.67,0,0,1,0-.38,1.6,1.6,0,0,1,0-.38Zm7.11.76a1.59,1.59,0,0,1,0,.38,1.67,1.67,0,0,1,0,.38h-1.52a1.67,1.67,0,0,1,0-.38,1.59,1.59,0,0,1,0-.38h-.38a1.67,1.67,0,0,1,0-.38,1.59,1.59,0,0,1,0-.38,1.67,1.67,0,0,1,0-.38,1.59,1.59,0,0,1,0-.38,1.67,1.67,0,0,1,0-.38,1.59,1.59,0,0,1,0-.38h-.76a1.67,1.67,0,0,1,0-.38,1.59,1.59,0,0,1,0-.38h.76a1.67,1.67,0,0,1,0-.38,1.59,1.59,0,0,1,0-.38,1.67,1.67,0,0,1,0-.38,1.59,1.59,0,0,1,0-.38h.76a1.59,1.59,0,0,1,0,.38,1.67,1.67,0,0,1,0,.38,1.59,1.59,0,0,1,0,.38,1.67,1.67,0,0,1,0,.38h1.14a1.6,1.6,0,0,1,0,.38,1.67,1.67,0,0,1,0,.38h-1.14a1.6,1.6,0,0,1,0,.38,1.67,1.67,0,0,1,0,.38,1.59,1.59,0,0,1,0,.38,1.67,1.67,0,0,1,0,.38,1.6,1.6,0,0,1,0,.38,1.67,1.67,0,0,1,0,.38Zm15.36,0a1.6,1.6,0,0,1,0,.38,1.67,1.67,0,0,1,0,.38H318a1.67,1.67,0,0,1,0-.38,1.59,1.59,0,0,1,0-.38h-.38a1.67,1.67,0,0,1,0-.38,1.59,1.59,0,0,1,0-.38h-1.14a1.6,1.6,0,0,1,0,.38,1.67,1.67,0,0,1,0,.38h1.14a1.59,1.59,0,0,1,0,.38,1.67,1.67,0,0,1,0,.38h-1.52a1.67,1.67,0,0,1,0-.38,1.59,1.59,0,0,1,0-.38h-.38a1.67,1.67,0,0,1,0-.38,1.59,1.59,0,0,1,0-.38h.38a1.67,1.67,0,0,1,0-.38,1.59,1.59,0,0,1,0-.38h1.52a1.67,1.67,0,0,1,0-.38,1.59,1.59,0,0,1,0-.38h-1.33a1.67,1.67,0,0,1,0-.38,1.6,1.6,0,0,1,0-.38H318a1.59,1.59,0,0,1,0,.38,1.67,1.67,0,0,1,0,.38h.38a1.6,1.6,0,0,1,0,.38,1.67,1.67,0,0,1,0,.38,1.6,1.6,0,0,1,0,.38,1.67,1.67,0,0,1,0,.38,1.6,1.6,0,0,1,0,.38,1.67,1.67,0,0,1,0,.38Zm14.83-.38a1.67,1.67,0,0,1,0,.38h-.38a1.59,1.59,0,0,1,0,.38,1.67,1.67,0,0,1,0,.38H331.1a1.67,1.67,0,0,1,0-.38,1.59,1.59,0,0,1,0-.38h1.71a1.67,1.67,0,0,1,0-.38,1.59,1.59,0,0,1,0-.38h-1.52a1.67,1.67,0,0,1,0-.38,1.6,1.6,0,0,1,0-.38h-.38a1.67,1.67,0,0,1,0-.38,1.59,1.59,0,0,1,0-.38h.38a1.67,1.67,0,0,1,0-.38,1.6,1.6,0,0,1,0-.38h2.08a1.6,1.6,0,0,1,0,.38,1.67,1.67,0,0,1,0,.38h-1.71a1.59,1.59,0,0,1,0,.38,1.67,1.67,0,0,1,0,.38h1.52a1.59,1.59,0,0,1,0,.38,1.67,1.67,0,0,1,0,.38h.38A1.59,1.59,0,0,1,333.6,142.37Zm7.68-1.52a1.67,1.67,0,0,1,0,.38,1.59,1.59,0,0,1,0,.38,1.67,1.67,0,0,1,0,.38h-2a1.59,1.59,0,0,1,0,.38,1.67,1.67,0,0,1,0,.38h1.61a1.59,1.59,0,0,1,0,.38,1.67,1.67,0,0,1,0,.38H339a1.67,1.67,0,0,1,0-.38,1.59,1.59,0,0,1,0-.38h-.47a1.67,1.67,0,0,1,0-.38,1.59,1.59,0,0,1,0-.38h-.28a1.67,1.67,0,0,1,0-.38,1.59,1.59,0,0,1,0-.38h.28a1.67,1.67,0,0,1,0-.38,1.59,1.59,0,0,1,0-.38H339a1.67,1.67,0,0,1,0-.38,1.59,1.59,0,0,1,0-.38h1.9a1.59,1.59,0,0,1,0,.38,1.67,1.67,0,0,1,0,.38h.38A1.59,1.59,0,0,1,341.28,140.86Zm-.8.38a1.67,1.67,0,0,1,0-.38,1.6,1.6,0,0,1,0-.38h-1.23a1.59,1.59,0,0,1,0,.38,1.67,1.67,0,0,1,0,.38Zm8.25.76a1.59,1.59,0,0,1,0,.38,1.67,1.67,0,0,1,0,.38h-.38a1.6,1.6,0,0,1,0,.38,1.67,1.67,0,0,1,0,.38h-1.9a1.67,1.67,0,0,1,0-.38,1.59,1.59,0,0,1,0-.38h-.38a1.67,1.67,0,0,1,0-.38,1.59,1.59,0,0,1,0-.38h-.38a1.67,1.67,0,0,1,0-.38,1.59,1.59,0,0,1,0-.38h.38a1.67,1.67,0,0,1,0-.38,1.59,1.59,0,0,1,0-.38h.38a1.67,1.67,0,0,1,0-.38,1.59,1.59,0,0,1,0-.38h1.9a1.6,1.6,0,0,1,0,.38,1.67,1.67,0,0,1,0,.38h.38a1.59,1.59,0,0,1,0,.38,1.67,1.67,0,0,1,0,.38H348a1.67,1.67,0,0,1,0-.38,1.59,1.59,0,0,1,0-.38h-1.14a1.59,1.59,0,0,1,0,.38,1.67,1.67,0,0,1,0,.38h-.38a1.6,1.6,0,0,1,0,.38,1.67,1.67,0,0,1,0,.38h.38a1.59,1.59,0,0,1,0,.38,1.67,1.67,0,0,1,0,.38H348a1.67,1.67,0,0,1,0-.38,1.59,1.59,0,0,1,0-.38Zm7.11.76a1.59,1.59,0,0,1,0,.38,1.67,1.67,0,0,1,0,.38h-1.52a1.67,1.67,0,0,1,0-.38,1.59,1.59,0,0,1,0-.38h-.38a1.67,1.67,0,0,1,0-.38,1.59,1.59,0,0,1,0-.38,1.67,1.67,0,0,1,0-.38,1.59,1.59,0,0,1,0-.38,1.67,1.67,0,0,1,0-.38,1.59,1.59,0,0,1,0-.38h-.76a1.67,1.67,0,0,1,0-.38,1.6,1.6,0,0,1,0-.38h.76a1.67,1.67,0,0,1,0-.38,1.59,1.59,0,0,1,0-.38,1.67,1.67,0,0,1,0-.38,1.59,1.59,0,0,1,0-.38h.76a1.6,1.6,0,0,1,0,.38,1.67,1.67,0,0,1,0,.38,1.6,1.6,0,0,1,0,.38,1.67,1.67,0,0,1,0,.38h1.14a1.59,1.59,0,0,1,0,.38,1.67,1.67,0,0,1,0,.38H354.7a1.6,1.6,0,0,1,0,.38,1.67,1.67,0,0,1,0,.38,1.6,1.6,0,0,1,0,.38,1.67,1.67,0,0,1,0,.38,1.6,1.6,0,0,1,0,.38,1.67,1.67,0,0,1,0,.38Zm6-3.79a1.67,1.67,0,0,1,0-.38,1.59,1.59,0,0,1,0-.38h.76a1.59,1.59,0,0,1,0,.38,1.67,1.67,0,0,1,0,.38Zm1.52,3.79a1.59,1.59,0,0,1,0,.38,1.67,1.67,0,0,1,0,.38h-2.27a1.67,1.67,0,0,1,0-.38,1.59,1.59,0,0,1,0-.38h.76a1.67,1.67,0,0,1,0-.38,1.59,1.59,0,0,1,0-.38,1.67,1.67,0,0,1,0-.38,1.59,1.59,0,0,1,0-.38,1.67,1.67,0,0,1,0-.38,1.59,1.59,0,0,1,0-.38h-.57a1.67,1.67,0,0,1,0-.38,1.59,1.59,0,0,1,0-.38h1.33a1.59,1.59,0,0,1,0,.38,1.67,1.67,0,0,1,0,.38,1.59,1.59,0,0,1,0,.38,1.67,1.67,0,0,1,0,.38,1.59,1.59,0,0,1,0,.38,1.67,1.67,0,0,1,0,.38,1.59,1.59,0,0,1,0,.38,1.67,1.67,0,0,1,0,.38Zm7.91-1.14a1.67,1.67,0,0,1,0,.38h-.28a1.59,1.59,0,0,1,0,.38,1.67,1.67,0,0,1,0,.38h-.47a1.59,1.59,0,0,1,0,.38,1.67,1.67,0,0,1,0,.38h-1.52a1.67,1.67,0,0,1,0-.38,1.59,1.59,0,0,1,0-.38h-.47a1.67,1.67,0,0,1,0-.38,1.59,1.59,0,0,1,0-.38h-.28a1.67,1.67,0,0,1,0-.38,1.6,1.6,0,0,1,0-.38h.28a1.67,1.67,0,0,1,0-.38,1.59,1.59,0,0,1,0-.38h.47a1.67,1.67,0,0,1,0-.38,1.59,1.59,0,0,1,0-.38h1.52a1.59,1.59,0,0,1,0,.38,1.67,1.67,0,0,1,0,.38h.47a1.59,1.59,0,0,1,0,.38,1.67,1.67,0,0,1,0,.38h.28A1.59,1.59,0,0,1,371.24,141.61Zm-.8.38a1.67,1.67,0,0,1,0-.38,1.6,1.6,0,0,1,0-.38h-.28a1.67,1.67,0,0,1,0-.38,1.59,1.59,0,0,1,0-.38h-.95a1.6,1.6,0,0,1,0,.38,1.67,1.67,0,0,1,0,.38h-.28a1.59,1.59,0,0,1,0,.38,1.67,1.67,0,0,1,0,.38h.28a1.6,1.6,0,0,1,0,.38,1.67,1.67,0,0,1,0,.38h.95a1.67,1.67,0,0,1,0-.38,1.59,1.59,0,0,1,0-.38Zm5.92-1.9a1.67,1.67,0,0,1,0,.38h.38a1.59,1.59,0,0,1,0,.38,1.67,1.67,0,0,1,0,.38h-.28a1.59,1.59,0,0,1,0,.38,1.67,1.67,0,0,1,0,.38,1.59,1.59,0,0,1,0,.38,1.67,1.67,0,0,1,0,.38,1.59,1.59,0,0,1,0,.38,1.67,1.67,0,0,1,0,.38h-.76a1.67,1.67,0,0,1,0-.38,1.59,1.59,0,0,1,0-.38,1.67,1.67,0,0,1,0-.38,1.59,1.59,0,0,1,0-.38,1.67,1.67,0,0,1,0-.38,1.59,1.59,0,0,1,0-.38,1.67,1.67,0,0,1,0-.38,1.59,1.59,0,0,1,0-.38,1.67,1.67,0,0,1,0-.38,1.59,1.59,0,0,1,0-.38h.66A1.59,1.59,0,0,1,376.36,140.1Zm2.33,1.14a1.59,1.59,0,0,1,0,.38,1.67,1.67,0,0,1,0,.38,1.59,1.59,0,0,1,0,.38,1.67,1.67,0,0,1,0,.38,1.59,1.59,0,0,1,0,.38,1.67,1.67,0,0,1,0,.38h-.76a1.67,1.67,0,0,1,0-.38,1.59,1.59,0,0,1,0-.38,1.67,1.67,0,0,1,0-.38,1.59,1.59,0,0,1,0-.38,1.67,1.67,0,0,1,0-.38,1.59,1.59,0,0,1,0-.38,1.67,1.67,0,0,1,0-.38,1.59,1.59,0,0,1,0-.38H376.7a1.67,1.67,0,0,1,0-.38,1.59,1.59,0,0,1,0-.38h1.52a1.59,1.59,0,0,1,0,.38,1.67,1.67,0,0,1,0,.38h.47a1.59,1.59,0,0,1,0,.38A1.67,1.67,0,0,1,378.69,141.24Z"/><rect class="cls-8" x="196" y="233.22" width="212.28" height="29.69"/><path d="M280,224.5a1.67,1.67,0,0,1,0,.38h-1.14a1.59,1.59,0,0,1,0,.38,1.67,1.67,0,0,1,0,.38,1.6,1.6,0,0,1,0,.38,1.67,1.67,0,0,1,0,.38,1.6,1.6,0,0,1,0,.38,1.67,1.67,0,0,1,0,.38,1.6,1.6,0,0,1,0,.38,1.67,1.67,0,0,1,0,.38,1.59,1.59,0,0,1,0,.38,1.67,1.67,0,0,1,0,.38,1.59,1.59,0,0,1,0,.38,1.67,1.67,0,0,1,0,.38H278a1.67,1.67,0,0,1,0-.38,1.59,1.59,0,0,1,0-.38,1.67,1.67,0,0,1,0-.38,1.59,1.59,0,0,1,0-.38,1.67,1.67,0,0,1,0-.38,1.6,1.6,0,0,1,0-.38,1.67,1.67,0,0,1,0-.38,1.6,1.6,0,0,1,0-.38,1.67,1.67,0,0,1,0-.38,1.6,1.6,0,0,1,0-.38,1.67,1.67,0,0,1,0-.38,1.59,1.59,0,0,1,0-.38h-1.14a1.67,1.67,0,0,1,0-.38,1.59,1.59,0,0,1,0-.38h3A1.59,1.59,0,0,1,280,224.5Zm7.49,2.27a1.67,1.67,0,0,1,0,.38,1.59,1.59,0,0,1,0,.38,1.67,1.67,0,0,1,0,.38h-2a1.59,1.59,0,0,1,0,.38,1.67,1.67,0,0,1,0,.38H287a1.59,1.59,0,0,1,0,.38,1.67,1.67,0,0,1,0,.38h-1.9a1.67,1.67,0,0,1,0-.38,1.59,1.59,0,0,1,0-.38h-.47a1.67,1.67,0,0,1,0-.38,1.59,1.59,0,0,1,0-.38h-.28a1.67,1.67,0,0,1,0-.38,1.6,1.6,0,0,1,0-.38h.28a1.67,1.67,0,0,1,0-.38,1.59,1.59,0,0,1,0-.38h.47a1.67,1.67,0,0,1,0-.38,1.59,1.59,0,0,1,0-.38H287a1.6,1.6,0,0,1,0,.38,1.67,1.67,0,0,1,0,.38h.38A1.59,1.59,0,0,1,287.45,226.78Zm-.8.38a1.67,1.67,0,0,1,0-.38,1.6,1.6,0,0,1,0-.38h-1.23a1.6,1.6,0,0,1,0,.38,1.67,1.67,0,0,1,0,.38Zm8.25-.76a1.6,1.6,0,0,1,0,.38,1.67,1.67,0,0,1,0,.38,1.6,1.6,0,0,1,0,.38,1.67,1.67,0,0,1,0,.38,1.59,1.59,0,0,1,0,.38,1.67,1.67,0,0,1,0,.38,1.59,1.59,0,0,1,0,.38,1.67,1.67,0,0,1,0,.38,1.6,1.6,0,0,1,0,.38,1.67,1.67,0,0,1,0,.38,1.6,1.6,0,0,1,0,.38,1.67,1.67,0,0,1,0,.38h-.76a1.67,1.67,0,0,1,0-.38,1.59,1.59,0,0,1,0-.38,1.67,1.67,0,0,1,0-.38,1.59,1.59,0,0,1,0-.38,1.67,1.67,0,0,1,0-.38,1.59,1.59,0,0,1,0-.38h-.38a1.67,1.67,0,0,1,0-.38,1.59,1.59,0,0,1,0-.38h.38a1.67,1.67,0,0,1,0-.38,1.59,1.59,0,0,1,0-.38,1.67,1.67,0,0,1,0-.38,1.59,1.59,0,0,1,0-.38H293a1.6,1.6,0,0,1,0,.38,1.67,1.67,0,0,1,0,.38h-.38a1.59,1.59,0,0,1,0,.38,1.67,1.67,0,0,1,0,.38H293a1.59,1.59,0,0,1,0,.38,1.67,1.67,0,0,1,0,.38h.76a1.59,1.59,0,0,1,0,.38,1.67,1.67,0,0,1,0,.38h-1.14a1.67,1.67,0,0,1,0-.38,1.59,1.59,0,0,1,0-.38h-.38a1.67,1.67,0,0,1,0-.38,1.59,1.59,0,0,1,0-.38h-.38a1.67,1.67,0,0,1,0-.38,1.6,1.6,0,0,1,0-.38h.38a1.67,1.67,0,0,1,0-.38,1.59,1.59,0,0,1,0-.38h.38a1.67,1.67,0,0,1,0-.38,1.6,1.6,0,0,1,0-.38h2.27a1.6,1.6,0,0,1,0,.38A1.67,1.67,0,0,1,294.9,226.4Zm5.54,1.9a1.67,1.67,0,0,1,0,.38h.95a1.59,1.59,0,0,1,0,.38,1.67,1.67,0,0,1,0,.38h-1.52a1.67,1.67,0,0,1,0-.38,1.59,1.59,0,0,1,0-.38h-.47a1.67,1.67,0,0,1,0-.38,1.59,1.59,0,0,1,0-.38,1.67,1.67,0,0,1,0-.38,1.6,1.6,0,0,1,0-.38,1.67,1.67,0,0,1,0-.38,1.6,1.6,0,0,1,0-.38,1.67,1.67,0,0,1,0-.38,1.6,1.6,0,0,1,0-.38h.76a1.59,1.59,0,0,1,0,.38,1.67,1.67,0,0,1,0,.38,1.59,1.59,0,0,1,0,.38,1.67,1.67,0,0,1,0,.38,1.59,1.59,0,0,1,0,.38,1.67,1.67,0,0,1,0,.38h.28A1.59,1.59,0,0,1,300.44,228.29Zm2-1.9a1.6,1.6,0,0,1,0,.38,1.67,1.67,0,0,1,0,.38,1.6,1.6,0,0,1,0,.38,1.67,1.67,0,0,1,0,.38,1.59,1.59,0,0,1,0,.38,1.67,1.67,0,0,1,0,.38,1.59,1.59,0,0,1,0,.38,1.67,1.67,0,0,1,0,.38h-.76a1.67,1.67,0,0,1,0-.38,1.59,1.59,0,0,1,0-.38h-.28a1.67,1.67,0,0,1,0-.38,1.59,1.59,0,0,1,0-.38h.28a1.67,1.67,0,0,1,0-.38,1.59,1.59,0,0,1,0-.38,1.67,1.67,0,0,1,0-.38,1.59,1.59,0,0,1,0-.38,1.67,1.67,0,0,1,0-.38,1.59,1.59,0,0,1,0-.38h.76a1.6,1.6,0,0,1,0,.38A1.67,1.67,0,0,1,302.39,226.4Zm5.59-1.52a1.67,1.67,0,0,1,0-.38,1.59,1.59,0,0,1,0-.38h.76a1.59,1.59,0,0,1,0,.38,1.67,1.67,0,0,1,0,.38Zm1.52,3.79a1.59,1.59,0,0,1,0,.38,1.67,1.67,0,0,1,0,.38h-2.27a1.67,1.67,0,0,1,0-.38,1.59,1.59,0,0,1,0-.38H308a1.67,1.67,0,0,1,0-.38,1.59,1.59,0,0,1,0-.38,1.67,1.67,0,0,1,0-.38,1.59,1.59,0,0,1,0-.38,1.67,1.67,0,0,1,0-.38,1.59,1.59,0,0,1,0-.38h-.57a1.67,1.67,0,0,1,0-.38,1.6,1.6,0,0,1,0-.38h1.33a1.6,1.6,0,0,1,0,.38,1.67,1.67,0,0,1,0,.38,1.6,1.6,0,0,1,0,.38,1.67,1.67,0,0,1,0,.38,1.6,1.6,0,0,1,0,.38,1.67,1.67,0,0,1,0,.38,1.59,1.59,0,0,1,0,.38,1.67,1.67,0,0,1,0,.38Zm7.49,0a1.59,1.59,0,0,1,0,.38,1.67,1.67,0,0,1,0,.38h-2.27a1.67,1.67,0,0,1,0-.38,1.59,1.59,0,0,1,0-.38h.76a1.67,1.67,0,0,1,0-.38,1.59,1.59,0,0,1,0-.38,1.67,1.67,0,0,1,0-.38,1.59,1.59,0,0,1,0-.38,1.67,1.67,0,0,1,0-.38,1.59,1.59,0,0,1,0-.38,1.67,1.67,0,0,1,0-.38,1.59,1.59,0,0,1,0-.38,1.67,1.67,0,0,1,0-.38,1.59,1.59,0,0,1,0-.38h-.57a1.67,1.67,0,0,1,0-.38,1.59,1.59,0,0,1,0-.38h1.33a1.59,1.59,0,0,1,0,.38,1.67,1.67,0,0,1,0,.38,1.59,1.59,0,0,1,0,.38,1.67,1.67,0,0,1,0,.38,1.59,1.59,0,0,1,0,.38,1.67,1.67,0,0,1,0,.38,1.59,1.59,0,0,1,0,.38,1.67,1.67,0,0,1,0,.38,1.59,1.59,0,0,1,0,.38,1.67,1.67,0,0,1,0,.38,1.59,1.59,0,0,1,0,.38,1.67,1.67,0,0,1,0,.38Zm7.87,0a1.59,1.59,0,0,1,0,.38,1.67,1.67,0,0,1,0,.38h-.76a1.67,1.67,0,0,1,0-.38,1.59,1.59,0,0,1,0-.38h-.38a1.67,1.67,0,0,1,0-.38,1.59,1.59,0,0,1,0-.38h-1.14a1.59,1.59,0,0,1,0,.38,1.67,1.67,0,0,1,0,.38h1.14a1.6,1.6,0,0,1,0,.38,1.67,1.67,0,0,1,0,.38h-1.52a1.67,1.67,0,0,1,0-.38,1.59,1.59,0,0,1,0-.38h-.38a1.67,1.67,0,0,1,0-.38,1.59,1.59,0,0,1,0-.38h.38a1.67,1.67,0,0,1,0-.38,1.59,1.59,0,0,1,0-.38h1.52a1.67,1.67,0,0,1,0-.38,1.59,1.59,0,0,1,0-.38H322.4a1.67,1.67,0,0,1,0-.38,1.59,1.59,0,0,1,0-.38h1.71a1.6,1.6,0,0,1,0,.38,1.67,1.67,0,0,1,0,.38h.38a1.59,1.59,0,0,1,0,.38,1.67,1.67,0,0,1,0,.38,1.59,1.59,0,0,1,0,.38,1.67,1.67,0,0,1,0,.38,1.59,1.59,0,0,1,0,.38,1.67,1.67,0,0,1,0,.38Z"/><path class="cls-7" d="M294.9,243.84a1.59,1.59,0,0,1,0,.38,1.67,1.67,0,0,1,0,.38h-.76a1.67,1.67,0,0,1,0-.38,1.59,1.59,0,0,1,0-.38h-.28a1.67,1.67,0,0,1,0-.38,1.59,1.59,0,0,1,0-.38h-.28a1.67,1.67,0,0,1,0-.38,1.6,1.6,0,0,1,0-.38h-.95a1.59,1.59,0,0,1,0,.38,1.67,1.67,0,0,1,0,.38,1.59,1.59,0,0,1,0,.38,1.67,1.67,0,0,1,0,.38,1.59,1.59,0,0,1,0,.38,1.67,1.67,0,0,1,0,.38h-.76a1.67,1.67,0,0,1,0-.38,1.59,1.59,0,0,1,0-.38,1.67,1.67,0,0,1,0-.38,1.59,1.59,0,0,1,0-.38,1.67,1.67,0,0,1,0-.38,1.6,1.6,0,0,1,0-.38,1.67,1.67,0,0,1,0-.38,1.6,1.6,0,0,1,0-.38,1.67,1.67,0,0,1,0-.38,1.6,1.6,0,0,1,0-.38,1.67,1.67,0,0,1,0-.38,1.59,1.59,0,0,1,0-.38,1.67,1.67,0,0,1,0-.38,1.59,1.59,0,0,1,0-.38h2.65a1.59,1.59,0,0,1,0,.38,1.67,1.67,0,0,1,0,.38h.38a1.59,1.59,0,0,1,0,.38,1.67,1.67,0,0,1,0,.38h-.19a1.59,1.59,0,0,1,0,.38,1.67,1.67,0,0,1,0,.38h-.57a1.6,1.6,0,0,1,0,.38,1.67,1.67,0,0,1,0,.38h.19a1.6,1.6,0,0,1,0,.38,1.67,1.67,0,0,1,0,.38h.28a1.59,1.59,0,0,1,0,.38,1.67,1.67,0,0,1,0,.38Zm-.95-2.27a1.67,1.67,0,0,1,0-.38,1.6,1.6,0,0,1,0-.38,1.67,1.67,0,0,1,0-.38,1.59,1.59,0,0,1,0-.38h-1.33a1.59,1.59,0,0,1,0,.38,1.67,1.67,0,0,1,0,.38,1.59,1.59,0,0,1,0,.38,1.67,1.67,0,0,1,0,.38Zm6.49,1.9a1.67,1.67,0,0,1,0,.38h.95a1.59,1.59,0,0,1,0,.38,1.67,1.67,0,0,1,0,.38h-1.52a1.67,1.67,0,0,1,0-.38,1.59,1.59,0,0,1,0-.38h-.47a1.67,1.67,0,0,1,0-.38,1.59,1.59,0,0,1,0-.38,1.67,1.67,0,0,1,0-.38,1.6,1.6,0,0,1,0-.38,1.67,1.67,0,0,1,0-.38,1.6,1.6,0,0,1,0-.38,1.67,1.67,0,0,1,0-.38,1.6,1.6,0,0,1,0-.38h.76a1.59,1.59,0,0,1,0,.38,1.67,1.67,0,0,1,0,.38,1.59,1.59,0,0,1,0,.38,1.67,1.67,0,0,1,0,.38,1.59,1.59,0,0,1,0,.38,1.67,1.67,0,0,1,0,.38h.28A1.59,1.59,0,0,1,300.44,243.46Zm2-1.9a1.6,1.6,0,0,1,0,.38,1.67,1.67,0,0,1,0,.38,1.6,1.6,0,0,1,0,.38,1.67,1.67,0,0,1,0,.38,1.59,1.59,0,0,1,0,.38,1.67,1.67,0,0,1,0,.38,1.59,1.59,0,0,1,0,.38,1.67,1.67,0,0,1,0,.38h-.76a1.67,1.67,0,0,1,0-.38,1.59,1.59,0,0,1,0-.38h-.28a1.67,1.67,0,0,1,0-.38,1.59,1.59,0,0,1,0-.38h.28a1.67,1.67,0,0,1,0-.38,1.59,1.59,0,0,1,0-.38,1.67,1.67,0,0,1,0-.38,1.59,1.59,0,0,1,0-.38,1.67,1.67,0,0,1,0-.38,1.59,1.59,0,0,1,0-.38h.76a1.6,1.6,0,0,1,0,.38A1.67,1.67,0,0,1,302.39,241.56Zm5-.38a1.67,1.67,0,0,1,0,.38h.28a1.6,1.6,0,0,1,0,.38,1.67,1.67,0,0,1,0,.38,1.6,1.6,0,0,1,0,.38,1.67,1.67,0,0,1,0,.38,1.59,1.59,0,0,1,0,.38,1.67,1.67,0,0,1,0,.38,1.59,1.59,0,0,1,0,.38,1.67,1.67,0,0,1,0,.38h-.76a1.67,1.67,0,0,1,0-.38,1.59,1.59,0,0,1,0-.38,1.67,1.67,0,0,1,0-.38,1.59,1.59,0,0,1,0-.38,1.67,1.67,0,0,1,0-.38,1.59,1.59,0,0,1,0-.38,1.67,1.67,0,0,1,0-.38,1.59,1.59,0,0,1,0-.38,1.67,1.67,0,0,1,0-.38,1.59,1.59,0,0,1,0-.38h.47A1.6,1.6,0,0,1,307.36,241.18Zm1,0a1.67,1.67,0,0,1,0,.38h.28a1.59,1.59,0,0,1,0,.38,1.67,1.67,0,0,1,0,.38,1.59,1.59,0,0,1,0,.38,1.67,1.67,0,0,1,0,.38,1.59,1.59,0,0,1,0,.38,1.67,1.67,0,0,1,0,.38,1.59,1.59,0,0,1,0,.38,1.67,1.67,0,0,1,0,.38h-.57a1.67,1.67,0,0,1,0-.38,1.59,1.59,0,0,1,0-.38,1.67,1.67,0,0,1,0-.38,1.59,1.59,0,0,1,0-.38,1.67,1.67,0,0,1,0-.38,1.6,1.6,0,0,1,0-.38,1.67,1.67,0,0,1,0-.38,1.6,1.6,0,0,1,0-.38h-.47a1.67,1.67,0,0,1,0-.38,1.6,1.6,0,0,1,0-.38h.76A1.59,1.59,0,0,1,308.4,241.18Zm1.48,1.14a1.6,1.6,0,0,1,0,.38,1.67,1.67,0,0,1,0,.38,1.59,1.59,0,0,1,0,.38,1.67,1.67,0,0,1,0,.38,1.59,1.59,0,0,1,0,.38,1.67,1.67,0,0,1,0,.38h-.76a1.67,1.67,0,0,1,0-.38,1.59,1.59,0,0,1,0-.38,1.67,1.67,0,0,1,0-.38,1.59,1.59,0,0,1,0-.38,1.67,1.67,0,0,1,0-.38,1.6,1.6,0,0,1,0-.38,1.67,1.67,0,0,1,0-.38,1.6,1.6,0,0,1,0-.38h-.47a1.67,1.67,0,0,1,0-.38,1.6,1.6,0,0,1,0-.38h.85a1.6,1.6,0,0,1,0,.38,1.67,1.67,0,0,1,0,.38h.38a1.6,1.6,0,0,1,0,.38A1.67,1.67,0,0,1,309.88,242.32Z"/><path class="cls-7" d="M250,254.45a1.59,1.59,0,0,1,0,.38,1.67,1.67,0,0,1,0,.38h-.38a1.59,1.59,0,0,1,0,.38,1.67,1.67,0,0,1,0,.38h-1.9a1.67,1.67,0,0,1,0-.38,1.59,1.59,0,0,1,0-.38h-.38a1.67,1.67,0,0,1,0-.38,1.59,1.59,0,0,1,0-.38h-.38a1.67,1.67,0,0,1,0-.38,1.59,1.59,0,0,1,0-.38,1.67,1.67,0,0,1,0-.38,1.59,1.59,0,0,1,0-.38,1.67,1.67,0,0,1,0-.38,1.59,1.59,0,0,1,0-.38h.38a1.67,1.67,0,0,1,0-.38,1.59,1.59,0,0,1,0-.38h.38a1.67,1.67,0,0,1,0-.38,1.59,1.59,0,0,1,0-.38h1.9a1.59,1.59,0,0,1,0,.38,1.67,1.67,0,0,1,0,.38H250a1.59,1.59,0,0,1,0,.38,1.67,1.67,0,0,1,0,.38h-.76a1.67,1.67,0,0,1,0-.38,1.59,1.59,0,0,1,0-.38h-1.14a1.59,1.59,0,0,1,0,.38,1.67,1.67,0,0,1,0,.38h-.38a1.6,1.6,0,0,1,0,.38,1.67,1.67,0,0,1,0,.38,1.6,1.6,0,0,1,0,.38,1.67,1.67,0,0,1,0,.38,1.6,1.6,0,0,1,0,.38,1.67,1.67,0,0,1,0,.38h.38a1.59,1.59,0,0,1,0,.38,1.67,1.67,0,0,1,0,.38h1.14a1.67,1.67,0,0,1,0-.38,1.59,1.59,0,0,1,0-.38Zm7.49-1.52a1.59,1.59,0,0,1,0,.38,1.67,1.67,0,0,1,0,.38h-.76a1.67,1.67,0,0,1,0-.38,1.6,1.6,0,0,1,0-.38H256a1.59,1.59,0,0,1,0,.38,1.67,1.67,0,0,1,0,.38h-.28a1.59,1.59,0,0,1,0,.38,1.67,1.67,0,0,1,0,.38,1.59,1.59,0,0,1,0,.38,1.67,1.67,0,0,1,0,.38h.57a1.59,1.59,0,0,1,0,.38,1.67,1.67,0,0,1,0,.38h-1.9a1.67,1.67,0,0,1,0-.38,1.59,1.59,0,0,1,0-.38H255a1.67,1.67,0,0,1,0-.38,1.59,1.59,0,0,1,0-.38,1.67,1.67,0,0,1,0-.38,1.6,1.6,0,0,1,0-.38,1.67,1.67,0,0,1,0-.38,1.6,1.6,0,0,1,0-.38h-.57a1.67,1.67,0,0,1,0-.38,1.59,1.59,0,0,1,0-.38h.95a1.6,1.6,0,0,1,0,.38,1.67,1.67,0,0,1,0,.38h.38a1.67,1.67,0,0,1,0-.38,1.6,1.6,0,0,1,0-.38h1.42a1.59,1.59,0,0,1,0,.38,1.67,1.67,0,0,1,0,.38Zm7.49,2.27a1.59,1.59,0,0,1,0,.38,1.67,1.67,0,0,1,0,.38h-.76a1.67,1.67,0,0,1,0-.38,1.59,1.59,0,0,1,0-.38h-.38a1.67,1.67,0,0,1,0-.38,1.59,1.59,0,0,1,0-.38h-1.14a1.59,1.59,0,0,1,0,.38,1.67,1.67,0,0,1,0,.38h1.14a1.59,1.59,0,0,1,0,.38,1.67,1.67,0,0,1,0,.38h-1.52a1.67,1.67,0,0,1,0-.38,1.59,1.59,0,0,1,0-.38h-.38a1.67,1.67,0,0,1,0-.38,1.59,1.59,0,0,1,0-.38h.38a1.67,1.67,0,0,1,0-.38,1.6,1.6,0,0,1,0-.38h1.52a1.67,1.67,0,0,1,0-.38,1.6,1.6,0,0,1,0-.38h-1.33a1.67,1.67,0,0,1,0-.38,1.59,1.59,0,0,1,0-.38h1.71a1.6,1.6,0,0,1,0,.38,1.67,1.67,0,0,1,0,.38h.38a1.6,1.6,0,0,1,0,.38,1.67,1.67,0,0,1,0,.38,1.6,1.6,0,0,1,0,.38,1.67,1.67,0,0,1,0,.38,1.59,1.59,0,0,1,0,.38,1.67,1.67,0,0,1,0,.38Zm5.16-2.65a1.67,1.67,0,0,1,0,.38h.38a1.6,1.6,0,0,1,0,.38,1.67,1.67,0,0,1,0,.38h-.28a1.59,1.59,0,0,1,0,.38,1.67,1.67,0,0,1,0,.38,1.59,1.59,0,0,1,0,.38,1.67,1.67,0,0,1,0,.38,1.59,1.59,0,0,1,0,.38,1.67,1.67,0,0,1,0,.38h-.76a1.67,1.67,0,0,1,0-.38,1.59,1.59,0,0,1,0-.38,1.67,1.67,0,0,1,0-.38,1.59,1.59,0,0,1,0-.38,1.67,1.67,0,0,1,0-.38,1.6,1.6,0,0,1,0-.38,1.67,1.67,0,0,1,0-.38,1.6,1.6,0,0,1,0-.38,1.67,1.67,0,0,1,0-.38,1.6,1.6,0,0,1,0-.38h.66A1.59,1.59,0,0,1,270.1,252.55Zm2.33,1.14a1.59,1.59,0,0,1,0,.38,1.67,1.67,0,0,1,0,.38,1.59,1.59,0,0,1,0,.38,1.67,1.67,0,0,1,0,.38,1.59,1.59,0,0,1,0,.38,1.67,1.67,0,0,1,0,.38h-.76a1.67,1.67,0,0,1,0-.38,1.59,1.59,0,0,1,0-.38,1.67,1.67,0,0,1,0-.38,1.59,1.59,0,0,1,0-.38,1.67,1.67,0,0,1,0-.38,1.59,1.59,0,0,1,0-.38,1.67,1.67,0,0,1,0-.38,1.59,1.59,0,0,1,0-.38h-1.23a1.67,1.67,0,0,1,0-.38,1.59,1.59,0,0,1,0-.38H272a1.59,1.59,0,0,1,0,.38,1.67,1.67,0,0,1,0,.38h.47a1.59,1.59,0,0,1,0,.38A1.67,1.67,0,0,1,272.43,253.69Zm5.22.76a1.59,1.59,0,0,1,0,.38,1.67,1.67,0,0,1,0,.38h-.38a1.59,1.59,0,0,1,0,.38,1.67,1.67,0,0,1,0,.38h-.38a1.67,1.67,0,0,1,0-.38,1.59,1.59,0,0,1,0-.38,1.67,1.67,0,0,1,0-.38,1.59,1.59,0,0,1,0-.38,1.67,1.67,0,0,1,0-.38,1.59,1.59,0,0,1,0-.38,1.67,1.67,0,0,1,0-.38,1.59,1.59,0,0,1,0-.38,1.67,1.67,0,0,1,0-.38,1.59,1.59,0,0,1,0-.38,1.67,1.67,0,0,1,0-.38,1.59,1.59,0,0,1,0-.38,1.67,1.67,0,0,1,0-.38,1.59,1.59,0,0,1,0-.38h.76a1.59,1.59,0,0,1,0,.38,1.67,1.67,0,0,1,0,.38,1.59,1.59,0,0,1,0,.38,1.67,1.67,0,0,1,0,.38,1.6,1.6,0,0,1,0,.38,1.67,1.67,0,0,1,0,.38H278a1.59,1.59,0,0,1,0,.38,1.67,1.67,0,0,1,0,.38h-.38a1.6,1.6,0,0,1,0,.38A1.67,1.67,0,0,1,277.65,254.45Zm2.31-.38a1.67,1.67,0,0,1,0,.38h-.38a1.59,1.59,0,0,1,0,.38,1.67,1.67,0,0,1,0,.38h-.76a1.67,1.67,0,0,1,0-.38,1.59,1.59,0,0,1,0-.38h.38a1.67,1.67,0,0,1,0-.38,1.6,1.6,0,0,1,0-.38h-.38a1.67,1.67,0,0,1,0-.38,1.59,1.59,0,0,1,0-.38H278a1.67,1.67,0,0,1,0-.38,1.6,1.6,0,0,1,0-.38h1.14a1.59,1.59,0,0,1,0,.38,1.67,1.67,0,0,1,0,.38h.38a1.6,1.6,0,0,1,0,.38,1.67,1.67,0,0,1,0,.38h.38A1.59,1.59,0,0,1,280,254.07Zm-2.35,1.52a1.59,1.59,0,0,1,0-.38h1.14a1.59,1.59,0,0,1,0,.38,1.67,1.67,0,0,1,0,.38h-1.14A1.67,1.67,0,0,1,277.61,255.59Zm9.84-2.27a1.67,1.67,0,0,1,0,.38,1.59,1.59,0,0,1,0,.38,1.67,1.67,0,0,1,0,.38h-2a1.59,1.59,0,0,1,0,.38,1.67,1.67,0,0,1,0,.38H287a1.59,1.59,0,0,1,0,.38,1.67,1.67,0,0,1,0,.38h-1.9a1.67,1.67,0,0,1,0-.38,1.59,1.59,0,0,1,0-.38h-.47a1.67,1.67,0,0,1,0-.38,1.59,1.59,0,0,1,0-.38h-.28a1.67,1.67,0,0,1,0-.38,1.6,1.6,0,0,1,0-.38h.28a1.67,1.67,0,0,1,0-.38,1.59,1.59,0,0,1,0-.38h.47a1.67,1.67,0,0,1,0-.38,1.59,1.59,0,0,1,0-.38H287a1.6,1.6,0,0,1,0,.38,1.67,1.67,0,0,1,0,.38h.38A1.59,1.59,0,0,1,287.45,253.31Zm-.8.38a1.67,1.67,0,0,1,0-.38,1.6,1.6,0,0,1,0-.38h-1.23a1.6,1.6,0,0,1,0,.38,1.67,1.67,0,0,1,0,.38Zm8.25-.76a1.6,1.6,0,0,1,0,.38,1.67,1.67,0,0,1,0,.38h-.76a1.67,1.67,0,0,1,0-.38,1.59,1.59,0,0,1,0-.38h-.66a1.6,1.6,0,0,1,0,.38,1.67,1.67,0,0,1,0,.38h-.28a1.6,1.6,0,0,1,0,.38,1.67,1.67,0,0,1,0,.38,1.59,1.59,0,0,1,0,.38,1.67,1.67,0,0,1,0,.38h.57a1.59,1.59,0,0,1,0,.38,1.67,1.67,0,0,1,0,.38h-1.9a1.67,1.67,0,0,1,0-.38,1.59,1.59,0,0,1,0-.38h.57a1.67,1.67,0,0,1,0-.38,1.59,1.59,0,0,1,0-.38,1.67,1.67,0,0,1,0-.38,1.59,1.59,0,0,1,0-.38,1.67,1.67,0,0,1,0-.38,1.59,1.59,0,0,1,0-.38h-.57a1.67,1.67,0,0,1,0-.38,1.6,1.6,0,0,1,0-.38h.95a1.59,1.59,0,0,1,0,.38,1.67,1.67,0,0,1,0,.38h.38a1.67,1.67,0,0,1,0-.38,1.59,1.59,0,0,1,0-.38h1.42a1.6,1.6,0,0,1,0,.38,1.67,1.67,0,0,1,0,.38Zm7.49,0a1.6,1.6,0,0,1,0,.38,1.67,1.67,0,0,1,0,.38h-.76a1.67,1.67,0,0,1,0-.38,1.59,1.59,0,0,1,0-.38H301a1.6,1.6,0,0,1,0,.38,1.67,1.67,0,0,1,0,.38h-.28a1.6,1.6,0,0,1,0,.38,1.67,1.67,0,0,1,0,.38,1.59,1.59,0,0,1,0,.38,1.67,1.67,0,0,1,0,.38h.57a1.59,1.59,0,0,1,0,.38,1.67,1.67,0,0,1,0,.38h-1.9a1.67,1.67,0,0,1,0-.38,1.59,1.59,0,0,1,0-.38h.57a1.67,1.67,0,0,1,0-.38,1.59,1.59,0,0,1,0-.38,1.67,1.67,0,0,1,0-.38,1.6,1.6,0,0,1,0-.38,1.67,1.67,0,0,1,0-.38,1.6,1.6,0,0,1,0-.38h-.57a1.67,1.67,0,0,1,0-.38,1.6,1.6,0,0,1,0-.38h.95a1.6,1.6,0,0,1,0,.38,1.67,1.67,0,0,1,0,.38h.38a1.67,1.67,0,0,1,0-.38,1.59,1.59,0,0,1,0-.38h1.42a1.6,1.6,0,0,1,0,.38,1.67,1.67,0,0,1,0,.38Zm7.53-.38a1.67,1.67,0,0,1,0,.38h-.28a1.59,1.59,0,0,1,0,.38,1.67,1.67,0,0,1,0,.38h-.28a1.59,1.59,0,0,1,0,.38,1.67,1.67,0,0,1,0,.38h-.19a1.59,1.59,0,0,1,0,.38,1.67,1.67,0,0,1,0,.38h-.28a1.59,1.59,0,0,1,0,.38,1.67,1.67,0,0,1,0,.38h-.19a1.59,1.59,0,0,1,0,.38,1.67,1.67,0,0,1,0,.38h-.38a1.6,1.6,0,0,1,0,.38,1.67,1.67,0,0,1,0,.38h-1.14a1.67,1.67,0,0,1,0-.38,1.6,1.6,0,0,1,0-.38h.76a1.67,1.67,0,0,1,0-.38,1.6,1.6,0,0,1,0-.38,1.67,1.67,0,0,1,0-.38,1.59,1.59,0,0,1,0-.38h-.38a1.67,1.67,0,0,1,0-.38,1.59,1.59,0,0,1,0-.38h-.19a1.67,1.67,0,0,1,0-.38,1.59,1.59,0,0,1,0-.38H307a1.67,1.67,0,0,1,0-.38,1.59,1.59,0,0,1,0-.38h-.28a1.67,1.67,0,0,1,0-.38,1.6,1.6,0,0,1,0-.38h.76a1.6,1.6,0,0,1,0,.38,1.67,1.67,0,0,1,0,.38h.28a1.6,1.6,0,0,1,0,.38,1.67,1.67,0,0,1,0,.38h.28a1.6,1.6,0,0,1,0,.38,1.67,1.67,0,0,1,0,.38,1.59,1.59,0,0,1,0,.38,1.67,1.67,0,0,1,0,.38h.28a1.67,1.67,0,0,1,0-.38,1.59,1.59,0,0,1,0-.38h.19a1.67,1.67,0,0,1,0-.38,1.6,1.6,0,0,1,0-.38h.28a1.67,1.67,0,0,1,0-.38,1.6,1.6,0,0,1,0-.38h.28a1.67,1.67,0,0,1,0-.38,1.6,1.6,0,0,1,0-.38h.76A1.6,1.6,0,0,1,309.92,252.55ZM324.71,251a1.67,1.67,0,0,1,0,.38h-.57a1.6,1.6,0,0,1,0,.38,1.67,1.67,0,0,1,0,.38,1.6,1.6,0,0,1,0,.38,1.67,1.67,0,0,1,0,.38,1.6,1.6,0,0,1,0,.38,1.67,1.67,0,0,1,0,.38,1.6,1.6,0,0,1,0,.38,1.67,1.67,0,0,1,0,.38,1.6,1.6,0,0,1,0,.38,1.67,1.67,0,0,1,0,.38h-.38a1.6,1.6,0,0,1,0,.38,1.67,1.67,0,0,1,0,.38h-1.52a1.67,1.67,0,0,1,0-.38,1.59,1.59,0,0,1,0-.38h-.38a1.67,1.67,0,0,1,0-.38,1.59,1.59,0,0,1,0-.38h.76a1.59,1.59,0,0,1,0,.38,1.67,1.67,0,0,1,0,.38h.76a1.67,1.67,0,0,1,0-.38,1.59,1.59,0,0,1,0-.38,1.67,1.67,0,0,1,0-.38,1.59,1.59,0,0,1,0-.38,1.67,1.67,0,0,1,0-.38,1.59,1.59,0,0,1,0-.38,1.67,1.67,0,0,1,0-.38,1.59,1.59,0,0,1,0-.38,1.67,1.67,0,0,1,0-.38,1.59,1.59,0,0,1,0-.38h-.57a1.67,1.67,0,0,1,0-.38,1.59,1.59,0,0,1,0-.38h1.9A1.6,1.6,0,0,1,324.71,251Zm5.69,3.79a1.67,1.67,0,0,1,0,.38h.95a1.59,1.59,0,0,1,0,.38,1.67,1.67,0,0,1,0,.38h-1.52a1.67,1.67,0,0,1,0-.38,1.59,1.59,0,0,1,0-.38h-.47a1.67,1.67,0,0,1,0-.38,1.59,1.59,0,0,1,0-.38,1.67,1.67,0,0,1,0-.38,1.59,1.59,0,0,1,0-.38,1.67,1.67,0,0,1,0-.38,1.59,1.59,0,0,1,0-.38,1.67,1.67,0,0,1,0-.38,1.59,1.59,0,0,1,0-.38h.76a1.6,1.6,0,0,1,0,.38,1.67,1.67,0,0,1,0,.38,1.6,1.6,0,0,1,0,.38,1.67,1.67,0,0,1,0,.38,1.6,1.6,0,0,1,0,.38,1.67,1.67,0,0,1,0,.38h.28A1.59,1.59,0,0,1,330.4,254.83Zm2-1.9a1.6,1.6,0,0,1,0,.38,1.67,1.67,0,0,1,0,.38,1.6,1.6,0,0,1,0,.38,1.67,1.67,0,0,1,0,.38,1.6,1.6,0,0,1,0,.38,1.67,1.67,0,0,1,0,.38,1.6,1.6,0,0,1,0,.38,1.67,1.67,0,0,1,0,.38h-.76a1.67,1.67,0,0,1,0-.38,1.59,1.59,0,0,1,0-.38h-.28a1.67,1.67,0,0,1,0-.38,1.6,1.6,0,0,1,0-.38h.28a1.67,1.67,0,0,1,0-.38,1.59,1.59,0,0,1,0-.38,1.67,1.67,0,0,1,0-.38,1.59,1.59,0,0,1,0-.38,1.67,1.67,0,0,1,0-.38,1.59,1.59,0,0,1,0-.38h.76a1.6,1.6,0,0,1,0,.38A1.67,1.67,0,0,1,332.35,252.93Zm5.59-1.52a1.67,1.67,0,0,1,0-.38,1.59,1.59,0,0,1,0-.38h.76a1.6,1.6,0,0,1,0,.38,1.67,1.67,0,0,1,0,.38Zm1.52,3.79a1.59,1.59,0,0,1,0,.38,1.67,1.67,0,0,1,0,.38h-2.27a1.67,1.67,0,0,1,0-.38,1.59,1.59,0,0,1,0-.38h.76a1.67,1.67,0,0,1,0-.38,1.59,1.59,0,0,1,0-.38,1.67,1.67,0,0,1,0-.38,1.59,1.59,0,0,1,0-.38,1.67,1.67,0,0,1,0-.38,1.59,1.59,0,0,1,0-.38h-.57a1.67,1.67,0,0,1,0-.38,1.59,1.59,0,0,1,0-.38h1.33a1.6,1.6,0,0,1,0,.38,1.67,1.67,0,0,1,0,.38,1.6,1.6,0,0,1,0,.38,1.67,1.67,0,0,1,0,.38,1.6,1.6,0,0,1,0,.38,1.67,1.67,0,0,1,0,.38,1.6,1.6,0,0,1,0,.38,1.67,1.67,0,0,1,0,.38Zm7.87-.76a1.6,1.6,0,0,1,0,.38,1.67,1.67,0,0,1,0,.38H347a1.6,1.6,0,0,1,0,.38,1.67,1.67,0,0,1,0,.38h-1.9a1.67,1.67,0,0,1,0-.38,1.59,1.59,0,0,1,0-.38h-.38a1.67,1.67,0,0,1,0-.38,1.59,1.59,0,0,1,0-.38h-.38a1.67,1.67,0,0,1,0-.38,1.59,1.59,0,0,1,0-.38h.38a1.67,1.67,0,0,1,0-.38,1.59,1.59,0,0,1,0-.38h.38a1.67,1.67,0,0,1,0-.38,1.59,1.59,0,0,1,0-.38H347a1.6,1.6,0,0,1,0,.38,1.67,1.67,0,0,1,0,.38h.38a1.6,1.6,0,0,1,0,.38,1.67,1.67,0,0,1,0,.38h-.76a1.67,1.67,0,0,1,0-.38,1.59,1.59,0,0,1,0-.38h-1.14a1.6,1.6,0,0,1,0,.38,1.67,1.67,0,0,1,0,.38h-.38a1.6,1.6,0,0,1,0,.38,1.67,1.67,0,0,1,0,.38h.38a1.6,1.6,0,0,1,0,.38,1.67,1.67,0,0,1,0,.38h1.14a1.67,1.67,0,0,1,0-.38,1.59,1.59,0,0,1,0-.38Zm7.53-1.14a1.67,1.67,0,0,1,0,.38,1.59,1.59,0,0,1,0,.38,1.67,1.67,0,0,1,0,.38h-2a1.59,1.59,0,0,1,0,.38,1.67,1.67,0,0,1,0,.38h1.61a1.59,1.59,0,0,1,0,.38,1.67,1.67,0,0,1,0,.38h-1.9a1.67,1.67,0,0,1,0-.38,1.59,1.59,0,0,1,0-.38h-.47a1.67,1.67,0,0,1,0-.38,1.59,1.59,0,0,1,0-.38h-.28a1.67,1.67,0,0,1,0-.38,1.59,1.59,0,0,1,0-.38h.28a1.67,1.67,0,0,1,0-.38,1.59,1.59,0,0,1,0-.38h.47a1.67,1.67,0,0,1,0-.38,1.59,1.59,0,0,1,0-.38h1.9a1.59,1.59,0,0,1,0,.38,1.67,1.67,0,0,1,0,.38h.38A1.59,1.59,0,0,1,354.86,253.31Zm-.8.38a1.67,1.67,0,0,1,0-.38,1.6,1.6,0,0,1,0-.38h-1.23a1.59,1.59,0,0,1,0,.38,1.67,1.67,0,0,1,0,.38Z"/><path class="cls-6" d="M202.32,166.89,215.59,157v19.7Z"/><path class="cls-6" d="M400.7,166.89l-13.27,9.85V157Z"/><path d="M199,204.46a2,2,0,0,1,0,.48,2.12,2.12,0,0,1,0,.48h-2.4a2.11,2.11,0,0,1,0-.48,2,2,0,0,1,0-.48h.72a2.11,2.11,0,0,1,0-.48,2,2,0,0,1,0-.48,2.11,2.11,0,0,1,0-.48,2,2,0,0,1,0-.48,2.11,2.11,0,0,1,0-.48,2,2,0,0,1,0-.48,2.11,2.11,0,0,1,0-.48,2,2,0,0,1,0-.48,2.11,2.11,0,0,1,0-.48,2,2,0,0,1,0-.48h-.72a2.11,2.11,0,0,1,0-.48,2,2,0,0,1,0-.48H199a2,2,0,0,1,0,.48,2.12,2.12,0,0,1,0,.48h-.72a2,2,0,0,1,0,.48,2.12,2.12,0,0,1,0,.48,2,2,0,0,1,0,.48,2.12,2.12,0,0,1,0,.48,2,2,0,0,1,0,.48,2.12,2.12,0,0,1,0,.48,2,2,0,0,1,0,.48,2.12,2.12,0,0,1,0,.48,2,2,0,0,1,0,.48,2.12,2.12,0,0,1,0,.48Zm7.25-3.36a2.11,2.11,0,0,1,0,.48h.48a2,2,0,0,1,0,.48,2.11,2.11,0,0,1,0,.48h-.36a2,2,0,0,1,0,.48,2.11,2.11,0,0,1,0,.48,2,2,0,0,1,0,.48,2.11,2.11,0,0,1,0,.48,2,2,0,0,1,0,.48,2.11,2.11,0,0,1,0,.48h-1a2.11,2.11,0,0,1,0-.48,2,2,0,0,1,0-.48,2.11,2.11,0,0,1,0-.48,2,2,0,0,1,0-.48,2.11,2.11,0,0,1,0-.48,2,2,0,0,1,0-.48,2.11,2.11,0,0,1,0-.48,2,2,0,0,1,0-.48,2.11,2.11,0,0,1,0-.48,2,2,0,0,1,0-.48h.84A2,2,0,0,1,206.3,201.1Zm3,1.44a2,2,0,0,1,0,.48,2.11,2.11,0,0,1,0,.48,2,2,0,0,1,0,.48,2.11,2.11,0,0,1,0,.48,2,2,0,0,1,0,.48,2.11,2.11,0,0,1,0,.48h-1a2.11,2.11,0,0,1,0-.48,2,2,0,0,1,0-.48,2.11,2.11,0,0,1,0-.48,2,2,0,0,1,0-.48,2.11,2.11,0,0,1,0-.48,2,2,0,0,1,0-.48,2.11,2.11,0,0,1,0-.48,2,2,0,0,1,0-.48h-1.56a2.11,2.11,0,0,1,0-.48,2,2,0,0,1,0-.48h1.92a2,2,0,0,1,0,.48,2.11,2.11,0,0,1,0,.48h.6a2,2,0,0,1,0,.48A2.11,2.11,0,0,1,209.25,202.54Zm9.49-1a2,2,0,0,1,0,.48,2.1,2.1,0,0,1,0,.48,2,2,0,0,1,0,.48,2.1,2.1,0,0,1,0,.48,2,2,0,0,1,0,.48,2.1,2.1,0,0,1,0,.48,2,2,0,0,1,0,.48,2.1,2.1,0,0,1,0,.48h-.48a2,2,0,0,1,0,.48,2.1,2.1,0,0,1,0,.48h-.48a2,2,0,0,1,0,.48,2.1,2.1,0,0,1,0,.48h-1.92a2.1,2.1,0,0,1,0-.48,2,2,0,0,1,0-.48h1.44a2.1,2.1,0,0,1,0-.48,2,2,0,0,1,0-.48h.48a2.1,2.1,0,0,1,0-.48,2,2,0,0,1,0-.48h-.48a2.1,2.1,0,0,1,0-.48,2,2,0,0,1,0-.48h.48a2.1,2.1,0,0,1,0-.48,2,2,0,0,1,0-.48,2.1,2.1,0,0,1,0-.48,2,2,0,0,1,0-.48h-1.56a2,2,0,0,1,0,.48,2.1,2.1,0,0,1,0,.48h-.36a2,2,0,0,1,0,.48,2.1,2.1,0,0,1,0,.48h.36a2,2,0,0,1,0,.48,2.1,2.1,0,0,1,0,.48h1.08a2,2,0,0,1,0,.48,2.1,2.1,0,0,1,0,.48h-1.44a2.1,2.1,0,0,1,0-.48,2,2,0,0,1,0-.48h-.6a2.1,2.1,0,0,1,0-.48,2,2,0,0,1,0-.48h-.36a2.1,2.1,0,0,1,0-.48,2,2,0,0,1,0-.48h.36a2.1,2.1,0,0,1,0-.48,2,2,0,0,1,0-.48h.6a2.1,2.1,0,0,1,0-.48,2,2,0,0,1,0-.48h2.88a2,2,0,0,1,0,.48A2.1,2.1,0,0,1,218.74,201.58Zm9.49,0a2,2,0,0,1,0,.48,2.1,2.1,0,0,1,0,.48h-1a2.14,2.14,0,0,1,0-.48,2,2,0,0,1,0-.48h-.84a2,2,0,0,1,0,.48,2.1,2.1,0,0,1,0,.48h-.36a2,2,0,0,1,0,.48,2.1,2.1,0,0,1,0,.48,2,2,0,0,1,0,.48,2.1,2.1,0,0,1,0,.48h.72a2,2,0,0,1,0,.48,2.1,2.1,0,0,1,0,.48h-2.4a2.14,2.14,0,0,1,0-.48,2,2,0,0,1,0-.48h.72a2.14,2.14,0,0,1,0-.48,2,2,0,0,1,0-.48,2.14,2.14,0,0,1,0-.48,2,2,0,0,1,0-.48,2.14,2.14,0,0,1,0-.48,2,2,0,0,1,0-.48h-.72a2.14,2.14,0,0,1,0-.48,2,2,0,0,1,0-.48h1.2a2,2,0,0,1,0,.48,2.1,2.1,0,0,1,0,.48h.48a2.14,2.14,0,0,1,0-.48,2,2,0,0,1,0-.48h1.8a2,2,0,0,1,0,.48,2.1,2.1,0,0,1,0,.48Zm9.54.48a2.1,2.1,0,0,1,0,.48,2,2,0,0,1,0,.48,2.1,2.1,0,0,1,0,.48h-2.52a2,2,0,0,1,0,.48,2.1,2.1,0,0,1,0,.48h2a2,2,0,0,1,0,.48,2.1,2.1,0,0,1,0,.48h-2.4a2.1,2.1,0,0,1,0-.48,2,2,0,0,1,0-.48h-.6a2.1,2.1,0,0,1,0-.48,2,2,0,0,1,0-.48h-.36a2.1,2.1,0,0,1,0-.48,2,2,0,0,1,0-.48h.36a2.1,2.1,0,0,1,0-.48,2,2,0,0,1,0-.48h.6a2.1,2.1,0,0,1,0-.48,2,2,0,0,1,0-.48h2.4a2,2,0,0,1,0,.48,2.1,2.1,0,0,1,0,.48h.48A2,2,0,0,1,237.76,202.06Zm-1,.48a2.1,2.1,0,0,1,0-.48,2,2,0,0,1,0-.48h-1.56a2,2,0,0,1,0,.48,2.1,2.1,0,0,1,0,.48Zm10.45-2.88a2,2,0,0,1,0,.48,2.1,2.1,0,0,1,0,.48,2,2,0,0,1,0,.48,2.1,2.1,0,0,1,0,.48,2,2,0,0,1,0,.48,2.1,2.1,0,0,1,0,.48,2,2,0,0,1,0,.48,2.1,2.1,0,0,1,0,.48,2,2,0,0,1,0,.48,2.1,2.1,0,0,1,0,.48,2,2,0,0,1,0,.48,2.1,2.1,0,0,1,0,.48h-1a2.14,2.14,0,0,1,0-.48,2,2,0,0,1,0-.48h-.36a2.14,2.14,0,0,1,0-.48,2,2,0,0,1,0-.48h.36a2.14,2.14,0,0,1,0-.48,2,2,0,0,1,0-.48h-.36a2.14,2.14,0,0,1,0-.48,2,2,0,0,1,0-.48h.36a2.14,2.14,0,0,1,0-.48,2,2,0,0,1,0-.48,2.14,2.14,0,0,1,0-.48,2,2,0,0,1,0-.48,2.14,2.14,0,0,1,0-.48,2,2,0,0,1,0-.48h1a2,2,0,0,1,0,.48A2.1,2.1,0,0,1,247.2,199.66Zm-1.51,1.44a2.1,2.1,0,0,1,0,.48h-1.2a2,2,0,0,1,0,.48,2.1,2.1,0,0,1,0,.48h-.36a2,2,0,0,1,0,.48,2.1,2.1,0,0,1,0,.48h.36a2,2,0,0,1,0,.48,2.1,2.1,0,0,1,0,.48h1.2a2,2,0,0,1,0,.48,2.1,2.1,0,0,1,0,.48h-1.32a2.14,2.14,0,0,1,0-.48,2,2,0,0,1,0-.48h-.6a2.14,2.14,0,0,1,0-.48,2,2,0,0,1,0-.48h-.36a2.14,2.14,0,0,1,0-.48,2,2,0,0,1,0-.48h.36a2.14,2.14,0,0,1,0-.48,2,2,0,0,1,0-.48h.6a2.14,2.14,0,0,1,0-.48,2,2,0,0,1,0-.48h1.32A2,2,0,0,1,245.69,201.1Zm8.6-1.44a2.1,2.1,0,0,1,0-.48,2,2,0,0,1,0-.48h1a2,2,0,0,1,0,.48,2.14,2.14,0,0,1,0,.48Zm1.92,4.8a2,2,0,0,1,0,.48,2.14,2.14,0,0,1,0,.48h-2.88a2.1,2.1,0,0,1,0-.48,2,2,0,0,1,0-.48h1a2.1,2.1,0,0,1,0-.48,2,2,0,0,1,0-.48,2.1,2.1,0,0,1,0-.48,2,2,0,0,1,0-.48,2.1,2.1,0,0,1,0-.48,2,2,0,0,1,0-.48h-.72a2.1,2.1,0,0,1,0-.48,2,2,0,0,1,0-.48h1.68a2,2,0,0,1,0,.48,2.14,2.14,0,0,1,0,.48,2,2,0,0,1,0,.48,2.14,2.14,0,0,1,0,.48,2,2,0,0,1,0,.48,2.14,2.14,0,0,1,0,.48,2,2,0,0,1,0,.48,2.14,2.14,0,0,1,0,.48Zm10-2.4a2.1,2.1,0,0,1,0,.48,2,2,0,0,1,0,.48,2.1,2.1,0,0,1,0,.48h-2.52a2,2,0,0,1,0,.48,2.1,2.1,0,0,1,0,.48h2a2,2,0,0,1,0,.48,2.1,2.1,0,0,1,0,.48h-2.4a2.1,2.1,0,0,1,0-.48,2,2,0,0,1,0-.48h-.6a2.1,2.1,0,0,1,0-.48,2,2,0,0,1,0-.48h-.36a2.1,2.1,0,0,1,0-.48,2,2,0,0,1,0-.48h.36a2.1,2.1,0,0,1,0-.48,2,2,0,0,1,0-.48h.6a2.1,2.1,0,0,1,0-.48,2,2,0,0,1,0-.48h2.4a2,2,0,0,1,0,.48,2.1,2.1,0,0,1,0,.48h.48A2,2,0,0,1,266.22,202.06Zm-1,.48a2.1,2.1,0,0,1,0-.48,2,2,0,0,1,0-.48h-1.56a2,2,0,0,1,0,.48,2.1,2.1,0,0,1,0,.48Zm7.5-1.44a2.14,2.14,0,0,1,0,.48h.48a2,2,0,0,1,0,.48,2.14,2.14,0,0,1,0,.48h-.36a2,2,0,0,1,0,.48,2.14,2.14,0,0,1,0,.48,2,2,0,0,1,0,.48,2.14,2.14,0,0,1,0,.48,2,2,0,0,1,0,.48,2.14,2.14,0,0,1,0,.48h-1a2.1,2.1,0,0,1,0-.48,2,2,0,0,1,0-.48,2.1,2.1,0,0,1,0-.48,2,2,0,0,1,0-.48,2.1,2.1,0,0,1,0-.48,2,2,0,0,1,0-.48,2.1,2.1,0,0,1,0-.48,2,2,0,0,1,0-.48,2.1,2.1,0,0,1,0-.48,2,2,0,0,1,0-.48h.84A2,2,0,0,1,272.71,201.1Zm3,1.44a2,2,0,0,1,0,.48,2.14,2.14,0,0,1,0,.48,2,2,0,0,1,0,.48,2.14,2.14,0,0,1,0,.48,2,2,0,0,1,0,.48,2.14,2.14,0,0,1,0,.48h-1a2.1,2.1,0,0,1,0-.48,2,2,0,0,1,0-.48,2.1,2.1,0,0,1,0-.48,2,2,0,0,1,0-.48,2.1,2.1,0,0,1,0-.48,2,2,0,0,1,0-.48,2.1,2.1,0,0,1,0-.48,2,2,0,0,1,0-.48h-1.56a2.1,2.1,0,0,1,0-.48,2,2,0,0,1,0-.48h1.92a2,2,0,0,1,0,.48,2.14,2.14,0,0,1,0,.48h.6a2,2,0,0,1,0,.48A2.14,2.14,0,0,1,275.66,202.54Zm9,1.92a2,2,0,0,1,0,.48,2.1,2.1,0,0,1,0,.48h-1.92a2.1,2.1,0,0,1,0-.48,2,2,0,0,1,0-.48h-.48a2.1,2.1,0,0,1,0-.48,2,2,0,0,1,0-.48,2.1,2.1,0,0,1,0-.48,2,2,0,0,1,0-.48,2.1,2.1,0,0,1,0-.48,2,2,0,0,1,0-.48h-1a2.1,2.1,0,0,1,0-.48,2,2,0,0,1,0-.48h1a2.1,2.1,0,0,1,0-.48,2,2,0,0,1,0-.48,2.1,2.1,0,0,1,0-.48,2,2,0,0,1,0-.48h1a2,2,0,0,1,0,.48,2.1,2.1,0,0,1,0,.48,2,2,0,0,1,0,.48,2.1,2.1,0,0,1,0,.48h1.44a2,2,0,0,1,0,.48,2.1,2.1,0,0,1,0,.48h-1.44a2,2,0,0,1,0,.48,2.1,2.1,0,0,1,0,.48,2,2,0,0,1,0,.48,2.1,2.1,0,0,1,0,.48,2,2,0,0,1,0,.48,2.1,2.1,0,0,1,0,.48Zm9.78-.48a2.1,2.1,0,0,1,0,.48h-.48a2,2,0,0,1,0,.48,2.1,2.1,0,0,1,0,.48h-2.64a2.14,2.14,0,0,1,0-.48,2,2,0,0,1,0-.48h2.16a2.14,2.14,0,0,1,0-.48,2,2,0,0,1,0-.48h-1.92a2.14,2.14,0,0,1,0-.48,2,2,0,0,1,0-.48H291a2.14,2.14,0,0,1,0-.48,2,2,0,0,1,0-.48h.48a2.14,2.14,0,0,1,0-.48,2,2,0,0,1,0-.48h2.64a2,2,0,0,1,0,.48,2.1,2.1,0,0,1,0,.48H292a2,2,0,0,1,0,.48,2.1,2.1,0,0,1,0,.48h1.92a2,2,0,0,1,0,.48,2.1,2.1,0,0,1,0,.48h.48A2,2,0,0,1,294.44,204Z"/></g><g id="Layer_2-3" data-name="Layer 2"><path class="cls-9" d="M136.37,59.11a14.45,14.45,0,0,0-14.45,14.45V320.44a14.45,14.45,0,0,0,14.45,14.45h329a14.45,14.45,0,0,0,14.45-14.45V73.56a14.45,14.45,0,0,0-14.45-14.45Zm313,28.39v220H153.35V87.5Z"/><path class="cls-10" d="M122.34,152.47v-80s.15-15.32,20.44-13.66l323.52.47S478.41,58.4,480,74.08c-.9,16.15,0,242.85,0,242.85"/></g></g></g></svg>