<svg width="1570" height="661" viewBox="0 0 1570 661" fill="none" xmlns="http://www.w3.org/2000/svg">
<path d="M79.1858 131.751C40.2275 131.751 42.3674 97 0.499138 97C-8.10117 97 -14.644 98.4381 -20 100.713V141.997L218 142C218 134.306 98.995 131.751 79.1858 131.751Z" fill="white"/>
<path opacity="0.4" d="M1094 395.4C1094 386.19 1125.36 371.78 1142.51 371.78C1176.34 371.78 1165.78 383.59 1187.06 383.59C1211.31 383.59 1216.85 331 1253.75 331C1294.08 331 1287.75 382.44 1312.5 382.44C1323.16 382.44 1328.5 377.44 1343.65 377.44C1352.44 377.44 1362.06 386.22 1362.06 395.44L1094 395.4Z" fill="#9CAFB7"/>
<path d="M1180 408.85C1180 394.27 1216.18 391.18 1230.48 391.18C1259.48 391.18 1261.4 374.58 1285.48 374.58C1306.65 374.58 1317.42 391.72 1337.13 391.72C1379.43 391.72 1388.85 343 1430 343C1471.87 343 1469.73 393.86 1508.69 393.86C1528.5 393.86 1647.51 397.6 1647.51 408.86L1180 408.85Z" fill="white"/>
</svg>
