<svg width="1570" height="963" viewBox="0 0 1570 963" fill="none" xmlns="http://www.w3.org/2000/svg">
<path d="M-50.5 748L-14 129.223C535.136 -15.4888 993.803 379.61 913.922 561.944C834.04 744.277 226 780.5 -50.5 748Z" fill="#E6B89C" fill-opacity="0.4"/>
<path opacity="0.4" d="M566 654.4C566 645.19 597.36 630.78 614.51 630.78C648.34 630.78 637.78 642.59 659.06 642.59C683.31 642.59 688.85 590 725.75 590C766.08 590 759.75 641.44 784.5 641.44C795.16 641.44 800.5 636.44 815.65 636.44C824.44 636.44 834.06 645.22 834.06 654.44L566 654.4Z" fill="#9CAFB7"/>
<path d="M652 667.85C652 653.27 688.18 650.18 702.48 650.18C731.48 650.18 733.4 633.58 757.48 633.58C778.65 633.58 789.42 650.72 809.13 650.72C851.43 650.72 860.85 602 902 602C943.87 602 941.73 652.86 980.69 652.86C1000.5 652.86 1119.51 656.6 1119.51 667.86L652 667.85Z" fill="white"/>
<path d="M85.69 239.86C46.73 239.86 48.87 189 7 189C-1.60067 189 -8.14381 191.105 -13.5 194.434V254.855L224.51 254.86C224.51 243.6 105.5 239.86 85.69 239.86Z" fill="white"/>
<path d="M86.1858 38.751C47.2275 38.751 49.3674 4 7.49914 4C-1.10117 4 -7.64403 5.43808 -13 7.71309V48.9965L225 49C225 41.3064 105.995 38.751 86.1858 38.751Z" fill="white"/>
<path d="M32.883 106.107C45.0038 98.912 57.8084 92.4521 71.1852 86.7838C79.4973 83.1498 88.1322 79.9724 96.523 76.4395C99.8882 75.0175 102.553 74.3571 104.097 78.8854C102.428 74.068 106.114 73.1026 109.73 72.0788C114.516 70.9025 119.22 69.5275 123.82 67.9597C127.992 66.3623 129.687 67.2218 130.028 71.3551C131.627 63.1138 140.989 63.5499 146.793 61.202C159.144 56.1856 172.857 53.576 186.77 53.5943C189.406 53.731 192.053 53.526 194.604 52.9876C202.422 50.8372 210.364 51.7963 218.259 52.0475C226.221 52.1662 234.168 52.6283 242.065 53.4316C255.349 55.0116 268.787 55.2897 282.046 57.3816C297.351 59.7911 312.69 62.2432 328.086 64.204C368.395 69.3374 406.923 79.2788 445.246 89.8C476.636 98.4189 507.736 107.698 538.253 118.055C573.903 130.357 607.38 146.206 637.857 165.21C671.751 186.038 704.462 208.055 739.575 227.644C757.888 237.862 777.213 246.911 796.424 256.075C837.985 275.902 875.357 299.671 906.579 329.052C926.238 347.538 942.17 368.09 958.748 388.261C978.707 412.55 1000.49 435.842 1021.62 459.492C1036.71 475.96 1048.81 493.992 1057.57 513.069C1064.88 529.568 1069.6 546.565 1068.61 564.018C1067.59 582.275 1065.39 600.516 1056.01 617.727C1051.67 625.591 1046.79 633.261 1041.37 640.702C1033.86 651.13 1023.52 659.06 1012.93 666.911C991.577 682.724 966.187 693.355 938.393 700.74C919.37 705.796 900.285 710.574 880.453 713.202C848.164 717.608 815.2 718.09 782.723 714.632C737.078 709.555 690.579 712.054 646.247 721.968C623.93 726.932 601.612 732.124 580.178 738.768C534.633 752.883 490.41 769.497 445.879 785.509C408.757 798.855 371.214 811.429 331.404 819.288C311.078 823.436 290.404 826.46 269.536 828.34C236.915 831.068 204.445 828.832 172.09 824.8C134.558 820.254 97.4646 813.708 61.0695 805.208C3.6131 791.584 -43.9656 766.745 -80.3573 729.255C-109.369 699.374 -136.93 668.627 -158.652 635.107C-187.632 590.393 -199.283 542.706 -196.002 492.526C-194.374 467.64 -192.853 442.756 -189.546 417.99C-185.665 388.907 -179.447 360.097 -167.523 332.275C-157.719 308.664 -145.488 285.714 -130.95 263.651C-107.388 228.682 -81.132 195.047 -48.6099 164.719C-30.9931 148.287 -12.3574 132.522 9.8149 119.562C17.5601 115.036 24.5426 109.703 33.0484 105.974C33.2623 107.82 32.2132 108.691 30.1674 109.828C23.8002 113.367 17.4168 117.008 12.7806 122.098C11.7487 121.98 10.6952 122.068 9.71863 122.355C8.74206 122.642 7.87422 123.118 7.19617 123.738C0.911662 128.719 -6.01642 133.209 -12.194 138.265C-19.5216 144.269 -28.1444 149.382 -33.3878 156.844C-39.0447 159.765 -43.4284 163.968 -45.9528 168.892C-41.595 164.975 -34.2392 162.87 -33.5856 156.699C-31.4865 156.325 -29.6053 155.416 -28.2372 154.114C-20.5283 147.551 -12.2989 141.412 -4.18252 135.173C1.44832 130.844 9.51228 128.265 12.6636 121.997C15.587 122.89 17.0053 120.984 18.7726 119.893C27.1392 114.725 35.4089 109.465 44.3746 104.914C49.723 102.2 54.902 99.28 60.1576 96.4534L59.169 95.3063C52.1723 98.6717 45.0808 101.925 38.2395 105.472C36.343 106.447 35.078 107.82 32.883 106.107ZM28.6462 121.974C27.3631 120.373 29.086 118.842 28.961 117.123C25.9529 119.465 20.3664 119.509 19.6139 124.609C23.1163 123.208 25.4646 121.182 28.85 121.809C25.0329 126.338 18.014 128.603 15.7887 134.535C14.5782 137.74 8.04758 138.431 5.82026 141.904C0.062311 138.594 1.48463 142.536 1.28691 144.697C1.08516 146.939 -1.29952 147.772 -3.13948 148.805C-5.12586 150.041 -6.89025 151.481 -8.38496 153.087C-16.8423 161.077 -25.8384 168.716 -34.4834 176.588C-37.7255 179.541 -41.7887 182.216 -44.3691 185.169C-47.127 188.329 -49.4492 192.009 -52.3302 195.309C-62.9705 207.488 -74.7063 219.191 -83.8778 232.017C-94.857 247.369 -106.329 262.576 -115.49 278.719C-123.237 292.369 -132.318 305.604 -137.795 319.957C-141.272 329.069 -147.383 337.362 -149.469 346.959C-151.95 358.381 -157.071 369.365 -159.26 380.948C-161.983 395.364 -165.474 409.753 -166.658 424.254C-168.316 444.543 -170.39 464.816 -171.153 485.17C-172.295 515.618 -171.375 545.842 -162.383 575.634C-157.5 591.809 -151.755 607.827 -142.682 622.851C-121.385 658.123 -92.6479 689.796 -63.4183 721.176C-31.3865 755.568 9.944 779.736 62.4595 792.135C99.8319 800.771 137.964 807.244 176.547 811.505C214.015 815.784 252.161 814.74 289.156 808.425C337.041 800.464 381.939 786.248 425.926 769.976C483.048 748.843 539.832 727.145 599.994 711.54C638.393 701.586 677.466 694.779 718.058 694.119C739.668 693.768 761.019 696.25 782.431 697.803C836.5 701.723 887.655 693.114 937.056 676.656C961.702 668.44 984.177 657.512 1001.99 641.539C1029.1 617.237 1039.1 587.977 1040.53 556.583C1042.01 524.063 1028.22 495.027 1004.88 468.671C974.198 434.016 942.65 399.815 914.147 364.015C884.635 326.95 845.53 297.665 798.373 274.72C768.564 260.216 738.901 245.566 710.67 229.177C684.096 213.748 659.159 196.739 633.146 180.78C604.509 163.208 575.209 146.306 541.023 135.72C512.084 126.758 482.951 118.172 453.83 109.574C426.019 101.353 397.296 95.2653 369.126 87.893C359.497 85.4839 349.556 83.9185 339.487 83.2257C330.071 82.502 322.959 77.5803 312.295 78.0812C301.949 78.5662 289.87 75.3952 278.782 72.8071C274.017 72.0669 269.153 71.7952 264.302 71.9982C254.826 72.2111 245.344 71.7882 235.961 70.7342C227.267 69.6171 216.756 74.2592 209.896 65.8014C212.267 68.5996 212.461 71.3014 210.124 73.3507C207.917 75.2862 204.304 74.9828 201.318 74.2765C195.653 72.9351 190.06 73.6556 184.347 73.7946C175.672 74.0032 168.552 78.6152 159.733 78.4351C157.219 78.3829 154.597 76.5723 151.952 78.3988C147.79 81.2712 141.891 80.7451 137.48 82.3725C129.251 85.4061 120.442 83.7771 112.31 85.9685C106.904 87.4354 101.694 89.3102 96.751 91.5665C92.3387 93.5589 87.5815 95.7282 82.1503 96.0158C79.3803 96.1627 77.849 98.6749 74.8369 98.2609C75.1839 103.225 69.4703 102.443 66.1253 103.971C61.9289 105.889 57.0466 106.561 53.1165 109.087C45.5024 113.963 38.0317 119.1 28.6462 121.974ZM965.422 671.784C979.211 668.9 1009.22 648.793 1010.88 640.759C997.749 652.788 982.433 663.241 965.422 671.784V671.784Z" fill="#9CAFB7"/>
<path d="M1520.51 831.241C1530.33 820.801 1534.18 808.166 1534.54 794.139C1534.94 778.171 1531.83 762.787 1527.19 747.633C1525.79 743.044 1524.26 738.488 1522.97 733.869C1522.62 732.628 1522.55 731.04 1523.05 729.925C1523.4 729.157 1524.94 728.929 1525.96 728.459C1526.2 729.09 1526.48 729.711 1526.68 730.355C1527.24 732.087 1527.63 733.889 1528.34 735.555C1530.63 740.981 1533.13 746.322 1535.37 751.769C1536.89 755.442 1538.22 759.19 1539.36 762.999C1540.08 765.403 1540.12 767.997 1540.68 770.454C1541.57 774.349 1543.03 778.15 1543.57 782.083C1544.41 788.206 1545.23 794.424 1545.06 800.574C1544.68 814.17 1539.91 826.062 1530.16 835.903C1525.62 840.483 1521.31 845.187 1515.43 848.124C1514.79 848.445 1514.3 849.664 1514.26 850.492C1513.85 858.827 1510.95 866.276 1505.92 872.795C1502.16 877.674 1498.38 882.736 1493.72 886.661C1489.81 889.953 1484.77 892.1 1479.94 894.043C1475.65 895.772 1471.01 896.805 1466.44 897.639C1459.92 898.828 1453.43 898.057 1447.2 895.849C1446.3 895.531 1445.47 894.002 1445.3 892.927C1445.12 891.731 1446.19 891.182 1447.46 890.599C1451.43 888.775 1455.3 890.01 1459.15 890.497C1466.44 891.42 1473.04 889.347 1478.94 885.521C1488.99 878.995 1495.51 869.455 1499.81 858.426C1502.14 852.468 1501.91 852.349 1495.78 852.805C1487.7 853.404 1480.49 851.339 1474.63 845.624C1467.83 838.991 1468 828.666 1474.78 821.98C1476.91 819.882 1479.62 819.556 1482.31 819.327C1488.44 818.804 1494.07 820.446 1499.19 823.774C1504.47 827.215 1509.25 831.172 1511.71 837.277C1512.31 838.751 1513.23 838.639 1514.27 837.557C1516.31 835.422 1518.43 833.343 1520.51 831.241ZM1493.84 830.445C1491.51 829.07 1489.21 827.65 1486.84 826.336C1485.38 825.524 1484.37 826.029 1483.54 827.518C1480.96 832.185 1481.88 838.111 1485.72 842.084C1489.9 846.414 1494.97 846.236 1500.23 845.138C1500.64 845.052 1501.13 843.83 1501.06 843.192C1500.48 837.943 1497.57 834.024 1493.84 830.445L1493.84 830.445ZM1532.3 818.43L1532.85 818.559L1536.5 807.455C1536.24 807.369 1535.97 807.283 1535.7 807.197L1532.3 818.43ZM1502.53 859.537L1503.23 859.759L1504.83 852.564C1504.56 852.503 1504.28 852.442 1504.01 852.381C1503.52 854.766 1503.02 857.151 1502.53 859.537Z" fill="#9CAFB7"/>
<path d="M1435.66 907.048C1431.93 903.177 1428.05 898.863 1423.83 894.915C1422.36 893.535 1420.51 892.752 1421.12 890.312C1421.25 889.81 1421.41 889.057 1421.77 888.911C1427.71 886.429 1432.02 881.617 1437.24 878.127C1440.74 875.789 1444.57 874.109 1448.93 874.505C1449.8 874.584 1450.61 875.339 1451.44 875.782C1450.98 876.591 1450.7 877.637 1450.02 878.169C1445.08 882.037 1440.09 885.849 1435.03 889.568C1433.45 890.734 1433.78 891.485 1434.9 892.767C1437.48 895.724 1439.83 898.885 1442.37 901.874C1443.46 903.151 1444.81 904.208 1446.05 905.352C1446.16 905.448 1446.42 905.388 1446.5 905.488C1447.28 906.519 1448.89 908.094 1448.63 908.512C1447.81 909.795 1446.59 910.78 1445.17 911.326C1440.97 912.832 1438.78 909.314 1435.66 907.048Z" fill="#9CAFB7"/>
</svg>
