<svg width="536" height="899" viewBox="0 0 536 899" fill="none" xmlns="http://www.w3.org/2000/svg">
<path d="M-190.892 748L-170.381 129.223C138.21 -15.4888 395.962 379.61 351.072 561.944C306.182 744.277 -35.5111 780.5 -190.892 748Z" fill="#E6B89C" fill-opacity="0.4"/>
<path opacity="0.4" d="M155.555 654.4C155.555 645.19 173.178 630.78 182.815 630.78C201.826 630.78 195.892 642.59 207.85 642.59C221.478 642.59 224.591 590 245.327 590C267.991 590 264.434 641.44 278.342 641.44C284.333 641.44 287.334 636.44 295.847 636.44C300.787 636.44 306.193 645.22 306.193 654.44L155.555 654.4Z" fill="#9CAFB7"/>
<path d="M203.883 667.85C203.883 653.27 224.215 650.18 232.251 650.18C248.547 650.18 249.626 633.58 263.158 633.58C275.055 633.58 281.107 650.72 292.183 650.72C315.954 650.72 321.248 602 344.372 602C367.902 602 366.699 652.86 388.593 652.86C399.725 652.86 466.604 656.6 466.604 667.86L203.883 667.85Z" fill="white"/>
<path d="M-144.035 106.107C-137.223 98.912 -130.028 92.4521 -122.511 86.7838C-117.84 83.1498 -112.987 79.9724 -108.272 76.4395C-106.381 75.0175 -104.883 74.3571 -104.016 78.8854C-104.953 74.068 -102.882 73.1026 -100.85 72.0788C-98.1604 70.9025 -95.5173 69.5275 -92.9322 67.9597C-90.5876 66.3623 -89.6353 67.2218 -89.4437 71.3551C-88.5446 63.1138 -83.284 63.5499 -80.0222 61.202C-73.0817 56.1856 -65.3754 53.576 -57.557 53.5943C-56.0756 53.731 -54.5881 53.526 -53.1546 52.9876C-48.7613 50.8372 -44.2978 51.7963 -39.8614 52.0475C-35.3871 52.1662 -30.9209 52.6283 -26.4831 53.4316C-19.0185 55.0116 -11.4666 55.2897 -4.01562 57.3816C4.585 59.7911 13.2049 62.2432 21.8566 64.204C44.5089 69.3374 66.1601 79.2788 87.6957 89.8C105.336 98.4189 122.812 107.698 139.962 118.055C159.996 130.357 178.808 146.206 195.935 165.21C214.982 186.038 233.364 208.055 253.096 227.644C263.387 237.862 274.247 246.911 285.043 256.075C308.398 275.902 329.4 299.671 346.946 329.052C357.993 347.538 366.946 368.09 376.262 388.261C387.478 412.55 399.72 435.842 411.592 459.492C420.075 475.96 426.874 493.992 431.793 513.069C435.903 529.568 438.555 546.565 438.003 564.018C437.426 582.275 436.189 600.516 430.917 617.727C428.483 625.591 425.738 633.261 422.695 640.702C418.471 651.13 412.662 659.06 406.709 666.911C394.711 682.724 380.442 693.355 364.824 700.74C354.134 705.796 343.408 710.574 332.264 713.202C314.118 717.608 295.594 718.09 277.344 714.632C251.693 709.555 225.563 712.054 200.65 721.968C188.109 726.932 175.567 732.124 163.522 738.768C137.928 752.883 113.076 769.497 88.0517 785.509C67.1907 798.855 46.0927 811.429 23.7216 819.288C12.2987 823.436 0.680973 826.46 -11.046 828.34C-29.3776 831.068 -47.6242 828.832 -65.8061 824.8C-86.898 820.254 -107.743 813.708 -128.195 805.208C-160.483 791.584 -187.221 766.745 -207.671 729.255C-223.974 699.374 -239.463 668.627 -251.67 635.107C-267.955 590.393 -274.502 542.706 -272.659 492.526C-271.744 467.64 -270.889 442.756 -269.031 417.99C-266.849 388.907 -263.355 360.097 -256.655 332.275C-251.145 308.664 -244.272 285.714 -236.102 263.651C-222.861 228.682 -208.106 195.047 -189.83 164.719C-179.931 148.287 -169.458 132.522 -156.998 119.562C-152.646 115.036 -148.722 109.703 -143.942 105.974C-143.822 107.82 -144.411 108.691 -145.561 109.828C-149.139 113.367 -152.726 117.008 -155.332 122.098C-155.911 121.98 -156.503 122.068 -157.052 122.355C-157.601 122.642 -158.089 123.118 -158.47 123.738C-162.001 128.719 -165.895 133.209 -169.366 138.265C-173.484 144.269 -178.33 149.382 -181.276 156.844C-184.455 159.765 -186.919 163.968 -188.337 168.892C-185.888 164.975 -181.755 162.87 -181.387 156.699C-180.208 156.325 -179.151 155.416 -178.382 154.114C-174.05 147.551 -169.425 141.412 -164.864 135.173C-161.7 130.844 -157.168 128.265 -155.397 121.997C-153.755 122.89 -152.957 120.984 -151.964 119.893C-147.263 114.725 -142.615 109.465 -137.577 104.914C-134.571 102.2 -131.661 99.28 -128.708 96.4534L-129.263 95.3063C-133.195 98.6717 -137.18 101.925 -141.025 105.472C-142.09 106.447 -142.801 107.82 -144.035 106.107ZM-146.416 121.974C-147.137 120.373 -146.169 118.842 -146.239 117.123C-147.929 119.465 -151.069 119.509 -151.492 124.609C-149.523 123.208 -148.204 121.182 -146.301 121.809C-148.446 126.338 -152.391 128.603 -153.641 134.535C-154.321 137.74 -157.991 138.431 -159.243 141.904C-162.479 138.594 -161.679 142.536 -161.791 144.697C-161.904 146.939 -163.244 147.772 -164.278 148.805C-165.394 150.041 -166.386 151.481 -167.226 153.087C-171.978 161.077 -177.034 168.716 -181.892 176.588C-183.714 179.541 -185.997 182.216 -187.447 185.169C-188.997 188.329 -190.302 192.009 -191.921 195.309C-197.9 207.488 -204.495 219.191 -209.65 232.017C-215.819 247.369 -222.266 262.576 -227.414 278.719C-231.768 292.369 -236.871 305.604 -239.949 319.957C-241.902 329.069 -245.337 337.362 -246.509 346.959C-247.903 358.381 -250.781 369.365 -252.011 380.948C-253.542 395.364 -255.503 409.753 -256.168 424.254C-257.1 444.543 -258.266 464.816 -258.694 485.17C-259.336 515.618 -258.819 545.842 -253.766 575.634C-251.022 591.809 -247.793 607.827 -242.695 622.851C-230.727 658.123 -214.578 689.796 -198.152 721.176C-180.152 755.568 -156.926 779.736 -127.414 792.135C-106.412 800.771 -84.9839 807.244 -63.3017 811.505C-42.2464 815.784 -20.8101 814.74 -0.0203037 808.425C26.8893 800.464 52.1197 786.248 76.8389 769.976C108.939 748.843 140.849 727.145 174.658 711.54C196.236 701.586 218.194 694.779 241.005 694.119C253.148 693.768 265.147 696.25 277.179 697.803C307.564 701.723 336.311 693.114 364.072 676.656C377.922 668.44 390.552 657.512 400.564 641.539C415.799 617.237 421.415 587.977 422.219 556.583C423.054 524.063 415.303 495.027 402.187 468.671C384.944 434.016 367.216 399.815 351.198 364.015C334.614 326.95 312.638 297.665 286.138 274.72C269.387 260.216 252.718 245.566 236.853 229.177C221.919 213.748 207.906 196.739 193.287 180.78C177.195 163.208 160.73 146.306 141.518 135.72C125.256 126.758 108.884 118.172 92.5198 109.574C76.891 101.353 60.7498 95.2653 44.9193 87.893C39.5082 85.4839 33.9221 83.9185 28.2634 83.2257C22.9722 82.502 18.9757 77.5803 12.9827 78.0812C7.16883 78.5662 0.381045 75.3952 -5.85004 72.8071C-8.52765 72.0669 -11.2611 71.7952 -13.987 71.9982C-19.3121 72.2111 -24.6405 71.7882 -29.9139 70.7342C-34.7992 69.6171 -40.706 74.2592 -44.5608 65.8014C-43.2286 68.5996 -43.1198 71.3014 -44.4327 73.3507C-45.673 75.2862 -47.7036 74.9828 -49.3815 74.2765C-52.5651 72.9351 -55.7078 73.6556 -58.9186 73.7946C-63.7937 74.0032 -67.7947 78.6152 -72.7504 78.4351C-74.163 78.3829 -75.6369 76.5723 -77.1232 78.3988C-79.4622 81.2712 -82.7772 80.7451 -85.2556 82.3725C-89.8802 85.4061 -94.8301 83.7771 -99.4003 85.9685C-102.438 87.4354 -105.366 89.3102 -108.144 91.5665C-110.623 93.5589 -113.297 95.7282 -116.349 96.0158C-117.905 96.1627 -118.766 98.6749 -120.459 98.2609C-120.264 103.225 -123.474 102.443 -125.354 103.971C-127.712 105.889 -130.456 106.561 -132.664 109.087C-136.943 113.963 -141.142 119.1 -146.416 121.974ZM380.013 671.784C387.762 668.9 404.623 648.793 405.558 640.759C398.179 652.788 389.572 663.241 380.013 671.784V671.784Z" fill="#9CAFB7"/>
</svg>
