<svg xmlns="http://www.w3.org/2000/svg" viewBox="0 0 483.61 441.35"><defs><style>.cls-1{fill:#c7f0ef;}.cls-2{fill:#fff;}.cls-10,.cls-11,.cls-12,.cls-13,.cls-14,.cls-15,.cls-16,.cls-17,.cls-18,.cls-19,.cls-20,.cls-21,.cls-22,.cls-23,.cls-24,.cls-25,.cls-26,.cls-27,.cls-3,.cls-4,.cls-5,.cls-6,.cls-7,.cls-8,.cls-9{fill:none;stroke:#000;stroke-linecap:round;stroke-linejoin:round;}.cls-3{stroke-width:0.71px;}.cls-4{stroke-dashoffset:-0.22px;}.cls-10,.cls-11,.cls-12,.cls-13,.cls-14,.cls-15,.cls-16,.cls-17,.cls-18,.cls-19,.cls-20,.cls-21,.cls-22,.cls-23,.cls-24,.cls-25,.cls-26,.cls-27,.cls-4,.cls-5,.cls-6,.cls-7,.cls-8,.cls-9{stroke-width:0.51px;stroke-dasharray:3.6 1.8;}.cls-5{stroke-dashoffset:0.62px;}.cls-6{stroke-dashoffset:0.81px;}.cls-7{stroke-dashoffset:0.64px;}.cls-8{stroke-dashoffset:-0.35px;}.cls-9{stroke-dashoffset:0.12px;}.cls-10{stroke-dashoffset:0.46px;}.cls-11{stroke-dashoffset:-0.17px;}.cls-12{stroke-dashoffset:0.82px;}.cls-13{stroke-dashoffset:0.68px;}.cls-14{stroke-dashoffset:-0.37px;}.cls-15{stroke-dashoffset:0.25px;}.cls-16{stroke-dashoffset:2px;}.cls-17{stroke-dashoffset:1.32px;}.cls-18{stroke-dashoffset:1.13px;}.cls-19{stroke-dashoffset:0.96px;}.cls-20{stroke-dashoffset:1.9px;}.cls-21{stroke-dashoffset:1.53px;}.cls-22{stroke-dashoffset:0.39px;}.cls-23{stroke-dashoffset:1.44px;}.cls-24{stroke-dashoffset:0.69px;}.cls-25{stroke-dashoffset:2.65px;}.cls-26{stroke-dashoffset:-0.22px;}.cls-27{stroke-dashoffset:2.13px;}</style></defs><title>ShottleAsset 1</title><g id="Layer_2" data-name="Layer 2"><g id="Layer_1-2" data-name="Layer 1"><g id="Layer_2-2" data-name="Layer 2"><g id="Layer_1-2-2" data-name="Layer 1-2"><path id="Path_35" data-name="Path 35" class="cls-1" d="M483.47,222.88c3.5,89.4-58.8,154-162.6,189.8s-249.1,42.9-299.4-6.7-5.3-155.7,63.7-248.5c69.2-92.8,162.5-172.4,244-155.1C410.47,19.58,480,133.58,483.47,222.88Z"/></g></g></g><g id="Layer_3" data-name="Layer 3"><rect class="cls-2" x="277.88" y="68.23" width="99.3" height="294.8"/><rect class="cls-2" x="322.62" y="65.33" width="9" height="274.17"/><rect class="cls-2" x="175.62" y="82.68" width="60.38" height="302.32"/><rect class="cls-2" x="171.45" y="101.96" width="68.79" height="62.02"/><rect class="cls-2" x="169.89" y="163.98" width="71.92" height="78.87"/><rect class="cls-2" x="171.45" y="242.84" width="68.79" height="105.44"/><rect class="cls-2" x="171.45" y="348.29" width="68.44" height="32.5"/><rect class="cls-2" x="171.45" y="372.12" width="68.44" height="16.25"/></g><g id="Layer_2-3" data-name="Layer 2"><path class="cls-3" d="M377.18,69.63h-99.3m99.3,26.9h-99.3m1.5-28.3h96.3m-52.4-2.9h7.8m0,0h.7m-53.9,31.2h91.2m0,0h8.1m0,46.8h-99.3m0,219.7h99.3m-99.3-219.7h99.3m0-46.8V69.63m-99.3,0v26.9m1.5-28.3h-.3l-.3.1-.2.1-.2.2-.2.2-.1.3-.1.2-.1.3m99.3,0-.1-.3v-.2l-.2-.3-.2-.2-.2-.2-.2-.1-.3-.1h-.3m-52.4-2.9v2.9m8.5,0v-2.9m-53.9,31.2v46.8m99.3,0V96.53m-99.3,46.8V363m99.3,0V143.33"/><polyline class="cls-4" points="370.1 355.88 369.98 355.88 369.61 355.88 369.01 355.88 368.17 355.88 367.09 355.88 365.79 355.88 364.27 355.88 362.54 355.88 360.61 355.88 358.49 355.88 356.19 355.88 353.73 355.88 351.12 355.88 348.37 355.88 345.51 355.88 342.54 355.88 339.49 355.88 336.37 355.88 333.2 355.88 329.99 355.88 326.78 355.88 323.56 355.88 320.37 355.88 317.22 355.88 314.13 355.88 311.12 355.88 308.2 355.88 305.4 355.88 302.72 355.88 300.18 355.88 297.8 355.88 295.59 355.88 293.56 355.88 291.73 355.88 290.11 355.88 288.69 355.88 287.5 355.88 286.54 355.88 285.82 355.88 285.33 355.88 285.09 355.88 285.06 355.88"/><polyline class="cls-5" points="288.6 352.33 288.73 352.33 289.1 352.33 289.71 352.33 290.56 352.33 291.64 352.33 292.96 352.33 294.49 352.33 296.23 352.33 298.17 352.33 300.3 352.33 302.59 352.33 305.05 352.33 307.65 352.33 310.37 352.33 313.2 352.33 316.13 352.33 319.12 352.33 322.17 352.33 325.26 352.33 328.36 352.33 331.45 352.33 334.52 352.33 337.54 352.33 340.51 352.33 343.39 352.33 346.17 352.33 348.83 352.33 351.36 352.33 353.74 352.33 355.95 352.33 357.98 352.33 359.83 352.33 361.46 352.33 362.89 352.33 364.09 352.33 365.06 352.33 365.79 352.33 366.28 352.33 366.53 352.33 366.56 352.33"/><polyline class="cls-6" points="365.55 107.84 367.28 107.84 368.79 107.84 370.08 107.84 371.13 107.84 371.95 107.84 372.52 107.84 372.85 107.84 372.94 107.84"/><polyline class="cls-7" points="282.23 107.84 282.28 107.84 282.57 107.84 283.11 107.84 283.89 107.84 284.9 107.84 286.15 107.84 287.63 107.84 289.32 107.84 291.23 107.84 293.33 107.84 295.62 107.84 298.08 107.84 300.71 107.84 303.48 107.84 306.38 107.84 309.4 107.84 312.52 107.84 315.72 107.84 318.99 107.84 322.3 107.84 325.64 107.84 328.99 107.84 332.34 107.84 335.65 107.84 338.93 107.84 342.14 107.84 345.27 107.84 348.31 107.84 351.23 107.84 354.02 107.84 356.67 107.84 359.16 107.84 361.48 107.84 363.61 107.84 365.55 107.84"/><polyline class="cls-8" points="282.23 114.93 282.23 114.93 282.4 114.93 282.81 114.93 283.47 114.93 284.37 114.93 285.5 114.93 286.86 114.93 288.45 114.93 290.25 114.93 292.25 114.93 294.45 114.93 296.83 114.93 299.38 114.93 302.08 114.93 304.92 114.93 307.88 114.93 310.95 114.93 314.11 114.93 317.35 114.93 320.64 114.93 323.97 114.93 327.32 114.93 330.67 114.93 334 114.93 337.3 114.93 340.54 114.93 343.72 114.93 346.8 114.93 349.79 114.93 352.64 114.93 355.37 114.93 357.94 114.93 360.35 114.93 362.57 114.93 364.61 114.93 366.44 114.93 368.06 114.93 369.46 114.93 370.63 114.93 371.57 114.93 372.26 114.93 372.72 114.93 372.92 114.93 372.94 114.93"/><line class="cls-9" x1="310.34" y1="96.5" x2="303.76" y2="114.93"/><line class="cls-10" x1="326.09" y1="114.93" x2="321.95" y2="96.51"/><line class="cls-11" x1="345.68" y1="96.5" x2="358.06" y2="68.16"/><line class="cls-12" x1="334.3" y1="96.5" x2="340.27" y2="68.16"/><line class="cls-13" x1="343.34" y1="68.16" x2="336.19" y2="96.5"/><line class="cls-14" x1="347.75" y1="96.5" x2="361.13" y2="68.16"/><line class="cls-15" x1="353.98" y1="105.01" x2="353.98" y2="96.5"/><line class="cls-15" x1="357.98" y1="105.01" x2="357.98" y2="96.5"/><line class="cls-16" x1="353.98" y1="105.01" x2="357.98" y2="105.01"/><line class="cls-15" x1="342.21" y1="105.01" x2="342.21" y2="96.5"/><polyline class="cls-17" points="342.21 105.01 343.82 105.01 345.4 105.01 346.95 105.01 348.45 105.01 349.9 105.01 351.31 105.01 352.67 105.01 353.98 105.01"/><line class="cls-15" x1="344.42" y1="105.01" x2="344.42" y2="96.5"/><line class="cls-18" x1="284.35" y1="114.93" x2="284.35" y2="143.28"/><line class="cls-18" x1="370.81" y1="143.28" x2="370.81" y2="114.93"/><line class="cls-19" x1="370.1" y1="362.96" x2="370.1" y2="355.87"/><line class="cls-19" x1="285.06" y1="355.88" x2="285.06" y2="362.96"/><line class="cls-20" x1="366.56" y1="352.33" x2="366.56" y2="114.93"/><line class="cls-20" x1="288.6" y1="114.93" x2="288.6" y2="352.33"/><line class="cls-21" x1="372.94" y1="107.84" x2="372.94" y2="96.5"/><line class="cls-21" x1="282.23" y1="96.5" x2="282.23" y2="107.84"/><line class="cls-18" x1="282.23" y1="114.93" x2="282.23" y2="143.28"/><line class="cls-18" x1="372.94" y1="143.28" x2="372.94" y2="114.93"/><line class="cls-21" x1="363.01" y1="107.84" x2="363.01" y2="96.5"/><line class="cls-21" x1="292.15" y1="96.5" x2="292.15" y2="107.84"/><line class="cls-18" x1="301.19" y1="114.93" x2="301.19" y2="143.28"/><line class="cls-18" x1="363.56" y1="143.28" x2="363.56" y2="114.93"/><polyline class="cls-22" points="308.26 96.5 306.66 103.89 305.65 107.84 303.58 114.93"/><line class="cls-18" x1="305.45" y1="114.93" x2="305.45" y2="143.28"/><line class="cls-18" x1="359.3" y1="143.28" x2="359.3" y2="114.93"/><polyline class="cls-23" points="322.59 99.37 322.42 97.94 322.43 96.5"/><line class="cls-18" x1="331.83" y1="96.5" x2="331.83" y2="68.16"/><line class="cls-18" x1="323.33" y1="68.16" x2="323.33" y2="96.5"/><line class="cls-24" x1="347.85" y1="114.93" x2="347.85" y2="96.51"/><line class="cls-24" x1="333.67" y1="96.5" x2="333.67" y2="114.93"/><line class="cls-18" x1="322.62" y1="68.16" x2="322.62" y2="96.5"/><line class="cls-18" x1="332.54" y1="96.5" x2="332.54" y2="68.16"/><line class="cls-25" x1="335.38" y1="91.38" x2="334" y2="96.51"/><polyline class="cls-26" points="348.17 96.5 349.5 93.18 350.73 90.28 351.84 87.82"/><polyline class="cls-27" points="286.05 69.58 288.07 69.58 290.28 69.58 292.68 69.58 295.26 69.58 297.99 69.58 300.87 69.58 303.89 69.58 307.02 69.58 310.26 69.58 313.58 69.58 316.97 69.58 320.42 69.58 323.9 69.58 327.4 69.58 330.9 69.58 334.38 69.58 337.83 69.58 341.23 69.58 344.56 69.58 347.8 69.58 350.95 69.58 353.98 69.58 356.87 69.58 359.62 69.58 362.21 69.58 364.63 69.58 366.87 69.58 368.91 69.58 370.74 69.58 372.36 69.58 373.75 69.58 374.92 69.58 375.85 69.58 376.53 69.58 376.98 69.58 377.18 69.58 377.19 69.58"/></g><g id="Layer_4" data-name="Layer 4"><path class="cls-3" d="M235.9,89.8l-.17.17H235l-1.22.17h-1.56l-2.08.17h-2.43L225,90.5l-3.13.17h-3.47l-3.65.17h-3.65l-3.82.17-4,.17h-3.82l-3.65.17h-3.47l-3.47.17-3,.17h-2.78l-2.26.17h-1.91l-1.56.17-1,.17m59.58-7.47v.17h-1l-.87.17h-1.56l-1.91.17-2.26.17h-3.82l-1.39.17h-3l-2.78.17h-3.65l-3.47.17h-2.78l-2.61.17h-3.13l-3.3.17H195.6l-2.78.17h-3.13l-3,.17h-4l-.87.17h-1.74l-1.39.17H177l-.35.17H176l-.17.17m60.11,6.08h-.17l-.69.17h-1.22l-1.56.17-2.08.17h-2.43l-2.78.17h-3.13l-3.47.17H214.7l-3.65.17-3.82.17h-4l-3.82.17h-3.65l-3.47.17-3.47.17h-3l-2.78.17h-2.26l-1.91.17-1.56.17h-1m59.58-7.3h0l-.35.17h-.69l-.87.17h-1.56l-1.91.17h-3.3l-1.39.17H223l-3,.17h-2.78l-3.65.17h-3.47l-2.78.17H204.8l-3.13.17h-3.3L195.6,90h-2.78l-3.13.17h-4.34l-.87.17h-2.61l-.87.17h-2.26l-1.22.17h-1.22l-.17.17h-.35m60.28,2.08h0l-.52.17-1,.17H232.6l-2.26.17-2.78.17h-3.3l-3.65.17-4,.17h-4.17l-4.34.17-4.34.17h-4.34l-4.34.17-3.82.17H187.6l-3.3.17-3,.17h-2.26l-1.91.17-1,.17m59.93-7.3h-.52l-1,.17-1.91.17h-2.26l-2.78.17-3.3.17h-3.65l-4,.17-4.17.17H208.1l-4.34.17-4.34.17h-4.34l-3.82.17-3.65.17h-3.3l-3,.17-2.26.17h-1.91l-1.22.17-.35.17m60.45-.35v.17h-.52l-1,.17-1.91.17h-2.26l-2.78.17-3.3.17h-3.65l-4,.17-4.17.17H208.1l-4.34.17-4.34.17h-4.34l-3.82.17-3.65.17h-3.3l-3,.17-2.26.17h-1.91l-1,.17m59.93-7.3h0l-.52.17h-1l-1.91.17-2.26.17h-2.78l-3.3.17-3.65.17h-4l-4.17.17-4.34.17h-4.34l-4.34.17-4.34.17h-3.82L187.6,87l-3.3.17h-3l-2.26.17-1.91.17H176l-.17.17m61.32,4.69-.52.17h-1.22l-1.74.17-2.43.17h-3l-3.3.17-3.82.17H217l-4.34.17-4.52.17h-4.52l-4.34.17-4.52.17h-4l-3.82.17-3.47.17h-3l-2.26.17-2.08.17h-1m62-7.3-.52.17-1.22.17h-1.74l-2.43.17-3,.17H225l-3.82.17-4.17.17h-4.34l-4.52.17-4.52.17h-4.34l-4.52.17-4,.17h-3.82l-3.47.17-3,.17h-2.26l-2.08.17-1.22.17h-.35l.17.17m-.17-5h.17m62.54,6.95v.17h-.52l-1.22.17-1.74.17h-2.43l-3,.17-3.47.17H221.3l-4.17.17-4.52.17H208.1l-4.52.17-4.52.17h-4.34l-4.17.17-3.82.17h-3.47l-3,.17-2.43.17H176l-1,.17M237.29,87h-.52l-1.22.17-1.74.17h-2.43l-3,.17-3.47.17H221.3l-4.17.17-4.52.17H208.1l-4.52.17-4.52.17h-4.34l-4.17.17-3.82.17h-3.47l-3,.17-2.43.17H176l-1.22.17-.52.17m62.88,1.39h0l-.52.17h-1.22l-1.74.17-2.43.17h-3l-3.3.17-3.82.17H217l-4.34.17-4.52.17h-4.52l-4.34.17-4.52.17h-4l-3.82.17-3.47.17h-3l-2.26.17-2.08.17h-1m62-7.3h0l-.52.17-1.22.17h-1.74l-2.43.17-3,.17H225l-3.82.17-4.17.17h-4.34L208.1,87l-4.52.17h-4.34l-4.52.17-4,.17h-3.82l-3.47.17-3,.17h-2.26l-2.08.17-1.22.17h-.17m62.54,3v.17h-.52l-1.22.17-1.74.17h-2.43l-3,.17-3.47.17H221.3l-4.17.17-4.52.17H208.1l-4.52.17-4.52.17h-4.34l-4.17.17-3.82.17h-3.47l-3,.17-2.43.17H176l-1,.17m62.36-7.3h-.52l-1.22.17-1.74.17h-2.43l-3,.17L225,87H221.3l-4.17.17-4.52.17H208.1l-4.52.17-4.52.17h-4.34l-4.17.17-3.82.17h-3.47l-3,.17-2.43.17H176l-1.22.17-.52.17m1.56-3V82.33m0,0H235.9m-60.11,0v.17l-.17.17M235.9,89.8h0m-60.11-2.43h0m60.11-2.61h0m-59.76,7.82h.17v-.35m-.69-6.77h0l.17.17v.17m.52,9.9v-.35h-.17m59.76-1.91h0m0-5h0m-61.32-3.47,1,.52m.52,9.9-1-.69m.52-12-1,.69m.52,9.73,1-.52m-1.91-8.16v.17h.17v.17h.17v.17m.52,9.73h0l-.17-.17v-.17m62.19-1.91h0m0-5h0m-62.88-3.65v.69m.69,9.9v-.69m-.35-10.25h-.17v.17l-.17.17m.69,9.9v-.35h.17V93.1m65.14,255.19H171.45m0-246.33h34.4m0,0h34.4m.17,280.72H171.28m69.14,4.86H171.28m-1.39-144.7h36m0,0h36M169.89,164h36m0,0h36m-5.91-62V93.45m0-3.65V88.41m0-3.65V82.33m-60.11,3.47v1.56m0,7.82V102m0-11.12v1.91m60.28-2.61L235.9,90V89.8m.17-4.69h-.17v-.35m-60.11,2.61v.17h-.17m0,.17h0m60.28.69v-.17l.17-.17m-60.45-2.61.17.17V86m-.17,4.52.17.17v.17m60.11,2.61V93.1l.17-.17m0-4.86.52-.35.52-.35M174.75,90l.52.35.35.17m60.45,2.43.52-.17.52-.35m0-6.6-.52-.35-.52-.17m-60.28,2.43-.52.17-.52.35m62.36,2.61-.52-.35-.52-.35m1-2.78.17-.17.17-.17M174.4,84.42v.35l.17.17m-.17,4.52v.35l.17.17m62.54,2.43.17-.17.17-.35m-63.23-3.13v.69M237.46,87v-.69m0,5.56v-.69m-63.23-2.43v.69m63.23-3.13-.17-.35-.17-.17m-62.54,2.43-.17.17v.17m0,0v.17m63.06,2.43-.17-.17-.17-.17M171.8,348.29v34.4m68.1,0v-34.4M171.45,242.84V348.29m68.79,0V242.84M171.45,102v62m68.79,0V102m.17,285.59v-4.86m-69.14,0v4.86M169.89,164v78.87m71.92,0V164"/></g></g></svg>